<svg width="366.32" height="364.84" version="1.1" viewBox="0 0 183.16 182.42" xmlns="http://www.w3.org/2000/svg" xmlns:xlink="http://www.w3.org/1999/xlink">
	<defs>
		<g id="motif" transform="matrix(-.04916 -.059271 .052535 -.052553 -152.6 35.682)">
			<path transform="rotate(124.51 70.247 -5081.5)" d="m5893.8-7534.7c-24.819-0.025-49.668 9.2319-68.086 25.922 15.008-5.4046 31.842-5.5818 46.961-0.4961 15.119 5.0858 28.423 15.401 37.113 28.777 7.9687 12.266 12.045 27.225 10.305 41.748-1.7408 14.523-9.5448 28.431-21.664 36.621-10.213 6.9017-22.962 9.5255-35.256 8.6328-12.294-0.8928-24.17-5.1267-35.035-10.947-21.731-11.641-39.513-29.395-60.025-43.068-35.501-23.664-79.347-34.527-121.79-30.17-42.442 4.3566-83.168 23.9-113.12 54.283 58.44-8.635 120.04 6.4491 167.88 41.109 24.923 18.057 45.9 40.894 67.637 62.682s44.817 42.964 72.406 56.604c28.334 14.008 60.833 19.451 92.186 15.441 31.352-4.0098 61.437-17.458 85.334-38.146-34.641 7.8614-71.813 4.109-104.18-10.518-22.82-10.311-43.228-25.912-59.166-45.226 18.864 7.6722 40.09 9.4138 59.953 4.9199s38.272-15.203 51.996-30.248c13.724-15.046 22.703-34.36 25.357-54.551 2.6547-20.191-1.0258-41.168-10.394-59.25-14.073-27.162-41.202-47.173-71.309-52.598-5.6449-1.0171-11.37-1.5158-17.098-1.5215zm-404.29 116.43c-7.671-0.052-15.336 0.2094-22.951 0.7597-41.09 2.9697-81.576 13.996-118.53 32.197-13.797 4.9913-27.24 10.999-40.176 17.898-35.355 18.857-67.282 44.378-92.473 75.539-25.191 31.161-43.547 67.998-52.008 107.16-9.8995 45.827-6.0887 94.077 7.6856 138.91-10.072-11.09-21.485-21.021-33.553-29.922-26.722-19.709-56.732-34.7-82.978-55.039-13.123-10.17-25.308-21.715-34.98-35.209-9.6723-13.494-16.781-29.021-19.215-45.443-2.2158-14.95-0.4757-30.498 5.209-44.502 5.6846-14.004 15.325-26.412 27.627-35.191 12.302-8.7796 27.238-13.873 42.348-14.205 15.11-0.3317 30.324 4.1355 42.725 12.775 5.6971 3.9693 10.846 8.8468 14.512 14.744 3.6655 5.8972 5.7867 12.866 5.3145 19.793-0.4217 6.1861-2.9195 12.183-6.8574 16.973-3.9381 4.7892-9.2805 8.3723-15.143 10.393s-12.224 2.4944-18.356 1.5703c-6.1312-0.924-12.03-3.2283-17.277-6.5312-7.5828-4.7728-13.821-11.657-17.826-19.672s-5.7658-17.137-5.0313-26.066c-7.6946 8.6835-12.672 19.742-14.07 31.26-1.3977 11.518 0.7893 23.445 6.1836 33.717 8.0817 15.389 23.34 26.667 40.293 30.506 16.953 3.839 35.317 0.3563 50.043-8.8789 14.726-9.2351 25.752-24.01 31.047-40.566 5.295-16.556 4.9412-34.762-0.3593-51.316-5.1514-16.089-14.904-30.634-27.633-41.74-12.729-11.106-28.384-18.771-44.9-22.316-33.034-7.0904-68.806 2.8749-94.908 24.326-28.234 23.202-45.167 59.31-45.863 95.848-0.696 36.538 14.598 72.931 40.543 98.666 20.758 20.59 47.34 34.154 73.889 46.402 26.549 12.248 53.806 23.669 77.354 41 13.038 9.5959 24.76 20.957 34.832 33.629 14.48 33.356 34.114 64.5 56.822 92.965 59.395 74.45 142.16 131.92 235.17 152.37 9.7712 2.148 19.631 3.8795 29.547 5.207-11.765 5.027-23.206 10.806-34.215 17.336-40.405 23.966-74.911 58.001-98.678 98.524-12.974 22.122-23.154 46.597-41.805 64.199-9.3255 8.8013-20.783 15.664-33.383 18.047-12.6 2.3832-26.368-0.068-36.438-8.0078-5.6011-4.4165-9.9298-10.402-12.496-17.057-2.5663-6.6551-3.3779-13.96-2.4688-21.035 1.3886-10.807 6.8647-21.04 15.088-28.188 8.2232-7.1481 19.119-11.147 30.014-11.018 10.895 0.1292 21.691 4.3854 29.742 11.726 8.0513 7.3413 13.284 17.7 14.416 28.537 3.3562-21.193-2.7351-43.705-16.318-60.314-13.583-16.61-34.438-27.048-55.875-27.965-13.66-0.5844-27.433 2.5716-39.586 8.8359-12.153 6.2642-22.676 15.603-30.539 26.789-15.725 22.372-20.246 51.827-13.684 78.373 7.5306 30.463 29.475 57.004 57.932 70.23 28.457 13.226 62.841 12.904 91.096-0.7481 26.714-12.908 46.884-36.337 63.164-61.141 16.28-24.803 29.487-51.592 46.9-75.613 25.5-35.176 59.898-63.85 99.09-82.602-25.076 24.284-42.825 56.038-50.373 90.119-7.5483 34.081-4.867 70.362 7.6094 102.96s34.699 61.402 63.072 81.736c28.373 20.334 62.788 32.126 97.67 33.465 30.294 1.163 61.152-5.6351 87.102-21.311 28.943-17.484 51.132-46.062 60.244-78.625 9.1117-32.563 4.8796-68.776-12.084-98.027-10.618-18.308-26.109-33.873-44.728-43.936-18.619-10.062-40.35-14.498-61.344-11.814-20.993 2.6834-41.112 12.597-55.512 28.107-14.4 15.51-22.84 36.582-22.42 57.742 0.2961 14.91 4.9288 29.71 13.186 42.129 8.2568 12.419 20.11 22.415 33.744 28.457-7.1075-14.801-8.2137-32.381-3.0195-47.957 5.1941-15.576 16.631-28.97 31.199-36.543 12.45-6.4712 27.332-8.6654 40.803-4.7383 6.7352 1.9637 13.05 5.4234 18.211 10.176 5.1607 4.7524 9.1484 10.803 11.311 17.477 2.9483 9.1005 2.4335 19.109-0.4004 28.246-2.834 9.1367-7.8892 17.463-13.84 24.953-23.306 29.335-61.687 46.084-99.018 42.904-18.665-1.5901-36.914-7.9134-52.537-18.25-15.623-10.336-28.586-24.668-37.268-41.268-9.6686-18.486-13.964-39.634-13.057-60.476 0.9077-20.842 6.9434-41.355 16.777-59.754 18.93-35.416 52.684-62.98 91.623-72.797 38.94-9.8173 82.462-1.1875 113.69 24.066 21.798 17.63 37.304 42.883 43.166 70.299-1.023-26.732-10.208-53.096-26.018-74.676-18.779-25.632-46.426-44.076-76.447-54.486-30.021-10.41-62.348-13.1-94.047-10.902-27.175 1.8844-54.122 7.3675-79.848 16.308-49.699-8.0007-98.018-24.633-141.94-49.244-71.666-40.16-131.36-101.38-169.71-174.03-23.04-43.655-38.62-92.43-36.398-141.74 1.6303-36.18 12.893-71.704 31.113-103 18.22-31.3 43.285-58.416 72.158-80.279 32.299-24.457 69.686-42.531 109.38-50.615 39.699-8.0838 81.706-5.9604 119.72 8.0351 13.137 4.8359 25.822 11.09 37.084 19.404 11.262 8.3147 21.084 18.743 27.85 30.998 6.7653 12.255 10.381 26.383 9.3574 40.344-1.0234 13.961-6.8475 27.684-16.869 37.457-8.3779 8.1706-19.558 13.422-31.199 14.623-11.641 1.2015-23.665-1.659-33.502-7.998-13.437-8.6588-22.444-23.846-23.6-39.789s5.5678-32.269 17.615-42.775c-15.713 4.53-29.561 15.222-37.92 29.277-8.3589 14.055-11.143 31.328-7.6211 47.297 3.4533 15.658 12.82 29.805 25.404 39.742 12.584 9.9374 28.251 15.724 44.221 17.17 18.99 1.719 38.5-2.679 54.863-12.467 16.364-9.7878 29.484-24.928 36.754-42.555 5.7253-13.881 7.8403-29.169 6.6074-44.133s-5.7716-29.596-12.77-42.881c-13.996-26.569-37.538-47.313-63.99-61.527-33.93-18.233-72.918-26.298-111.44-25.078 16.581-2.9875 33.287-5.0091 50.146-5.3672 23.31-0.495 46.754 2.2067 69.096 8.8731 33.58 10.02 64.415 29.083 88.387 54.644 7.8724 13.004 13.691 27.25 17.172 42.047 5.8783 24.988 5.0701 51.138 10.404 76.248 9.7065 45.692 40.723 86.391 82.205 107.87 41.483 21.476 92.619 23.31 135.53 4.8594-34.139-9.2052-63.43-34.882-77.027-67.522-9.3893-22.539-11.501-47.553-20.58-70.219-11.056-27.601-32.03-50.383-56.143-67.781-21.68-15.643-46.164-27.387-71.934-34.506 19.682 10.89 37.261 25.567 51.486 42.992 19.477 23.858 32.574 52.877 37.58 83.266-7.0727-23.36-18.112-45.513-32.502-65.227-17.903-24.525-41.004-45.236-67.332-60.363-11.334-13.397-24.676-25.094-39.439-34.58-34.687-22.286-76.27-31.69-117.69-31.969zm-111.24 79.182c-3.8711-0.038-7.7448 0.2038-11.586 0.7383-25.391 3.5334-48.672 19.848-60.66 42.508 12.226-10.843 28.941-16.46 45.234-15.197 11.482 0.8897 22.47 5.0033 32.937 9.8046 10.468 4.8014 20.617 10.34 31.408 14.361 4.6136 1.719 9.448 3.1709 14.367 2.9648 2.4597-0.103 4.9161-0.6306 7.1348-1.6973 2.2186-1.0667 4.1935-2.6865 5.5391-4.748 1.3216-2.0247 2.0101-4.4337 2.1074-6.8496 0.097-2.416-0.3835-4.8368-1.2559-7.0918-1.7447-4.5101-4.9862-8.2793-8.4609-11.643-15.048-14.565-35.862-22.943-56.766-23.15zm-15.918 65.027c-5.6123 0.058-11.247 0.7356-16.758 1.7929-36.292 6.9628-68.379 30.341-89.486 60.674-21.108 30.333-31.775 67.144-34.279 104.01-3.1535 46.426 6.3621 93.651 27.25 135.23 4.545-74.223 43.2-145.67 102.84-190.09 15.524-11.561 32.618-21.604 44.812-36.637 6.0971-7.5161 10.861-16.269 12.787-25.754 1.9262-9.4846 0.8572-19.733-3.9394-28.139-5.5625-9.748-15.736-16.33-26.594-19.172-5.4287-1.4211-11.02-1.982-16.633-1.9238zm443.64 30.318c15.764 34.121 41.935 63.348 74.113 82.772 11.128 6.7171 23.052 12.321 35.728 15.195 12.676 2.8745 26.17 2.92 38.484-1.2402 12.314-4.1603 23.336-12.752 29.193-24.356 2.9288-5.8016 4.5436-12.284 4.4981-18.783-0.046-6.4988-1.7695-13.002-5.1036-18.58-4.9279-8.2453-13.197-14.183-22.242-17.416-9.0452-3.2334-18.841-3.9225-28.426-3.2812-19.169 1.2825-37.735 7.7286-56.922 8.709-24.886 1.2714-50.142-7.1151-69.324-23.02zm-891.72 39.176c-22.293 38.422-25.456 87.351-8.2929 128.32 11.805 28.181 32.808 52.422 59.02 68.121-13.785 2.0034-27.192 6.59-39.314 13.451-16.068 9.0939-29.852 22.217-39.613 37.889-9.761 15.672-15.465 33.865-16.268 52.311-0.8029 18.445 3.3105 37.099 11.916 53.434 8.6055 16.335 21.692 30.3 37.502 39.836 17.39 10.489 38.2 15.539 58.361 13.106 20.162-2.434 39.489-12.558 52.152-28.434 10.016-12.557 15.713-28.496 15.926-44.557 0.2124-16.061-5.0598-32.146-14.74-44.963 0.2296 11.381-2.7161 22.81-8.418 32.662-5.7018 9.8525-14.145 18.101-24.127 23.572-12.058 6.6086-26.577 9.0761-39.879 5.5957-6.651-1.7402-12.936-4.9343-18.154-9.4101-5.2183-4.4759-9.351-10.238-11.768-16.674-3.1035-8.2658-3.3153-17.465-1.3809-26.08 1.9344-8.6147 5.94-16.674 10.971-23.93 16.38-23.626 43.806-38.621 72.338-42.146s57.877 3.871 82.734 18.314c43.897 25.507 72.846 70.724 114.13 100.28 35.415 25.356 79.581 38.237 123.07 35.896-38.218-14.942-72.483-39.873-98.459-71.641-18.941-23.165-33.358-49.61-49.158-75.022-15.8-25.411-33.458-50.324-57.201-68.535-29.93-22.957-67.171-33.583-102.51-46.762-17.671-6.5895-35.152-13.966-51.16-23.938-16.008-9.9713-30.57-22.662-40.922-38.428-11.999-18.275-17.962-40.443-16.752-62.272zm699.93 36.746c-11.149 0.01-22.334 2.9674-32.135 8.3379-14.256 7.8117-25.598 20.509-32.711 35.127-8.7339 17.95-11.188 38.656-8.3164 58.41s10.906 38.571 21.988 55.174c22.164 33.206 55.637 57.061 89.613 78.025 27.579 17.017 56.056 32.682 82.32 51.666 26.264 18.984 50.513 41.634 66.77 69.668 5.9794 10.311 10.804 21.285 14.408 32.646-1.7177-3.3816-3.5781-6.6912-5.6172-9.8906-13.707-21.507-34.426-38.34-58.027-48.004-23.602-9.6639-49.962-12.212-75.106-7.9415-24.577 4.1747-47.884 14.648-72.668 17.326-12.392 1.339-25.189 0.6473-36.875-3.6875-11.686-4.3347-22.194-12.563-27.777-23.707-3.7823-7.5498-5.1977-16.184-4.5762-24.606 0.6216-8.4213 3.2309-16.633 7.0918-24.143 6.2282-12.114 15.775-22.503 27.322-29.728-24.87 3.9562-48.686 14.368-68.478 29.938-10.242 8.0565-19.521 17.61-25.73 29.066-6.2093 11.456-9.1699 24.964-6.5859 37.736 2.9946 14.802 13.256 27.512 26.022 35.582 12.765 8.0698 27.848 11.861 42.889 13.217 39.054 3.5212 77.586-8.5257 116.27-14.932 19.343-3.203 39.087-5.0052 58.561-2.7305 19.474 2.2746 38.763 8.8262 54.152 20.975 12.843 10.139 22.6 23.894 29.102 38.91 6.5011 15.016 9.8358 31.276 11.057 47.594 1.1058 14.781 0.5057 29.688-1.7871 44.332 20.812-27.52 32.723-61.664 33.545-96.158 0.8217-34.494-9.4516-69.166-28.93-97.646-30.619-44.77-80.535-71.463-125.94-101.13-22.702-14.835-44.838-30.924-63.262-50.824-18.424-19.9-33.075-43.922-38.666-70.459-2.0395-9.6796-2.853-19.759-0.9121-29.459 1.941-9.6998 6.8305-19.025 14.654-25.078 4.6299-3.5821 10.179-5.9383 15.949-6.9258 5.77-0.9874 11.752-0.6163 17.396 0.9356 11.289 3.1038 21.007 10.911 27.428 20.701 5.9606 9.0888 9.2265 19.922 9.2832 30.791 9.1194-15.804 10.382-35.9 3.3105-52.721-7.0712-16.821-22.314-29.978-39.986-34.52-4.9202-1.2643-9.9791-1.8694-15.047-1.8652zm-131.4 11.617c-1.4101-0.03-2.823 0.048-4.2266 0.2402-5.2204 0.7146-10.178 2.9901-14.322 6.2442-4.1442 3.254-7.4915 7.4625-10.012 12.09-5.0405 9.2545-6.7438 19.96-7.3281 30.482-2.5067 45.14 15.124 91.028 47.209 122.88 32.085 31.85 78.1 49.141 123.22 46.303-22.05-8.8688-41.676-23.685-56.246-42.463-23.804-30.679-33.265-70.121-37.381-108.73-1.6017-15.026-2.6051-30.556-9.2988-44.104-3.3469-6.7739-8.1403-12.938-14.377-17.203-5.0673-3.4655-11.128-5.6054-17.238-5.7363zm469.66 20.936c-10.768 0.1001-21.534 1.7957-31.787 5.0508-23.289 7.3936-44.088 22.679-57.639 43.012-13.55 20.333-19.656 45.62-16.328 69.826 3.1699 23.06 14.425 44.211 27.098 63.736 12.672 19.526 26.997 38.082 37.457 58.877 20.42 40.594 24.85 88.971 12.141 132.6 9.9564-39.862 1.7383-83.893-21.926-117.48-16.844-23.908-40.859-42.51-55.16-68.022-14.652-26.138-17.657-58.531-8.0625-86.918-20.428 11.799-36.685 30.664-45.336 52.611-8.6507 21.948-9.6384 46.832-2.754 69.396 5.2335 17.153 14.739 32.662 24.756 47.537 10.017 14.875 20.693 29.411 28.674 45.471 15.158 30.502 19.919 66.053 13.322 99.469s-24.513 64.492-50.125 86.945c14.536-6.7561 28.774-14.154 42.658-22.164 42.288-24.396 82.156-55.468 107.42-97.244 12.631-20.888 21.391-44.274 24.209-68.522 2.818-24.247-0.4407-49.353-10.617-71.541-11.644-25.387-31.583-45.867-47.561-68.775-7.989-11.454-15.069-23.686-19.383-36.969-4.3136-13.282-5.756-27.715-2.4726-41.289 1.9884-8.2206 5.7091-16.05 11.051-22.607 5.3416-6.5575 12.317-11.818 20.197-14.889 7.8805-3.0708 16.658-3.913 24.924-2.1211s15.974 6.2518 21.441 12.705c6.1563 7.2669 9.3192 16.953 8.8282 26.465-0.4911 9.5114-4.5897 18.761-11.17 25.646-6.5801 6.8854-15.567 11.382-24.998 12.713-9.4307 1.3306-19.248-0.4804-27.676-4.916-7.674-4.0387-14.202-10.228-18.641-17.678 2.7422 19.668 14.424 37.91 31.139 48.631 12.074 7.7438 26.571 11.591 40.904 11.057s28.447-5.4199 40.164-13.693c11.717-8.2735 21.015-19.888 26.713-33.051 5.6976-13.163 7.8018-27.833 6.2422-42.092-1.5595-14.258-6.759-28.079-14.814-39.947-8.0554-11.868-18.938-21.774-31.406-28.865-15.585-8.8639-33.534-13.13-51.48-12.963zm-578.4 59.242c-5.8699 0.064-11.724 0.9982-17.303 2.8301-11.313 3.7146-21.326 11.003-28.871 20.215-7.5453 9.2114-12.671 20.29-15.48 31.861-5.6192 23.142-2.0382 47.646 5.0117 70.392 21.242 68.539 75.228 126.12 142.26 151.73-27.102-26.839-41.889-65.652-39.516-103.72 1.5283-24.518 9.7228-48.077 14.223-72.227 2.2498-12.075 3.5802-24.4 2.6582-36.648-0.9221-12.248-4.1707-24.458-10.57-34.941-6.9931-11.456-17.747-20.616-30.256-25.482-7.0362-2.7373-14.607-4.0937-22.154-4.0117zm345.62 2.8262c-0.4347-0.01-0.8693 0-1.3027 0.021-3.468 0.1824-6.8462 1.3562-9.8243 3.1426-5.956 3.5727-10.19 9.4105-13.676 15.418-7.5456 13.005-12.373 27.64-13.555 42.629-1.1814 14.989 1.3293 30.315 7.6797 43.943 8.2702 17.749 23.101 32.35 40.976 40.342-16.799-30.387-18.168-68.812-3.5762-100.32 3.2759-7.0733 7.3418-13.931 8.7832-21.592 0.7207-3.8303 0.7516-7.8381-0.332-11.582-1.0835-3.7438-3.3382-7.2095-6.5723-9.3848-2.5213-1.6958-5.5587-2.5535-8.6015-2.6191zm-907.65 195.48c-23.754 17.294-41.385 42.83-49.135 71.172-7.7502 28.342-5.5684 59.295 6.0801 86.27 14.33 33.184 42.059 59.22 73.266 77.459 33.613 19.645 71.922 31.19 110.79 33.389-5.9429 24.407-4.8007 50.497 3.2539 74.291 8.9887 26.554 27.18 50.588 52.191 63.25 26.986 13.662 60.844 12.712 87.022-2.4434-12.502 0.3976-25.095-2.602-36.076-8.5918-10.981-5.9897-20.32-14.955-26.754-25.682-7.4743-12.461-10.955-27.097-11.1-41.627-0.1445-14.53 2.949-28.972 7.8906-42.637 13.673-37.81 41.225-69.432 73.307-93.666 19.717-14.894 41.3-27.314 64.084-36.879-38.413 16.179-79.437 26.142-120.99 29.385-50.872 3.9693-102.71-2.2264-150.61-19.816-21.565-7.9194-42.507-18.253-60.068-33.064-17.561-14.811-31.624-34.399-37.184-56.69-6.2785-25.171-1.0148-52.983 14.027-74.119zm263.17 26.172c-0.5397 0-1.0801 0.025-1.6192 0.08-3.7279 0.3815-7.2596 2.1318-10.01 4.6777-2.7502 2.5459-4.7379 5.8553-5.959 9.3984-2.4422 7.0862-1.8419 14.863-0.4004 22.219 3.5342 18.034 12.071 35.121 24.693 48.476 12.622 13.356 29.328 22.887 47.34 26.529 13.174 2.6639 26.971 2.191 39.932-1.3691-32.579-10.651-58.927-38.619-67.617-71.775-2.198-8.3861-3.3847-17.178-7.4199-24.852-2.0176-3.8366-4.7618-7.3498-8.3086-9.8418-3.1034-2.1806-6.8532-3.5341-10.631-3.543zm107.59 1.459c-1.0634-0.01-2.1276 0.028-3.1914 0.1074-8.5105 0.6377-16.948 4.3471-22.408 10.906-3.4996 4.2041-5.6828 9.4343-6.5332 14.838s-0.3979 10.974 0.9942 16.264c2.7843 10.58 9.1876 19.851 16.32 28.146 25.58 29.75 62.365 49.638 101.27 54.693 50.804 6.6013 104.31-12.885 138.96-50.615-56.278 15.393-119.81 1.0553-164.02-37.016-12.934-11.138-24.55-24.317-39.867-31.85-6.7011-3.2956-14.089-5.4219-21.533-5.4746zm-240.91 67.014c-1.7657-0.046-3.5331 0.1279-5.2461 0.5586-3.7261 0.937-7.1181 3.0857-9.6621 5.9649-2.5439 2.8793-4.2465 6.4707-5 10.238-1.507 7.535 0.8365 15.54 5.373 21.742 4.5366 6.2023 11.099 10.717 18.15 13.77 7.0518 3.0528 14.616 4.7306 22.182 6.0761 31.074 5.5266 63.096 5.6756 94.219 0.4356-33.285-1.7294-65.773-15.964-89.609-39.26-5.0528-4.9381-9.7776-10.305-15.627-14.268-2.9248-1.9813-6.1248-3.5948-9.541-4.4942-1.7081-0.4497-3.4726-0.7175-5.2383-0.7637zm1053.5 22.213c-2.4401-0.053-4.8923 0.1875-7.2675 0.7071-7.6006 1.6626-14.448 5.9758-20.004 11.422-11.113 10.892-17.105 25.8-24.787 39.332-25.79 45.429-74.175 77.265-126.1 82.973 44.81 22.177 100.81 19.966 143.73-5.6758 15.488-9.2525 29.334-21.375 39.978-35.941 10.644-14.567 18.032-31.6 20.686-49.445 1.0371-6.974 1.3473-14.157-0.248-21.025-1.5953-6.8678-5.2468-13.432-10.965-17.557-4.338-3.1294-9.6531-4.6713-15.022-4.7891zm72.127 14.006c-0.8508 0-1.7026 0.057-2.543 0.1777-3.3614 0.4845-6.5505 1.9078-9.3203 3.8731-5.54 3.9299-9.315 9.8458-12.582 15.801-10.174 18.544-16.792 39.028-19.389 60.02 18.597-9.2803 35.234-22.467 48.514-38.455 4.8602-5.8513 9.3987-12.354 10.725-19.844 0.663-3.7451 0.4764-7.6806-0.8574-11.242-1.3339-3.5618-3.8599-6.7217-7.2051-8.5313-2.2404-1.2119-4.7894-1.79-7.3418-1.7988zm-379.12 18.332c-5.7622 0.031-11.521 0.5897-17.18 1.6934-4.611 0.8993-9.1747 2.1513-13.443 4.1133-4.2685 1.962-8.2441 4.6551-11.361 8.1699-3.1172 3.5147-5.3467 7.8799-5.9785 12.535s0.4085 9.5864 3.1836 13.377c2.247 3.0691 5.5359 5.297 9.1133 6.5898 3.5773 1.2928 7.4364 1.6865 11.236 1.5157 7.5999-0.3416 14.902-2.8758 22.314-4.5899 32.335-7.4776 68.052 1.6066 92.885 23.625-6.5859-22.101-21.632-41.564-41.361-53.506-14.797-8.956-32.122-13.616-49.408-13.524zm-443.13 19.34c-9.3044-0.01-18.605 1.0882-27.641 3.3398-32.128 8.0057-60.358 30.468-75.377 59.977-15.775 30.994-16.559 69.323-1.5859 100.71 4.452 9.3333 10.207 18.045 17.045 25.803-7.5069 30.591-3.3754 63.89 11.381 91.719 14.756 27.828 40.003 49.931 69.537 60.881 18.306 6.7869 37.851 9.3489 57.144 12.338s38.802 6.5395 56.361 15.074c15.114 7.3459 28.45 18.321 38.566 31.738 9.2257-33.498 5.4256-70.406-10.432-101.32-15.857-30.916-43.617-55.535-76.205-67.586-18.332-6.7789-37.826-9.6479-57.076-13.025-19.251-3.3776-38.677-7.3943-56.123-16.205-7.2641-3.6686-14.12-8.1435-20.402-13.316 2.8308 13.997 9.1221 27.282 18.158 38.34 12.457 15.244 29.742 25.94 47.943 33.441 13.054 5.3802 26.727 9.2562 40.662 11.525-15.517-0.077-31.018-2.8385-45.607-8.125-17.987-6.5178-34.75-17.049-47.062-31.691-11.235-13.361-18.537-29.988-20.773-47.301-20.243-26.429-27.917-62.075-20.344-94.492 8.0944-34.649 33.548-64.778 66.357-78.549 32.809-13.77 72.14-10.832 102.54 7.6601-19.485-13.664-43.288-20.912-67.066-20.936zm-454.7 42.68c-1.0967-0.013-2.1925 0.082-3.2695 0.2968-2.872 0.5733-5.5979 2.043-7.4727 4.293-2.028 2.4339-2.9706 5.6828-2.8281 8.8477 0.1425 3.1648 1.3232 6.2358 3.1133 8.8496 3.5809 5.2271 9.3574 8.5023 15.166 11.033 12.797 5.5757 26.778 8.4126 40.736 8.2675-7.2908-11.274-15.901-21.691-25.602-30.973-4.2321-4.0494-8.8482-7.9851-14.44-9.7305-1.7472-0.5454-3.5764-0.8632-5.4043-0.8847zm1281 6.2695c-3.4494 0.013-6.9091 0.5615-10.234 1.498-10.641 2.9967-19.752 9.7327-29.022 15.756-38.273 24.868-83.306 39.218-128.91 41.078 49.62 23.094 109.06 24.044 159.39 2.5488 10.644-4.5453 21.272-10.369 27.963-19.812 3.3455-4.7217 5.5922-10.296 5.9454-16.072 0.3531-5.7761-1.2752-11.74-4.918-16.236-3.4795-4.2946-8.6354-7.0746-14.053-8.1718-2.0316-0.4115-4.0964-0.5955-6.1661-0.5879zm-260.57 40.75c17.855 15.981 30.358 37.84 35.082 61.332 3.7764 18.778 2.6739 38.22-0.021 57.184-2.6954 18.964-6.9604 37.681-9.5058 56.666-1.271 9.4788-2.1011 19.203-0.018 28.537 1.0417 4.667 2.8191 9.1959 5.4902 13.162 2.6712 3.9663 6.2569 7.3568 10.512 9.5391 5.3791 2.7589 11.694 3.4944 17.65 2.4609 5.9563-1.0334 11.552-3.777 16.297-7.5234 9.4888-7.4929 15.391-18.637 19.611-29.967 13.934-37.411 11.676-80.546-6.0879-116.3-17.764-35.751-50.778-63.603-89.01-75.094zm-8.6953 0.9316c18.61 40.29 21.443 87.62 7.7734 129.84-11.285 34.855-33.211 65.645-59.779 90.871-26.568 25.226-57.715 45.181-89.932 62.625-15.924 8.6221-32.237 16.704-49.49 22.201-17.253 5.4976-35.552 8.3589-53.549 6.3555-20.7-2.3044-40.619-11.166-56.19-24.998s-26.718-32.57-31.445-52.854c12.657 30.145 39.797 53.815 71.383 62.256 30.231 8.0787 63.913 2.1099 89.527-15.865-18.439-1.5633-36.143-10.543-48.299-24.496-14.796-16.984-20.77-39.664-30.533-59.963-13.444-27.951-34.676-52.001-60.332-69.43-25.656-17.428-55.648-28.265-86.438-32.006-15.641-1.9004-31.5-2.0025-47.164-0.3027 15.764 14.344 27.868 32.68 34.863 52.812 7.663 22.054 9.1638 45.68 11.512 68.908 2.348 23.229 5.7835 46.932 16.791 67.521 12.322 23.049 33.693 40.684 57.918 50.494 24.225 9.8105 51.133 12.089 77.055 8.7461 51.843-6.6864 98.28-34.738 141.17-64.613 36.71-25.568 72.843-53.692 97.494-91.023 24.031-36.392 35.959-81.254 29.98-124.45-3.0595-22.108-10.708-43.569-22.32-62.629zm-1001.1 1.7324c-2.9469 0-5.8913 0.4339-8.6582 1.4317-3.6891 1.3304-7.0502 3.7122-9.2324 6.9707-2.8847 4.3075-3.5083 9.9298-2.1309 14.928 1.3775 4.9979 4.6298 9.3691 8.709 12.568 4.0793 3.1994 8.9523 5.2809 13.975 6.5664 5.0224 1.2855 10.209 1.8015 15.385 2.1035 38.574 2.2514 77.765-7.5106 110.78-27.594-34.544 6.0349-70.706 2.5262-103.45-10.037-7.3227-2.8099-14.624-6.1001-22.436-6.8046-0.9764-0.088-1.9591-0.1341-2.9414-0.1329zm1328.3 15.953c-6.0729 0.014-12.136 1.7267-17.938 3.6855-18.777 6.3393-36.627 15.416-52.81 26.856 18.173 5.2186 37.028 8.0577 55.932 8.4219 8.5388 0.1645 17.452-0.2697 24.939-4.377 3.744-2.0536 7.0394-5.0307 9.1094-8.7656 2.0701-3.7349 2.8459-8.2487 1.7539-12.377-0.9636-3.6431-3.3358-6.8426-6.3652-9.084s-6.6859-3.5581-10.418-4.08c-1.3995-0.1958-2.8017-0.2824-4.2031-0.2793zm-1188.1 18.426c-19.768 13.78-36.844 31.405-49.994 51.598-6.1256 9.4058-11.433 19.421-14.812 30.125-3.3796 10.704-4.7887 22.14-3.1114 33.238 1.0298 6.8138 3.3515 13.679 8.1114 18.662 2.3799 2.4916 5.3478 4.455 8.6445 5.457s6.923 1.0102 10.152-0.1914c2.9243-1.088 5.4472-3.1303 7.334-5.6152 1.8868-2.4851 3.1579-5.4015 3.9551-8.418 1.5943-6.0331 1.3215-12.375 1.3125-18.615-0.054-37.083 9.8533-74.134 28.408-106.24zm949.37 6.746c19.521 19.759 35.686 42.826 47.598 67.918 9.1119 19.195 15.734 39.537 20.16 60.318 1.7168 8.0613 3.145 16.307 6.7793 23.705 1.8172 3.6988 4.1884 7.1583 7.2188 9.9511 3.0303 2.7929 6.7418 4.9023 10.771 5.7657 6.3431 1.359 13.17-0.5151 18.334-4.4415 5.164-3.9263 8.715-9.7553 10.478-15.998 1.7635-6.2428 1.8174-12.885 0.8203-19.295-0.997-6.41-3.0186-12.618-5.3535-18.67-19.853-51.464-64.133-92.88-116.81-109.25zm-981.7 2.5743c-28.245 8.8126-56.189 18.59-83.766 29.312-9.2762 3.6066-18.851 7.5522-25.529 14.932-3.3393 3.6896-5.8497 8.2146-6.7032 13.117-0.8533 4.9026 0.047 10.182 2.9043 14.256 2.6669 3.8028 6.9025 6.3747 11.428 7.4218 4.5252 1.0472 9.3147 0.6401 13.754-0.7265 8.8784-2.7333 16.142-9.0391 23.043-15.258 22.407-20.192 44.05-41.23 64.869-63.055zm1028.2 0.2519c30.941 32.507 67.996 59.175 108.64 78.193 8.7072 4.0738 17.883 7.8677 27.496 7.8691 4.8065 7e-4 9.6582-0.9837 13.906-3.2324 4.2482-2.2486 7.8609-5.8087 9.8125-10.201 2.0293-4.5669 2.1813-9.8589 0.836-14.672-1.3453-4.8131-4.1217-9.157-7.6153-12.73-6.987-7.147-16.521-11.133-25.871-14.664-40.904-15.448-83.752-25.743-127.21-30.562zm-995.46 60.02c-3.81 16.954-4.4236 34.618-1.7988 51.795 0.897 5.8704 2.2411 11.857 5.6152 16.744 1.6871 2.4435 3.8752 4.5687 6.4863 5.9824 2.6111 1.4138 5.6561 2.0882 8.5977 1.6836 3.6422-0.5009 6.9605-2.6494 9.1933-5.5703 2.233-2.9208 3.424-6.5609 3.7071-10.226 0.5661-7.3313-2.3318-14.463-5.5742-21.062-6.9705-14.187-15.814-27.453-26.227-39.346zm1086.1 34.037c0.5073 24.035 9.6683 47.796 25.428 65.951 4.3201 4.9768 9.3046 9.663 15.486 11.947 3.0908 1.1421 6.4459 1.6467 9.7129 1.2168 3.2669-0.4299 6.4367-1.8236 8.7988-4.1211 2.1277-2.0694 3.5474-4.8151 4.207-7.709s0.5782-5.9311-0.031-8.8359c-1.2189-5.8097-4.469-10.98-7.9942-15.756-14.061-19.051-33.571-34.03-55.607-42.693zm-94.975 49.236c-14.724 17.821-22.485 41.248-21.31 64.336 0.2799 5.5029 1.0831 11.102 3.5996 16.004 1.2582 2.4509 2.943 4.7007 5.0508 6.4746 2.1078 1.7741 4.6486 3.0612 7.3593 3.5528 3.496 0.6339 7.1766-0.086 10.311-1.7598 3.1339-1.674 5.7331-4.2651 7.6543-7.2539 3.8424-5.9776 4.9501-13.303 5.2109-20.404 0.7909-21.528-5.582-43.258-17.875-60.949z"/>
		</g>
	</defs>
	<g transform="translate(0 0)" fill-opacity=".3" fill="#fff">
		<use transform="rotate(-90 -39.25 -13.75)" href="#motif"/>
		<use transform="translate(46.3 -87.2)" href="#motif"/>
		<use transform="translate(229.5 -87.2)" href="#motif"/>
		<use transform="rotate(90 -44.35 123.05)" href="#motif"/>
		<use transform="rotate(180 3.4 100.75)" href="#motif"/>
		<use transform="rotate(90 47.25 214.55)" href="#motif"/>
		<use transform="rotate(-90 52.05 77.50)" href="#motif"/>
		<use transform="translate(46.3 95.2)" href="#motif"/>
		<use transform="translate(229.5 95.2)" href="#motif"/>
	</g>
</svg>
