<svg version="1.1" height="152" viewBox="0 0 286 460" xmlns="http://www.w3.org/2000/svg">
    <style>
        .nain {
            --silhouette: #000;
            --peau: #f8d5be;
            --peau2: #f89290;
            --barbe: #fcfbfb;
            --yeux: #fcfbfb;
            --dorure: #e9bc2b;
        }

        #atchoum {
            --chapeau: #fd8c45;
            --manteau: #9f5526;
            --pantalon: #7e2e02;
            --chaussures: #d59d78;
        }

        #silhouette,
        .silhouette {
            fill: var(--silhouette);
        }

        #chapeau {
            fill: var(--chapeau);
        }

        #barbe {
            fill: var(--barbe);
        }

        .peau,
        .main {
            fill: var(--peau);
        }

        .oeil {
            fill: var(--yeux);
        }

        #manteau .tissu {
            fill: var(--manteau);
        }

        #pantalon {
            fill: var(--pantalon);
        }

        #chaussures {
            fill: var(--chaussures);
        }

        #nez {
            fill: var(--peau2);
        }

        .paupiere {
            fill: var(--peau2);
        }

        .dorure,
        .bouton,
        .boucle {
            fill: var(--dorure);
        }
    </style>
    <g id="atchoum" class="nain">
        <path id="silhouette" d="m125.91 1.25c-8.6401-0.17566-15.49 5.6851-22.496 14.189-0.88 1.07-2.6102 2.2202-3.9102 2.6602-23.89 7.97-44.53 24.27-56.93 46.27-9.31 16.53-9.7497 39.792-5.4297 57.602 1.24 5.14 3.4295 10.31 2.2695 15.75-0.88 4.12-0.61992 7.5886-0.66992 11.559-0.01277 0.69296-0.29167 1.3524-0.7793 1.8398-8.9533 8.94-17.694 18.014-26.221 27.221-7.06 7.62-13.321 19.51-10.121 29.82 2.68 8.66 9.6809 10.05 18.131 11.32 0.36475 0.0514 0.61089 0.39458 0.53906 0.75-2.96 15.09 0.74079 27.6 11.051 39.23 1.76 1.98 2.6499 4.6354 2.6699 7.9688 0.0067 0.31333-0.07977 0.59628-0.25977 0.84961-0.56 0.8-0.99721 1.2783-1.3105 1.4316-9.81 4.78-13.06 17.29-7.8301 26.52 0.99 1.74 2.2913 2.9 4.0312 3.75 0.72495 0.35437 0.89293 1.3098 0.33008 1.8789-2.41 2.46-6.6511 5.3003-5.8711 9.3203 1.85 9.5 7.4103 13.411 12.32 20.791 0.84667 1.28 1.4064 2.7769 1.6797 4.4902 1.6933 10.587 5.0379 20.329 10.031 29.229 0.51815 0.93344 0.64046 2.0361 0.33984 3.0606-1.5667 5.24-2.3105 10.591-2.2305 16.051 0.01875 0.91146-0.53718 1.7368-1.3906 2.0684-8.9 3.49-5.0788 13.631-3.2988 20.131 0.07977 0.31563-0.01585 0.64752-0.25 0.86914-5.94 5.75-16.601 13.471-13.111 22.691 4.21 11.15 13.771 11.429 25.811 12.109 4.3533 0.24 8.6991 0.52294 13.039 0.84961 1.32 0.1 2.5545 0.52792 3.7012 1.2812 10.49 6.87 22.75 12.92 35.07 13.83 13.18 0.98 26.079-2.75 38.439-7 5.03-1.74 11.22-0.9611 16.41-1.6211 8.04-1.04 15.181-0.17056 21.801-5.5606 3.17-2.58 4.4996-4.5787 8.5996-5.1387 3.98-0.54 7.9626-0.81678 11.949-0.83008l3.9707-0.12109c5.5333 0.17332 11.052 0.28031 16.559 0.32031 13.13 0.09 15.38-4.1605 21.82-13.98 5.17-7.87 2.5106-16.418-5.1094-21.488-7.76-5.17-17.151-6.4702-26.051-8.7402-4.21-1.07-7.8688-2.8103-11.719-4.5703-0.30328-0.14079-0.49297-0.45318-0.48047-0.79101 0.26-7.42-1.91-14.879-9-17.619-1.1276-0.44231-1.8442-1.5544-1.7793-2.7598 0.19-3.88-1.4401-10.201 0.16992-13.311 2.28-4.3733 4.5188-8.683 6.7188-12.93 0.32578-0.64304 1.2445-0.64304 1.5703 0l5.7695 11.209c0.21919 0.42308 0.75936 0.55685 1.1406 0.28125 6.73-4.74 13.141-17.1 16.211-24.6 5.74-14.04 0.42952-27.811-8.2305-40.531-0.1911-0.2798-0.25302-0.62518-0.16992-0.94922 0.62-2.42 1.7391-4.6304 2.0391-6.9004 0.62667-4.7267 0.90961-9.4736 0.84961-14.24-0.18-14.12-5.0484-26.58-12.398-38.35-2.83-4.52-3.36-10.04-6.25-14.92-0.0933-0.16-0.14062-0.32976-0.14062-0.50976v-0.50977c-4e-3 -0.321 0.35957-0.5099 0.61914-0.32031l10.92 7.9394c1.0867 0.79333 1.9878 0.61738 2.7012-0.52929 3.0667-4.9467 5.65-10.134 7.75-15.561 0.99333-2.5467 3.0674-4.916 6.2207-7.1094 0.26667-0.18669 0.562-0.2607 0.88867-0.2207 22.38 2.73 42.931-2.61 52.451-24.75 5.68-13.22 6.8594-24.17 4.9394-38.42-0.62-4.62-0.93031-8.0297-4.3203-10.43-3.2867-2.3267-5.1704-4.1065-5.6504-5.3398-5.5933-14.427-15.139-25.024-28.639-31.791-8.95-4.48-25.052-3.1098-33.852 1.4102-0.76017 0.37774-1.5053-0.5374-0.96875-1.1895 7.62-9.39 10.619-26.039-0.46094-34.439-7-5.3-17.82-4.021-25.6-0.54102-0.83685 0.37396-1.8179 0.0035-2.1992-0.83008-5.12-11.17-13.66-19.24-23.48-26.42-6.02-4.4-11.65-13.499-19.84-18.379-4.85-2.8937-9.1469-4.2209-13.074-4.3008zm-2.6367 370.45c0.34-0.12667 0.67333-0.11232 1 0.041l8.3906 4.0391c1.0011 0.48282 1.4519 1.6634 1.0293 2.6914-2.66 6.43-7.8185 8.0588-6.7285 16.299 0.42 3.19-1.4009 4.2107-3.1309 6.4707-1.16 1.51-2.8595 2.3607-4.2695 0.72071-0.22229-0.26509-0.25437-0.64257-0.0801-0.94141 1.72-2.91 3.0794-5.9801 1.9394-9.3301-2.33-6.84-8.6602-8.2197-14.74-5.1797-0.50648 0.26916-0.99473-0.38054-0.60938-0.81055 2.74-3.02 5.0671-6.232 6.9805-9.6387 0.44-0.78667 1.2497-1.3433 2.4297-1.6699 2.7-0.74999 5.1891-1.6914 7.7891-2.6914z" />
        <g id="chapeau">
            <path d="m85.57 118.82q2.82-6.11-1.01-0.58c-7.19 10.34-8.92 22.02-10.41 34.32q-0.09 0.8-0.65 0.22-8.36-8.73-14.17-19.34a0.44 0.44 0 0 0-0.81 0.33q3.6 13.26 14.98 21.7 1.56 1.16 2.89 4.4 0.18 0.45-0.1 0.85-5.56 7.64-10.29 15.8c-5.55 9.57-15.89 14.41-24.86 20.09q-11.99 7.6-19.95 19.32a1.11 1.07-75.7 0 1-0.76 0.47q-6.34 0.81-10.94-1.95c-8.65-5.2-5.28-19.11-1.51-26.37q2.25-4.33 9.44-12.02 9.95-10.64 20.29-20.89a0.76 0.76 0 0 1 1.29 0.61q-0.12 1.16 0.69 1.96 0.43 0.43 0.49-0.17l1.89-17.49a0.67 0.67 0 0 1 1.31-0.1l6.87 25.26q0.08 0.28 0.37 0.27 0.15 0 0.28-0.06 0.42-0.19 0.34-0.65-3.25-20-9.44-39.32c-5.42-16.91-6.68-35.79 0.44-52.61 10.44-24.69 30.56-43.11 56.27-51.43a0.37 0.36 4.2 0 1 0.44 0.51c-8.83 17.63-9.16 43.74-5.13 61.32q1.34 5.86 0.87-0.13c-1.28-16.66-1.83-34.02 3.13-49.96 3.15-10.12 10.85-23.86 21.16-27.71 11.24-4.19 23.22 4.09 30.53 12.43q0.83 0.94-0.4 0.68l-13.32-2.84a0.52 0.52 0 0 1-0.03-1.01l2.39-0.65a0.56 0.56 0 0 0-0.06-1.09c-17.84-2.73-28.34 14.23-29.14 29.7q-0.82 15.9-1.42 31.81c-0.69 18.15-2.07 33.17-10 49.13-4.85 9.74-10.86 19.43-13.2 30.33-0.59 2.79-1.61 3.39-4.08 4.3a1.48 1.47-12.8 0 1-1.98-1.24c-1.26-13.02 1.76-26.25 7.3-38.2z" />
        </g>
        <g id="barbe">
            <path d="m92.6 156.46q-2.19 7.88-0.48 15.89c0.43 2.01 0.31 3.85 0.61 5.84a0.38 0.38 0 0 1-0.69 0.26c-3.54-5.58-5.68-10.66-4.95-17.5 2.22-20.71 16.11-35.12 20.7-56.84 2.09-9.93 2.46-20.28 3.28-30.33a0.31 0.3-55.4 0 1 0.58-0.11q6.47 13.43 6.12 28.4-0.01 0.44 0.43 0.55l1.12 0.27a0.65 0.65 0 0 1 0.46 0.86l-2 5.32q-0.16 0.43 0.31 0.43h0.27q0.18 0 0.29-0.15l1.37-1.95a0.33 0.33 0 0 1 0.57 0.32c-3.87 8.44-9 17.52-8.76 27.02 0.09 3.73-0.32 7.81 1.05 11.21 5.63 13.89 22.12 23.42 36.24 14.21 5.22-3.4 8.09-8.15 11.37-14.07a1.19 1.14-82.7 0 1 0.71-0.57c7.99-2.14 11.89 6.19 19.24 4.26q7.92-2.08 9.33-10.64c0.16-0.96 0.84-2.1 1.63-2.64q7.93-5.35 10.11-14.67c0.28-1.18 0.94-2.45 2.14-2.54a0.79 0.79 0 0 1 0.86 0.81c-0.1 4.13-0.31 7.41 1.66 11.19q3.5 6.71 4.57 12.98c1.82 10.58 11.51 11.24 18.16 4.68q0.81-0.81 1.11 0.29 2.93 10.66 0.18 21.45a0.63 0.63 0 0 1-1.2 0.08q-2.66-6.57-7.12-12.07a0.36 0.35 44.6 0 0-0.55 0q-0.28 0.34-0.02 0.63 0.32 0.35 0.35 0.41 10.85 17.67 1.09 36.02c-0.27 0.51-0.99 1.14-1.42 1.47a0.53 0.53 0 0 1-0.85-0.41q-0.13-11.95-4.57-23.01-0.13-0.32-0.47-0.27-0.5 0.07-0.38 0.54c4.14 16.02 4.03 29.3-4.53 43.75a0.96 0.96 0 0 1-1.49 0.2q-13.17-12.53-31.19-15.3-1.97-0.3-3.67 0.15a0.32 0.32 0 0 0 0 0.61l15.54 4.32a0.47 0.47 0 0 1 0.06 0.89q-1.15 0.48-2.6 0.61c-14.68 1.31-33.76 2.08-47.12-2.36-14.49-4.81-23.37-15.11-32.08-27.16a0.26 0.26 0 0 0-0.45 0.23c2.49 7.48 8.38 13.85 13.76 19.44q1.04 1.08 1.4 1.81 0.59 1.23-0.69 0.77-7.2-2.6-13.31-6.85c-15.07-10.48-12.98-22.79-15.65-38.71q-0.16-0.98-0.43-0.02z" />
        </g>
        <g id="visage">
            <path class="peau" d="m184.36 126.44a0.58 0.57 13.4 0 0-0.97 0.59q2.69 6.19 3.19 12.71c0.14 1.84-0.72 2.85-2 4.28-3.84 4.31-7.87 3.42-12.52 0.78q-4.38-2.48-9.52-2.42-0.55 0.01-0.46-0.53l2.67-16.62q0.07-0.41 0.38-0.67c2.92-2.42 10.27 3.85 12.67 5.89a0.7 0.7 0 0 0 1.1-0.82l-0.9-2.03q-0.18-0.42 0.13-0.76l2.45-2.71a0.72 0.72 0 0 0-0.97-1.06l-3.22 2.47a0.7 0.69 50.1 0 1-0.93-0.09q-2.14-2.35-5.05-3.32c-1.48-0.5-4.36 0.03-5.44-2.06q-1.15-2.23-0.45-5.3 0.13-0.58 0.63-0.25c7.4 4.92 12.93 7.5 21.35 6.67q6.02-0.59 11.72-1.51a0.55 0.55 0 0 1 0.63 0.62q-1.3 9.35-9.44 14.02a0.72 0.72 0 0 1-1.05-0.42q-1.22-4.15-4-7.46zm-61.44-33.17a0.63151 0.63151 0 0 0-1.24-0.24l-1.76 7.42q-0.02 0.1-0.12 0.07-0.12-0.04-0.24-0.08-0.04-0.02-0.04-0.12 0.8-15.61-6.71-29.02-1.23-2.2-1.44-4.38c-1.66-17.43-1.22-36.57 13.23-48.36a1.18 1.17 26.8 0 1 0.83-0.27c9.1 0.51 17.83 0.62 25.43 4.36a0.74 0.74 0 0 1 0.41 0.75l-0.31 2.87a0.82 0.82 0 0 0 1.55 0.46l1.03-2.05q0.3-0.59 0.88-0.26l2.27 1.32q0.78 0.45-0.02 0.86-2.92 1.51-2.05 4.87a0.48 0.48 0 0 0 0.92 0.01c2.44-8.89 19.53 11.54 21.14 13.83 1.49 2.13 5.18 7.71 2.74 9.89q-0.42 0.37-0.69-0.12-3.66-6.63-7.57-11.25c-1.18-1.39-6.05-2.84-7.17-0.85-3.46 6.16 1.62 15.77 5.54 20.52a1.56 1.56 0 0 1-0.21 2.19c-1.7 1.43-2.39 2.96-2.92 5.31-1.31 5.73-5.08 11.22-5.38 17.44-0.07 1.62 0.53 3.41 0.66 5.14 0.18 2.36-1.67 4.5-1.54 6.17 1.65 20.41 5.57 40.64-10.58 57.07-5.74 5.84-15.78 5.36-22.27 1.42-12.95-7.85-16.9-21.75-11.04-35.62 2.97-7.05 6.13-13.89 8.32-21.25a0.39 0.39 0 0 0-0.65-0.39l-1.7 1.67a0.41 0.41 0 0 1-0.69-0.36zm9.69-68.32c-15.23-6.87-15.01 16.02-12.65 23.51q0.93 2.93 0.88-0.14c-0.07-4.68-0.39-15.29 2.38-19.41 1.89-2.82 5.94-3.34 9.05-3.17q0.11 0.01 0.18-0.07l0.25-0.24a0.3 0.3 0 0 0-0.09-0.48zm6.82 7.35c-11.63-4.4-10.68 14.73-8.53 20.42q0.4 1.06 0.48-0.07 0.41-5.98 0.89-11.98c0.36-4.5 1.9-7.71 6.88-7.21a0.6 0.6 0 0 0 0.28-1.16zm7.34 40.21c4.31-0.9 7.75-0.38 11.66 1.35a1.5 1.5 0 0 0 2.1-1.2q1.92-16.21-9.77-26.39c-2.27-1.97-9.04-3.65-9.19 1.74-0.21 7.39 1.37 12.55 5.08 20.48 0.55 1.18 0.45 2.32-0.33 3.28a0.46 0.46 0 0 0 0.45 0.74zm7.8 11.93c-2.53 2.39-6.57 0.7-9.68 0.57q-0.53-0.02-0.18 0.38c6.75 7.68 15.08-2.61 17.43-8.36a0.26 0.26 0 0 0-0.44-0.27q-3.35 4.13-7.13 7.68z" />
            <path class="paupiere gauche" d="m165.75 49.47a0.12 0.12 0 0 1-0.16 0.06l-0.05-0.02a2.7 2.4-67.6 0 1-1.19-3.41l0.08-0.18a2.7 2.4-67.6 0 1 3.24-1.59l0.06 0.03a0.12 0.12 0 0 1 0.06 0.15z" />
            <path class="oeil gauche" d="m166.03 53.18a1.26 1.26 0 0 1 0.48-1.71l0.12-0.07a6.62 6.57-29.3 0 1 8.99 2.49l0.01 0.02a6.62 6.57-29.3 0 1-2.56 8.97l-0.12 0.06a1.26 1.26 0 0 1-1.71-0.48z" />
            <path class="paupiere droite" d="m143.59 54.12c-0.17-2.17-1.31-9.25 3.39-7.21q0.3 0.13 0.16 0.42l-3.07 6.87a0.25 0.25 0 0 1-0.48-0.08z" />
            <path class="oeil droite" d="m150.18 55.01c1.46 0.59 2.47 0.62 3.64-0.32a1.1 1.09-33.9 0 1 1.66 0.32q3.79 6.91 3.74 14.96a1.75 1.74-82.7 0 1-2.17 1.68q-10.74-2.66-11.55-13.7c-0.25-3.43 1.91-4.07 4.68-2.94z" />
            <path id="nez" d="m183.71 71.32q-8.4-1.28-15.67 3.02a0.33 0.33 0 0 1-0.49-0.31q0.36-4.77 4.1-7.87 6.94-5.75 13.94-11.39c6.53-5.26 12.68-5.98 20.19-2.03 19 10 5.74 39.37-11.08 42.43-7.11 1.3-13.47-3.44-20.55-3.31q-3.74 0.07-7.43 0.82a1.45 1.43-40.2 0 1-0.78-0.06c-3.25-1.16-2.95-6.42-1.85-8.94 3.93-9.01 11.78-9.04 19.68-11.69q1.38-0.46-0.06-0.67z" />
        </g>
        <g id="mains">
            <path class="main droite" d="m54.5 305.74v1.3q0 0.7-0.69 0.75c-7.35 0.59-10.55-4.82-13.01-10.69a0.46 0.47 59.7 0 0-0.71-0.18c-1.3 1.02-2.1 1.68-3.8 1.79-7.3 0.52-11.51-4.14-11.33-11.18 0.2-7.6 4.02-14.57 11.75-16.57 3.92-1.01 8.85 3.54 7.09 7.76q-2.83 6.78-4.12 14-0.39 2.13 1.16 2.15a0.88 0.89 5.1 0 0 0.87-0.73c1.08-6.15 4.02-14.59 9.3-18.33 4.08-2.91 8.35-1.77 10.1 3.07a1.17 1.19 56.9 0 1-0.27 1.24c-5.95 6.09-7.47 11.3-7.06 19.77q0.02 0.46-0.15 1.18-0.38 1.57 1.29 1.28a0.99 0.98 84.4 0 0 0.82-1.01q-0.21-5.87 0.92-11.4c0.75-3.68 5.8-9.98 10.04-7.19 4.81 3.17 3.46 15.26 2.05 19.74a0.77326 0.77326 0 0 0 1.46 0.51l2.73-7.23a0.62 0.62 0 0 1 1.12-0.08q1.77 3.17 1.41 6.81a0.38 0.38 0 0 0 0.73 0.19q2.54-5.92-1.65-10.73c-3.89-4.48-1.13-11.74-9.74-12.44a0.86 0.87 80.2 0 1-0.72-0.5l-1.99-4.33q-0.25-0.55 0.31-0.77c13.42-5.24 23.2-10.21 32.3-21.28a0.67 0.67 0 0 1 1.17 0.25c4.73 17.56-0.14 42.91-14.2 55.37-7.38 6.53-18.4 6.49-24.63-1.57q-0.69-0.89-1.99-1.35-0.56-0.2-0.56 0.4z" />
            <path class="main gauche" d="m223.63 140.21c3.15 1 5.05 2.4 4.28 5.85-0.97 4.31-7.96 4.85-11.17 3.69-3.76-1.35-4.49-8.34-4.65-11.79q-0.02-0.51 0.49-0.42 5.67 0.97 11.05 2.67zm24.22 0.21 5.51-1.85a1.06 1.06 0 0 1 1.35 1.33c-6.63 20.91-35.11 3.27-26.5-12.68 3.03-5.62 6.37-9.97 6.3-16.66a0.34 0.33 59.1 0 0-0.63-0.16c-4.26 7.9-9.9 17.54-10.16 26.61q-0.01 0.51-0.52 0.44c-6.99-1.04-15.57-4.29-15.85-12.62q-0.55-16.47 12.15-27.14a0.53 0.53 0 0 0-0.6-0.87c-6.36 3.6-10.18 10.09-12.9 16.72-0.34 0.82-1.25 1.75-2 1.96-14.31 3.96-32.13 7.01-39.96-9.54-2.87-6.06 2.58-10.5 7.74-11.47 9.43-1.76 20.53 9.39 29.08 6.44a0.52 0.52 0 0 0-0.08-1.01l-6.43-1.08a0.55 0.55 0 0 1-0.12-1.05q9.54-3.95 19.22-7.97 8.16-3.4 13.05-3.96c16.99-1.95 35.5 10.1 42.21 25.79 4.34 10.14 7.71 21.64-0.63 31.09-4.21 4.77-11.37 9.59-18.09 9.23q-0.83-0.05-0.1-0.45c6.8-3.81 6.07-10.93 8.8-17.63q1.89-4.66 2.6-10.12 0.1-0.77-0.18-1.29a0.33 0.33 0 0 0-0.61 0.07q-1.57 5.89-5.31 10.56c-1.95 2.43-5.24 4.26-7.77 6.59a0.43 0.43 0 0 0 0.43 0.72z" />
        </g>
        <g id="manteau">
            <path class="tissu" d="m278.53 152.41a0.46 0.46 0 0 0 0.89-0.07l2.15-10.81a0.38 0.38 0 0 1 0.75 0.04q1.57 18.13-6.46 32.62c-10 18.06-27.99 21.83-47.21 19.19q-0.43-0.06-0.4-0.49 0.95-11.88 2.24-15.13 2.62-6.6 4.47-13.24a0.75 0.75 0 0 1 1.01-0.5q7.21 2.91 14.86 0.98a0.42 0.41 43.7 0 0-0.02-0.81q-6.18-1.28-12.56-2.7c-3.81-0.84-4.51-7.75-4.8-11.21a0.48 0.48 0 0 1 0.75-0.44c15.85 10.81 34.82 3.71 40.37-14.31 1.02-3.31 0.97-6.97 0.94-10.49a0.99 0.99 0 0 1 1.79-0.59c7.21 9.92-2.22 18.26 1.23 27.96zm-152.67 199.31c11.19-3.86 19.31-14.46 27.65-23.19q1.31-1.37 3.73-0.27 0.47 0.21 0.52 0.72 0.2 1.8 1.35 3.19 0.38 0.45 0.15 1c-5.68 13.29-10.07 28.14-17.23 40.59a2.64 2.64 0 0 1-3.51 1.03q-7.51-3.93-15.35-7.77c-19.27-9.46-40.55-13.33-60.26-21.68-13.93-5.9-23.3-12.4-32.11-23.89-4.93-6.42-7.43-12.42 0.66-18.02q3.61-2.49 6.99-2.22a1.31 1.29 73.6 0 1 0.92 0.51c3.71 4.93 6.03 9.04 13.14 8.86 5.78-0.15 8.1 4.52 13.31 5.07 12.25 1.28 18.05-4.95 24.97-13.62a0.93 0.92 40 0 1 1.33-0.11q23.91 21.18 55.65 25.72a1.24 1.23 21.8 0 1 0.84 1.94q-9.33 13.1-23.21 21.15-4.91 2.85 0.46 0.99zm77.8-17.99q5.14 8.16 1.3-0.69-3.59-8.23-10.24-14.18-0.51-0.46 0.04-0.87c8.59-6.41 13.48-14.55 17.39-24.3a0.7 0.69 38.2 0 1 1.21-0.14q9.35 13.05 8.07 28.7c-0.8 9.8-9.36 21.22-15.63 28.4a0.37 0.37 0 0 1-0.63-0.11q-5.48-14.42-16.59-25.17-0.51-0.49-0.11-1.07l3.02-4.37a0.67 0.66 39.3 0 1 1.01-0.09q6.39 6.31 11.16 13.89zm-40.83-20.71-1.31 2.91c-0.18 0.40667-0.49333 0.60667-0.94 0.6-8.63-0.12-18.05 0.6-26-0.91-13.92-2.6467-26.6-8.29-38.04-16.93-1.5333-1.1533-1.9167-2.6567-1.15-4.51 1-2.42 2.4467-8.6467 4.34-18.68 1.24-6.5533 1.1067-13.497-0.4-20.83-1.56-7.61-2.11-15.09-4.76-22.45-0.19504-0.53562 0.11688-1.1222 0.67-1.26 8.1-2.0933 15.263-5.9133 21.49-11.46 0.40136-0.32057-0.032-0.93827-0.47-0.67-5.25 2.9-9.47 6.29-15.43 7.96-1.0133 0.28-1.2867-0.05-0.82-0.99 1.45-2.94 5.27-11.62 4.73-15.04-0.10978-0.69768-1.0848-0.77268-1.3-0.1-1.59 5.15-5.19 14.62-9.48 17.65-0.32667 0.22667-0.59 0.17-0.79-0.17-5.54-9.46-10.63-17.11-19.35-22.3-0.49749-0.28029-0.99916 0.36593-0.59 0.76 8.44 8.13 24.03 28.39 20.98 40.84-0.68667 2.8067-2.4867 5.6867-5.4 8.64-12.55 12.72-33.23 19.37-50.14 12.02-1.7-0.73333-2.57-2.2-2.61-4.4 0-0.32 0.15-0.43333 0.45-0.34 1.0333 0.3 1.99 0.69667 2.87 1.19 0.74667 0.41333 1.1733 0.30333 1.28-0.33 0.05998-0.31858-0.08334-0.64104-0.36-0.81-14.85-9.12-22.21-28.82-16.39-45.24 2.1-5.93 7.57-10.68 13.48-14.99 12.77-9.32 26.44-17.76 38-28.53 0.45265-0.42231-0.07103-1.1467-0.6-0.83l-5.73 3.21c-0.48667 0.27333-0.59 0.16667-0.31-0.32 3.7067-6.48 8.35-12.207 13.93-17.18 0.29536-0.26942 0.77013-0.0598 0.77 0.34 0.04667 7.7 2.3933 14.117 7.04 19.25 3.82 4.24 5.63 7.8 8.82 11.49 7.49 8.65 16.47 12.1 27.4 14.05 1.9067 0.34 3.8533 0.97 5.84 1.89 7.18 3.32 14.767 5.1133 22.76 5.38 12.4 0.41333 24.777 0.0767 37.13-1.01 0.36667-0.0333 0.63 0.11333 0.79 0.44l4.7 9.28c0.37672 0.75399-0.44694 1.5424-1.17 1.12l-3.65-2.08c-0.57173-0.30645-1.1281 0.43543-0.66 0.88 12.533 11.94 19.52 26.187 20.96 42.74 0.89 10.27-0.56 19.88-6.28 28.72-3.7133 5.74-7.8433 10.393-12.39 13.96-1.88 1.47-6.37 1.32-8.25 1.63-9.19 1.53-17.54 2.22-22.92 4.67-0.34 0.15333-0.58667 0.4-0.74 0.74zm-11.55-85.24c-12.01 5.13-21.46 15.14-26.24 26.56-0.0133 0.04-0.0633 0.11667-0.15 0.23-0.0867 0.12-0.0733 0.24667 0.04 0.38 0.18578 0.23747 0.5557 0.19994 0.69-0.07 5.8733-11.72 14.67-20.537 26.39-26.45 0.34-0.17333 0.36-0.37667 0.06-0.61-0.20667-0.16-0.47-0.17333-0.79-0.04z" />
            <g class="bouton haut">
                <path class="silhouette" d="m180.73 222.68c6.65-1.16 20.9 23.25 7.34 23.66-9.71 0.28-22.63-20.97-7.34-23.66z" />
                <path class="bouton" d="m177.96 225.77c7.51-4.78 13.14 9.8 14.32 14.63q0.1 0.45-0.18 0.81c-7.63 9.66-20.95-11.1-14.14-15.44z" />
            </g>
            <g class="bouton bas">
                <path class="silhouette" d="m182.36 292.91c-6.63-5.01-1.24-16.17 2.34-21.24 2.83-4.03 11.46-8.88 13.46-0.66q1.88 7.78-1.57 14.97c-2.53 5.26-8.61 11.17-14.23 6.93z" />
                <path class="bouton" transform="rotate(111 -1.6752 205.28)" d="m11.77 0a11.77 6.4 0 0 1-11.77 6.4 11.77 6.4 0 0 1-11.77-6.4 11.77 6.4 0 0 1 11.77-6.4 11.77 6.4 0 0 1 11.77 6.4z" />
            </g>
            <path class="boucle" d="m165.9 314.08a0.48 0.49 8.4 0 1 0.36-0.27q11.91-1.44 23.51-4.47a0.87 0.87 0 0 1 1.08 0.97c-0.75 5.12-2.54 13.37-8.12 15.15q-10.54 3.35-21.6 3.92-0.54 0.03-0.41-0.5 1.87-7.65 5.18-14.8zm3.12 4.5-2 5.38q-0.52 1.38 0.96 1.34c5.7-0.16 18.13-1 17.47-9.46q-0.04-0.54-0.57-0.46l-14.46 2.08a1.77 1.77 0 0 0-1.4 1.12z" />
        </g>
        <g id="pantalon">
            <path d="m175.17 372.69c-16.76 6.17-19.29 19.47-29.17 33.19a1.18 1.18 0 0 1-1.98-0.1c-3.31-5.75-8.64-20.1-5.9-26.68q0.19-0.45 0.67-0.57c4.93-1.29 8.48-9.15 10.89-13.13a3.09 3.07-77.1 0 1 2.33-1.47l8.6-0.88a0.46015 0.45015 44 0 0-0.02-0.91l-7.54-0.57a1.19 1.18-58.7 0 1-0.53-2.19q13.4-8.23 23.13-20.7a0.31121 0.31121 0 0 0-0.45-0.43c-6.25 5.3-12.7 11.48-20.01 15.19a0.55 0.54-3.5 0 1-0.76-0.67q3.35-9.4 7.14-17.73c1.23-2.69 4.02-3 6.84-3.45q9.22-1.46 18.09-4.4 0.54-0.18 0.9 0.27l8.12 10.15q0.36 0.45 0.11 0.98-4.86 10.27-9.98 20.31-0.44 0.88-0.26 1.4 0.18 0.53 0.86 0.68a0.87 0.86-1.7 0 1 0.65 0.61q1.11 3.88 0.59 7.84a0.91 0.91 0 0 1-0.7 0.77c-3.88 0.92-8.24 1.24-11.62 2.49zm1.64-10.26-8.61-3.46a0.18 0.18 0 0 0-0.23 0.1l-0.01 0.01a4.65 2.2 21.9 0 0 3.49 3.78l0.32 0.13a4.65 2.2 21.9 0 0 5.14-0.31v-0.02a0.18 0.18 0 0 0-0.1-0.23z" />
            <path d="m58.5 381.99c-8.56-14.88-15.75-27.51-17.9-45.05q-0.1-0.75 0.51-0.31c18.96 13.62 40.1 18.72 61.47 25.24q5.4 1.64 10.04 4.01a0.98 0.98 0 0 1 0.49 1.14c-3.12 10.55-7.31 16.22-15.86 24.37-9.87 9.41-18.23 19.66-32.19 23.15a2.69 2.69 0 0 1-2.4-0.58c-3.03-2.62-4.89-5.99-7.27-10.05q-8.17-13.94-6.08-30.31a0.87 0.87 0 0 1 1.51-0.47q3.48 3.88 6.6 8.43 0.33 0.48 0.8 0.72 0.64 0.34 0.28-0.29zm30.37-3.11-4.37-6.11q-0.24-0.34-0.35-0.73-0.61-2.16-1.54-3.98a0.36 0.36 0 0 0-0.68 0.21q0.81 6.95 6.3 11.23a0.45 0.45 0 0 0 0.64-0.62z" />
            <path d="m121.56 369.44q0.48 0 0.45 0.49a0.61 0.61 0 0 1-0.33 0.51q-3.68 1.95-7.82 2.12-0.74 0.04-0.44-0.64l1.95-4.42a0.86 0.86 0 0 1 1-0.49q2.92 0.73 5.19 2.43z" />
        </g>
        <g id="chaussures">
            <path class="chaussure gauche" d="m222.39 412.79q0.13 0.09 0.23 0.23 0.07 0.09 0.19 0.1c6.19 0.62 20.3 3.76 16.14 13.33-5.04 11.61-40.32 12.85-41.71-0.79a1.58 1.6 57.6 0 1 0.22-0.97q2.16-3.58 5.94-5.33 0.5-0.23 0.09-0.58-0.25-0.21-0.52-0.13-5.11 1.68-7.28 6.59c-1.6 3.61 2.36 7.38 4.29 9.86a0.78 0.78 0 0 1-0.6 1.26l-9.77 0.2q-0.61 0.01-0.61-0.61 0.1-10.75-8.73-13.98c-5.05-1.84-11.43-0.4-16.55-3.45q-5.43-3.24-11.48-4.97c-6.15-1.77-12.25-1.09-18-4.31q-3.74-2.09-7.48-3.99a1.33 1.32 32 0 1-0.46-1.97l2.24-3.01a0.57 0.57 0 0 1 1 0.16q1.4 4.17 4.1 7.67a0.66 0.66 0 0 0 1.13-0.65c-2.92-7.4-6.07-14.79-1.98-22.64a0.66 0.66 0 0 1 1.24 0.22q0.98 7.7 4.19 15.08c0.93 2.13 3.33 5.56 3.87 8.85a1.19 1.2 67.4 0 0 1.88 0.77c10.4-7.51 13.14-20.52 22.38-28.62q8.19-7.18 19.38-8.26c10.27-0.99 11.93 7.51 12.73 15.33q0.06 0.65-0.58 0.53c-16.86-3.04-29.17 3.82-40.47 16.22a0.14 0.14 0 0 0 0.06 0.23q0.16 0.05 0.33 0.11 0.1 0.03 0.18-0.04c15.3-11.91 27.7-20.5 47.65-11.09a0.51 0.51 0 0 1-0.13 0.97q-15.04 2.56-28.44 9.72-0.1 0.05-0.06 0.16 0.04 0.12 0.08 0.25 0.04 0.12 0.17 0.07c21.09-8.27 39.06-11.66 59.98-0.57 4.75 2.52 8.37 9.85 6.82 16.06a0.97 0.97 0 0 1-1.84 0.13c-3.47-8.38-11.62-8.54-19.74-8.38q-0.41 0.01-0.08 0.24z" />
            <path class="chaussure droite" d="m57.69 438 5.1 2.79a0.3 0.29-30.1 0 1-0.15 0.55c-11.14-0.15-28.2-0.11-32.6-13.09-2.33-6.89 6.99-14.69 11.81-18.05q0.4-0.27 0.7 0.11l5.59 7.2a0.39 0.38-78.1 0 0 0.64-0.42q-3.13-5.92-5.65-12.1c-2.68-6.58-4.93-11.98 1.39-16.48a1 1 0 0 1 1.52 0.48q5.13 14.39 14.71 26.31 0.3 0.38 0.77 0.46 11.79 2 19.43-5.31 9.07-8.68 18.09-17.4 6.19-5.97 14.68-4.58c9.1 1.49 5.98 12.48-1.24 13.55-12.09 1.79-25.57 12.57-34.11 20.79a0.18 0.18 0 0 0 0.22 0.28q10.59-6.91 21.09-13.67c4.23-2.73 7.54-4.68 12.75-4.45q10.83 0.48 20.33 5.92 0.42 0.23-0.04 0.36-20.07 5.53-36.94 17.79a0.32 0.31 14.6 0 0 0.32 0.54c21.59-9.73 42.14-22.91 65.14-9.6a1.13 1.13 0 0 1-0.01 1.96l-9.69 5.48q-0.06 0.03-0.04 0.09 0.04 0.12 0.08 0.24a0.12 0.12 0 0 0 0.16 0.07c8.05-3.18 32.93-10.44 34.13 4.4 0.71 8.87-12.68 15.02-19.92 15.54q-12.62 0.9-24.5-2.81a0.58 0.57-24.2 0 0-0.41 1.07l4.67 2.09a0.37 0.36-42 0 1-0.04 0.68c-16.77 5.5-41.76 10.34-58.09 2.39-9.91-4.83-18.96-10.58-29.58-13.93a0.41 0.41 0 0 0-0.31 0.75z" />
        </g>
    </g>
</svg>