<svg height="120" version="1.1" viewBox="0 0 344 364" xmlns="http://www.w3.org/2000/svg">
    <style>
        .nain {
            --silhouette: #000;
            --peau: #f8d5be;
            --peau2: #f89290;
            --barbe: #fcfbfb;
            --yeux: #fcfbfb;
            --dorure: #e9bc2b;
        }

        #dormeur {
            --chapeau: #59b0c8;
            --manteau: #f7df89;
            --pantalon: #a94004;
            --chaussures: #d59b76;
            --patch: #d59b76;
        }

        #silhouette,
        .silhouette {
            fill: var(--silhouette);
        }

        #chapeau {
            fill: var(--chapeau);
        }

        #barbe {
            fill: var(--barbe);
        }

        .peau {
            fill: var(--peau);
        }

        .oeil {
            fill: var(--yeux);
        }

        #manteau .tissu {
            fill: var(--manteau);
        }

        #manteau .patch {
            fill: var(--patch);
        }

        #pantalon {
            fill: var(--pantalon);
        }

        #chaussures {
            fill: var(--chaussures);
        }

        #nez {
            fill: var(--peau2);
        }

        .paupiere {
            fill: var(--peau2);
        }

        .dorure,
        .bouton,
        .boucle {
            fill: var(--dorure);
        }

        .main {
            fill: var(--peau);
        }
    </style>
    <g id="dormeur" class="nain">
        <path id="silhouette" d="m236.67 1.0195c-34.36-0.19-70.25 5.2499-96.67 28.92-3.69 3.31-8.8709 6.7404-12.711 7.9004-24.93 7.53-52.42 23.16-63.68 47.83a1.62 1.63 15 0 1-1.6289 0.94922c-7.09-0.64-21.05-2.1384-27.43 1.1816-15.58 8.1-17.711 26.889-24.861 41.709-4.88 10.11-12.1 17.431-7.5098 29.051 2.52 6.41 8.7404 11.989 13.4 16.809 1.45 1.49 2.5897 3.4616 1.9297 5.3516-2.54 7.34-16.431 24.309-10.311 31.979 3.68 4.61 8.5 3.0601 13.25 1.3301a1.24 1.24 0 0 1 1.6016 0.75976c4.3533 12.653 11.36 23.07 21.02 31.25 8.06 6.82 12.33 14.891 18.48 26.941 0.82 1.61-0.74109 3.5698-1.1211 4.7598-0.64667 2.0733-1.2033 4.1834-1.6699 6.3301a1.41 1.44 75.4 0 1-0.48047 0.79883c-2.68 2.3-6.0692 3.8114-7.1992 7.4414-1.1533 3.7333-1.1409 7.4453 0.03906 11.139 0.10667 0.32 0.10357 0.63784-0.0098 0.95117-0.28 0.80667-0.74201 1.497-1.3887 2.0703-6.09 5.44-10.21 14.35-4.4102 21.5 3.65 4.51 13.309 8.5285 19.129 12.229 7.14 4.54 13.331 11.42 20.801 15.57 13.16 7.3067 27.133 8.7912 41.92 4.4512 3.88-1.13 5.7306-0.56007 9.6406-0.0801 5.54 0.67334 11.519 0.12295 17.939-1.6504 8.23-2.27 22.58-12.48 12.09-21.35-3.18-2.69-6.2404-5.4697-9.4004-8.1797-6.95-5.97-15.419-8.3204-24.439-9.9004-1.74-0.3-3.4241-1.2012-5.0508-2.7012-0.26666-0.24667-0.29961-0.52032-0.0996-0.82032 1.56-2.37 4.4997-6.189 4.9297-8.959 0.92-5.95-10.26-10.991-14.59-12.391a0.55 0.54 22.8 0 1-0.32031-0.76953l2.1602-4.1406a1.06 1.06 0 0 1 1.5703-0.36914l12.211 8.959a0.83 0.84 14.8 0 0 1.3184-0.76953c-0.92667-8.1933-1.3022-16.41-1.1289-24.65 0.0267-1.2067 0.6255-1.6768 1.7988-1.4102 5.6267 1.3 11.097 0.96357 16.41-1.0098 0.32667-0.12 0.59721-0.0429 0.81055 0.23047 0.69999 0.91999 1.2895 1.9045 1.7695 2.9512 3.3467 7.4067 6.0936 15.466 8.2402 24.18a0.33 0.32 60.7 0 0 0.55078 0.16016l10.59-10.611c0.26-0.26 0.56039-0.31968 0.90039-0.17968 7.6 3.14 9.8394 5.1606 12.859 12.891a0.8 0.8 0 0 1-0.19922 0.87891c-2.77 2.54-4.5613 4.3702-6.3613 7.9902-1.56 3.1-3.5457 5.888-5.959 8.3613-3.15 3.21-7.1707 10.498-3.7207 14.398 2.18 2.46 6.1605 3.9898 8.7305 7.0098 8.04 9.44 24.57 9.8902 34.98 5.9902 6.06-2.26 11.629-2.4284 17.889-2.6484 11.85-0.41 25.581-11.531 29.801-22.561 0.89333-2.34 1.2298-5.1044 1.0098-8.291-0.93-13.53-5.01-24.81-14.5-34.77-1.8-1.9-3.6295-1.9096-3.7695-5.0996-0.42-9.38-0.44674-18.731-0.0801-28.051a1.21 1.21 0 0 1 1.5488-1.1192c18.3 5.29 35.191-3.1199 42.791-20.34 0.92-2.09 0.65969-4.8304 3.9297-4.6504 4.14 0.24 11.6-5.1304 16.48-8.9004 0.68667-0.53333 1.3471-0.92326 1.9805-1.1699 1.04-0.40667 1.7993-0.55899 2.2793-0.45899 4.28 0.91334 8.4734 0.0184 12.58-2.6816 6.59-4.33 13.969-10.04 15.449-17.68 1.0533-5.4333-1.4385-9.3798-7.4785-11.84-1.26-0.52-4.1616-0.56899-5.1016-2.459-4.96-10.06-11.469-9.1109-21.109-8.2109a0.58 0.58 0 0 1-0.58979-0.78904c1.92-5.0067 4.244-9.6877 6.9707-14.041 1.75-2.8 3.28-2.6196 6.25-3.0996 5.1-0.81 11.97-4.799 13.24-10.209 1.08-4.66-0.81063-10.351-5.3906-12.521-16.14-7.61-27.521 3.2301-35.891 15.83a0.72 0.72 0 0 1-1.3106-0.5c1.2133-8.42 0.54357-16.822-2.0098-25.209-0.69-2.27-0.12868-2.6203 1.3613-4.0703 11.41-11.07 5.2493-28.381-9.9707-31.461a0.84 0.84 0 0 1-0.66016-0.70898c-0.08-0.66667-0.10674-1.5236-0.0801-2.5703 0.22-9.23-1.9394-19.581-2.3594-29.961-0.22-5.2333-0.70451-9.2066-1.4512-11.92-3.33-12.06-11.129-24.08-23.119-28.75-3.92-1.5267-9.7235-2.3096-17.41-2.3496z" />
        <g id="chapeau">
            <path id="" d="m165.01 76.35q-13.37 17.05-25.7 39.81a0.98 0.98 0 0 1-1.7 0.04q-3.79-6.32-5.68-13.05c-2.42-8.58-1.98-20.39-2.17-30.07a0.44 0.44 0 0 0-0.87-0.07q-1.31 7.7-1.18 15.57c0.05 2.87 0.89 6.35 0.79 9.7a0.94 0.92-15.8 0 1-0.44 0.77c-8.19 5.03-49.86-8.18-60.81-11.27a1.41 1.41 0 0 1-0.89-1.96c11.54-24.48 42.54-39.76 66.68-48.39a0.44 0.43 4.8 0 1 0.53 0.62l-5.68 10.11a1.05 1.05 0 0 0-0.14 0.56q0 0.15 0 0.3-0.01 0.26 0.14 0.05c21.46-30.68 53.61-44.43 90.5-45.65a0.5 0.5 0 0 1 0.25 0.94q-24.04 12.99-38.91 35.92a0.23 0.23 0 0 0 0.35 0.29q0.73-0.73 1.46-1.73c16.22-22.3 41.28-41.31 70.38-33.79 17.36 4.49 23.4 25.11 24.89 40.61a0.41 0.41 0 0 1-0.76 0.25q-4.1-7.16-7.95-14.78-1.09-2.15-2.96-3.65-6.89-5.53-13.55-11.26a0.45 0.45 0 0 1 0.42-0.78l4.5 1.29a0.36 0.36 0 0 0 0.32-0.64q-6.93-5.25-15.91-4.08c-19.36 2.52-35.24 16.12-44.8 32.54q-4.69 8.06-10.36 22.45c-2.34 5.94-6.38 11.41-11.05 17.15-16.18 19.86-24.55 32.16-35.61 49.5a0.23 0.23 0 0 1-0.42-0.14c0.92-12.42 4.62-21.51 11.04-32.03q8.46-13.83 15.82-24.75 5.14-7.61-0.53-0.38z" />
        </g>
        <g id="visage">
            <path class="peau" d="m265.2 124.97q6.92-0.1 9.46 6.1c1.56 3.81-3.78 8.91-6.12 11.73-1.78 2.15-0.7 7.06-1.03 9.88a1.32 1.36 73 0 1-0.49 0.89c-3.07 2.5-12.87 5.94-16.17 1.58q-4.1-5.43-7.72-11.23-0.79-1.27-2.08-1.63a0.38 0.38 0 0 0-0.42 0.58l1.77 2.76a0.36 0.36 0 0 1-0.47 0.52q-9.03-4.51-18.94-6.55a0.62 0.62 0 0 1-0.29-1.07c9.33-8.29 20.95-22.83 22.24-35.39a0.13238 0.13238 0 0 0-0.26-0.05q-6.21 20.73-23.64 33.45c-14.26 10.41-34.49 7.07-35.6-13.39-1.01-18.75 10.11-33.5 14.6-50.89q3.4-13.17-1.22-26.62-0.17-0.49 0.04-0.98c6.38-14.84 24.96-28.36 40.71-31.02 7.27-1.23 16.99 8.42 21.6 13.09a1.22 1.22 0 0 1 0.01 1.71q-1.72 1.76-1.42 4.3 0.08 0.67 0.59 0.23c2.77-2.46 5.07-0.84 6.87 1.76q12.18 17.61 11.59 39.31c-0.06 2.07-1.08 3.23-3.16 2.32q-0.49-0.21-0.33-0.72 4.5-13.52-3.48-24.21c-2.2-2.95-5.48-1.92-7.09 1.07-4.09 7.63-0.79 16.62 3.25 24.18a0.57 0.57 0 0 1-0.27 0.79q-12.59 5.71-19.4 12.6c-1.35 1.37-1.67 5.21-1.28 7.28 2.1 11.05 14.33 18.14 24.6 18.9 3.86 0.29 8.24-1.54 12.33-2.22q0.56-0.09 0.52 0.48-1.41 17.4-13.61 29.83a0.29129 0.29129 0 0 1-0.45-0.37c3.4-5.02 10.33-11.82 4.66-17.7-1.1-1.14-2.81-1.54-4.26-2.46-1.5-0.95-2.08-3.22-2.85-4.72a0.43 0.43 0 0 0-0.81 0.12q-0.51 2.86-2.3 5.11-0.52 0.66 0.32 0.65zm-28.95-103.48q0.64 0.14 1.24-0.03a0.36 0.35 49.7 0 0 0.05-0.66c-9.79-4.59-15.63 4.69-16.4 12.95q-0.01 0.19 0.18 0.18 0.15 0 0.26-0.09 0.12-0.09 0.18-0.35c1.67-6.79 6.28-13.85 14.49-12zm13.3 12.28c-13.36-10.34-18.45 4.4-20.07 14.53a0.38068 0.3907 58.8 0 0 0.75 0.18c2.9-8.23 7.31-19.54 18.76-13.83a0.52 0.53 77.3 0 0 0.56-0.88zm-28.68 4.43a0.41 0.95 0 0 0 0.41-0.95 0.41 0.95 0 0 0-0.41-0.95 0.41 0.95 0 0 0-0.41 0.95 0.41 0.95 0 0 0 0.41 0.95zm33.33 17.08c-2.07-8.08-7.24-6.93-12.16-2.47q-9.29 8.42-9.44 20.56c-0.07 5.73 2.34 11.94 9.02 11.16 12.86-1.5 15-19.84 12.58-29.25zm-14.31 33.73c-4.81 1.56-9.38-1.92-13.32-4.57q-0.69-0.47-0.29 0.27c3.96 7.31 13.24 8.15 19.47 3.2q0.94-0.74-0.23-0.47-2.89 0.69-5.63 1.57zm27.17 45.3c-5.02 1.47-9.23 6.22-10.02 11.45-0.84 5.51 5.35 6.02 7.02 0.79q1.88-5.85 3.54-11.71a0.43 0.43 0 0 0-0.54-0.53z" />
            <path class="paupiere droite" d="m234.91 70.38c0.57-8.48 5.1-16.47 13.27-19.49 4.47-1.65 5.49 8.09 5.29 10.42q-0.05 0.53-0.55 0.73-9 3.54-17.05 8.9a0.62 0.62 0 0 1-0.96-0.56z" />
            <path class="paupiere gauche" d="m266.54 53.12a1.69 1.68 33.6 0 1 2.56-0.51q4.79 3.9 5.1 10.29 0.03 0.63-0.58 0.46l-7.47-2.03q-0.66-0.18-0.78-0.86-0.66-3.91 1.17-7.35z" />
            <path class="oeil droite" d="m243.36 73.13c4.91-2.29 2.79-8.3 9.21-8.59a0.93 0.93 0 0 1 0.96 1.12q-0.96 4.76-2.27 8.84c-1.81 5.68-8.21 11.36-14.07 6.81-4.84-3.75-1.69-11.82 5.18-8.2a1.1 1.1 0 0 0 0.99 0.02z" />
            <path class="oeil gauche" d="m271.51 65.55a0.47 0.47 0 0 1 0.7-0.24c4 2.55 3.01 8.38-0.28 11.07a1.04 1.04 0 0 1-0.94 0.19c-1.97-0.57-3.22-3.53-3.77-5.15a0.76 0.75 64.3 0 1 0.31-0.89q2.85-1.8 3.98-4.98z" />
            <path id="nez" d="m269.14 93.12q-4.61-7.06-13.2-6.22-1.96 0.19-0.32-0.91 13.97-9.36 29.17-5.83 7.42 1.71 9.57 10.07c5.04 19.61-22.57 30.31-35.84 20.22q-5.28-4.01-7.81-10.18c-6-14.6 11.23-13.18 17.56-6.46a0.56 0.56 0 0 0 0.87-0.69z" />
        </g>
        <g id="barbe">
            <path id="" d="m228.88 238.53c1.88-7.84 5.38-22.53 12.68-27.12q0.49-0.31 0.51 0.27 0.76 21.33-0.66 42.56-1.11 16.45-10.67 30.71-1.21 1.81-2.66 2.58a0.46 0.46 0 0 1-0.67-0.53q2.13-7.61 2.63-15.51 0.19-3.05-0.7-0.12c-3.07 10.12-5.67 20.05-11.43 29.26q-6.91 11.07-17.59 25.44-1.5 2.03-3.06 3.02-0.71 0.45-0.44-0.34 7.2-21.02 7.98-43.24 0.02-0.62-0.22-0.05c-1.21 2.83-1.28 6.16-1.94 9.28a0.33 0.33 0 0 1-0.64 0c-6.33-32.22-25.11-58.8-40.81-86.87q-4.57-8.16-7.61-17.54a0.4 0.4 0 0 0-0.78 0.17q1.03 9.42 5.54 17.75a1.03 1.03 0 0 1-1.27 1.46c-7.33-2.77-13.95-18.4-15.27-24.73q-1.15-5.49-3.23-22.09-0.01-0.1-0.12-0.12-0.15-0.03-0.25-0.02-0.04 0.01-0.03 0.05l0.69 19.73q0.01 0.22-0.15 0.38l-0.53 0.53a0.52 0.52 0 0 1-0.85-0.16c-1.93-4.58-3.39-8.98-3.74-14.01-1.91-27.08 17.96-52.11 34.16-72.66 8.35-10.6 17.56-21.34 22.33-34.41q2.73-7.46 5.85-14.53a0.78 0.78 0 0 1 1.46 0.07c5.79 17.27-2.24 34.52-9.65 50.76-4.39 9.61-6.79 23.62-1.99 33.44 2.65 5.43 7.38 11.1 13.68 12.18 5.96 1.02 13.13-1.22 18.7-1.19 11.95 0.06 22.94 2.89 30.69 12.57 1 1.24 2.89 2.89 4.44 3.17 4.14 0.75 12.67 0.22 15.4-3.9 1.35-2.03 0.21-5.04 2.13-6.96 9.54-9.52 15.46-18.81 15.71-32.78 0.01-0.68 0.29-1.47 0.63-1.99a0.69 0.69 0 0 1 1.23 0.13c6.29 16.6 1.27 30.55-6.25 46.12-0.43 0.9-1.51 1.48-2.41 1.7q-15.31 3.77-19.13 19.56c-2.1 8.66-9.25 15.09-14.8 21.85-9.42 11.47-16.32 20.37-17.38 36.05a0.25 0.25 0 0 0 0.49 0.08z" />
        </g>
        <g id="mains">
            <path class="main droite" d="m95.19 186.33a1.25 1.24-64 0 1 0.53 1.54c-4 10.01-15.08 10.51-23.42 6.33-6.37-3.21-4.77-10.14 0.75-12.63 6.66-3.01 16.17 1.26 22.14 4.76zm-54.72-3.48 0.48 3.63q0.07 0.51-0.27 0.9-6.89 7.99-13.15 16.38c-3.11 4.19-8.8 9.67-14.31 8.75-6.14-1.02-5.81-7.89-3.91-12.7 1.82-4.62 6.57-10.32 8.63-15.79 2.7-7.18 3.41-14.2 7.31-21.12a0.3 0.3 0 0 0-0.48-0.35l-2.94 3.3a0.66 0.66 0 0 1-1.12-0.23c-2.76-8.12-6.66-17.62 1.84-24.1q12.24-9.33 27.11-8.02c9.03 0.8 15.35 4.82 21.79 10.99a0.48 0.47 75 0 1-0.46 0.8q-6.42-1.91-12.65 0.57a0.2 0.2 0 0 0 0.08 0.39c17.4-0.14 24.64 11.53 39.06 17.3 4.61 1.85 14.56 2.42 14.91 8.77q0.21 3.69-1.69 6.47c-6.16 9-21.28 2.47-29.2-0.51q-2.97-1.12-5.25-0.78-8.64 1.26-9.26 10.97-0.49 7.67-1.01 15.28c-0.5 7.34-0.47 11.7-4.08 16.43-5.97 7.82-15.41-0.72-16.22-8-1.11-9.97-1.4-19.72-4.34-29.51a0.45 0.44 33.1 0 0-0.87 0.18z" />
            <path class="main gauche" d="m330.24 175.42a0.27 0.26-74.4 0 1 0.25-0.15c8.55 0.51 13.97 8.76 7.92 16.13-4.97 6.06-21.76 20.31-27.76 8.1a1.49 1.49 0 0 1 0.71-2.01c9.06-4.22 14.76-13.17 18.88-22.07zm-54.62 3.52q4.22 8.9 14.02 10.2a1.16 1.16 0 0 1 1 1.32c-1.73 11.34-11.9 17.75-22.91 16.77q-0.84-0.07-1.37 0.08a0.45 0.45 0 0 0 0.05 0.87q15.62 2.54 23.82-10.41c1.77-2.8 1.8-8.51 4.82-10.28q0.46-0.27 0.52 0.26c0.6 5.17 2.96 7.63 7.69 9.52q4.77 1.91 7.13 6.81 0.2 0.42-0.12 0.74c-10.31 10.23-20.92 12.69-34.59 7.1a0.38 0.38 0 0 0-0.5 0.49q0.84 2.12-1.15 2.59-10.44 2.47-22.7 2.43-0.53 0-0.65-0.51-1.25-4.93-1.58-9.85c-0.34-5.15 4.63-11.2 8.08-14.63q0.44-0.45 0.66 0.14c0.39 1.08 0.16 3.15 0.54 3.85q0.13 0.23 0.32 0.36 0.47 0.31 0.59-0.24c2.98-13.98 5.23-31.48 23.2-33.59 8.68-1.02 18.29-0.06 19.73 10.74a1.4 1.38 58.2 0 1-0.21 0.92c-2.95 4.55-6.1 13.18-12.53 12.65-5.93-0.49-9.86-4.3-13.54-8.53a0.19 0.19 0 0 0-0.32 0.2zm35.84-7.74q-2.65 0.36-5.27 1.15a1.33 1.32 71.8 0 1-1.64-0.84c-3.36-9.88-10.01-10.93-19.69-11.01q-0.63 0-0.41-0.59 6.77-17.89 20.33-31.38c6.04-6.01 16.54-8.89 24.24-3.97q2.71 1.73 3.53 4.87c1.73 6.64-3 11.65-8.97 13.53-4.21 1.32-9.71 0.82-14.24 0.78a0.85 0.85 0 0 0-0.86 0.83q-0.01 0.19 0.31 0.38 0.18 0.11 0.44 0.13 2.38 0.19 4.74 0.64 0.51 0.09 0.25 0.54c-3.06 5.24-7.92 13.17-7.42 19.28a0.9 0.9 0 0 0 1.26 0.75c6.38-2.8 16.24-3.44 18.98 4.78 2.62 7.86-8.49 19.27-14.45 22.75-10.34 6.04-18.56-4.7-11.79-13.72 3.47-4.61 6.61-5.89 10.83-8.41q1.14-0.68-0.17-0.49z" />
        </g>
        <g id="manteau">
            <path class="tissu" d="m277.45 227.12q-3.21 1.62-6.56 3.09c-7.11 3.11-15.37-3.25-18.58-9.23a0.77 0.77 0 0 1 0.6-1.13q11.51-1.11 23.11-2.71c2.35-0.32 14.12-0.86 11.58 4.52-7.17 15.16-25.93 26.06-41.89 16.57q-0.41-0.24-0.42-0.72c-0.29-9.71-1.77-20.94-0.11-30.46a0.56 0.55 48.5 0 1 1.1 0.07c0.61 11.51 6.22 23.53 18.43 25.94q8.17 1.62 13.04-5.6 0.5-0.75-0.3-0.34zm-108.56 31.6c-7.43-4.92-13.34-9.05-18.36-16.54a0.62 0.62 0 0 1 0.58-0.96c8.79 0.84 7.59-2.33 8.24-9.01q0.07-0.7 0.75-0.89l8.68-2.33a0.96 0.96 0 0 1 1.08 0.45l18.66 32.76q0.23 0.41-0.06 0.79l-23.65 29.89a0.73 0.74 59.4 0 1-1.3-0.33c-2.6-15.5-12.29-32.59-20.27-46.02q-0.24-0.4-0.57-0.42-0.71-0.06-0.43 0.58l8.34 19.35a1.28 1.28 0 0 1-0.97 1.77q-7.45 1.22-14.76-0.51a0.77 0.76 6.7 0 1-0.59-0.74l-0.03-19.31a0.74 0.63 77 0 0-0.95-0.71q-0.13 0.08-0.21 0.72-2.85 22.97-0.34 45.71a0.61 0.6 15.8 0 1-0.98 0.54q-16.42-12.75-35.28-21.53c-29.87-13.92-62.36-26.38-71.72-59.25q-0.13-0.48 0.18-0.85 7.01-8.38 12.27-18 1.29-2.36 2.31-2.88 2.19-1.13 2.21 1.34 0.06 10.27 0.99 19.49c1.64 16.19 22.22 19.27 25.06 1.21q1.28-8.16 1.16-16.85a0.68 0.68 0 0 1 1.18-0.48q21.43 22.26 50.46 33.95 3.1 1.25 2.81 5.13-0.04 0.46 0.15 0.89 0.96 2.18 1.01 4.53a1.57 1.55 62.5 0 1-0.29 0.94q-6.83 9.39-14.98 17.65a0.39 0.4 5.5 0 0 0.5 0.61q10.7-7.21 17.59-18.14a1.68 1.66 16.1 0 1 1.41-0.77h17.28q0.58 0 0.9 0.48c1.98 2.92 3.53 6.41 5.89 8.73q6.72 6.57 15.91 9.3 1.05 0.31 0.14-0.29zm-154.67-97.46c0.25-2.46-1.48-4.24 0.25-6.9q0.54-0.84 0.8 0.12l4.63 17.61a1.18 1.18 0 0 1-1.82 1.26c-8.58-6.09-17.62-16.02-14.52-27.53 1.82-6.72 7.69-13.41 11.91-19.4q0.3-0.41 0.29-0.92c-0.08-3.42 1.26-13.81 5.99-14.17q1.5-0.12 1.67 1.38l0.42 3.89a0.47 0.47 0 0 0 0.93-0.01c0.77-8.63 6.82-7.98 13.16-8.36a3.53 3.53 0 0 0 2.95-1.98c1.45-2.96 3.63-8.79 6.47-10.69a1.22 1.19 36.6 0 1 1.04-0.14q1.91 0.61 4.4 1.78 0.56 0.27 1.15 0.01 0.55-0.24 0.06-0.57-1.84-1.27-3.66-2.48-0.85-0.57-0.84-0.77a1.7 1.71 12 0 1 2.3-1.51l5.26 2.01a0.31 0.31 0 0 0 0.27-0.55l-3.53-2.24a0.99 0.99 0 0 1-0.03-1.66c1.91-1.29 4.03-1.38 6.39-0.85 14.36 3.25 27.14 7.24 37.34 9.64q14.18 3.34 31.18 4.49a0.78 0.77 84.7 0 1 0.69 0.58q2.25 8.73 7.23 16.21a1.73 1.74 30.5 0 1 0.28 1.1c-0.79 9.15-1.19 18.22-3.36 27.25-1.27 5.31-2.96 10.62-2.77 15.95 0.28 7.87 1.48 18.51 7.3 24.59q1.94 2.03 2.76 3.71c4.33 8.79 6.63 16.94 16.62 20.26 4.16 1.39 6.84 5.97 8.58 9.73q0.22 0.48-0.29 0.58c-13.88 2.81-27.25 2.56-41.21-1.13q-24.95-6.58-46.68-22.36-1.32-0.97 0.31-0.8c13.47 1.43 14.92-0.9 21.3-11.52a1.18 1.18 0 0 1 0.8-0.54c9.09-1.6 16.48-4.6 14.08-15.85-1.19-5.56-12.19-7.87-16.92-9.06a0.41 0.42 43.3 0 1-0.02-0.8q14.03-4.5 26.24-12.04 0.51-0.32 0.7-0.51a0.71 0.72 12.5 0 0-0.75-1.18c-9.4 3.51-18.1 8.14-27.31 11.96-3.5 1.45-5.62 0.48-5.84-3.34q-0.31-5.48-0.72-10.96c-0.31-4.12-2.49-7.38-2.87-11.49-0.67-7.28-0.42-14.65-5.66-20.77q-3.34-3.89-6.91-7.56-0.27-0.27-0.49 0.03c-0.11 0.15 13.88 18.99 9.6 26.33q-0.3 0.51-0.76 0.14-18.74-15.17-42.91-10.46a0.24 0.24 0 0 0 0.03 0.47c5.72 0.35 12.21-0.02 17.24 0.82 9.95 1.66 23.24 7.86 28.15 17.21 2.2 4.19 2.5 9.5 2.1 14.21a0.71 0.71 0 0 1-1.07 0.55c-7.23-4.22-11.87-10.72-17.04-14.9-10.59-8.56-26.9-10.5-39.37-5.04-9.74 4.27-21.68 14.97-16.01 27.25q0.4 0.86 0.49-0.08z" />
            <path class="patch" d="m29.75 103.06a1.11 0.78-29.2 0 0-1.9-0.2c-1.35 2.29-4.17 7.8-7.24 6.91q-0.55-0.15-0.38-0.7c4.29-13.94 16.28-23.41 31.28-21.38a0.43 0.43 0 0 1 0.35 0.53c-0.47 1.85-4.78 1.29-6.16 1.32a0.49 0.49 0 0 0-0.22 0.93l2.01 1.06a0.49 0.49 0 0 1-0.34 0.91l-3.47-0.86a0.41 0.41 0 0 0-0.35 0.72l1.55 1.26a0.53 0.52-56.2 0 1 0.13 0.68l-6.46 11.59a0.73 0.73 0 0 1-0.51 0.36l-9.76 1.58a0.74 0.74 0 0 1-0.66-1.24q1.38-1.47 2.13-3.47z" />
            <path class="boucle" d="m130.61 232.06c3.44 0.54 8.34 0.63 10.67 3.62q0.33 0.42 0.83 0.25c3.69-1.27 4.55-2.97 9.15-2.66a2.05 2.05 0 0 0 2.18-2.26q-0.36-3.37 2.7-4.59a0.95 0.95 0 0 1 1.3 0.98l-0.94 9.39a1.12 1.11-87.9 0 1-1.07 1q-13.97 0.55-27.81-1.54a0.93 0.92-6.9 0 1-0.71-0.55q-1.83-4.3-1.17-8.96a0.87 0.87 0 0 1 0.58-0.69q1.83-0.6 3.17 0.79a0.64 0.6 23.1 0 1 0.15 0.34l0.29 4.13a0.81 0.81 0 0 0 0.68 0.75z" />
        </g>
        <g id="pantalon">
            <path id="" d="m54.844 255.24a0.59 0.59 0 0 0-0.2832 0.85742c6.42 10.1 12.76 20.59 17.27 31.65a0.12 0.12 0 0 1-0.07031 0.16016l-0.2793 0.0996c-0.09333 0.0267-0.16737-8e-5 -0.2207-0.0801l-6.459-10.459a0.66 0.66 0 0 0-1.1816 0.12891c-3.38 9.63-1.3692 23.28 1.8008 32.66a1.16 1.17 77.2 0 0 1.25 0.77929c17.86-2.38 29.57-17.439 48.4-17.639a0.94 0.95 9.6 0 0 0.89063-0.64062l1.7695-5.1797c0.15333-0.44667 0.0401-0.80365-0.33985-1.0703-5.41-3.79-8.3412-5.9289-14.531-1.6289-1.5933 1.1067-4.3968 2.3187-8.4102 3.6387-0.34667 0.11333-0.36836 0.0629-0.06836-0.15039l10.119-7.3496a0.73 0.73 0 0 0-0.0293-1.1992c-2.7533-1.8267-5.6936-3.3976-8.8203-4.7109-1.31-0.55-1.9511-1.479-3.3711-1.959-1.2267-0.41333-1.8635-0.63039-1.9102-0.65039-12.08-5.3333-23.756-11.077-35.029-17.23a0.59 0.59 0 0 0-0.49609-0.0273zm134.76 10.457a0.76 0.76 0 0 0-0.67383 0.31055l-12.34 17.221a1.04 1.04 0 0 0 0.30078 1.4902c6.32 3.86 13.213 5.7088 20.68 5.5488a1.24 1.24 0 0 0 1.1797-1.5488c-2.02-7.8333-4.8626-15.371-8.5293-22.611a0.76 0.76 0 0 0-0.61718-0.41016z" />
        </g>
        <g id="chaussures">
            <path id="" d="m187.07 323.79c-2.11 0.79-6.61 4.62-7.55 7.92q-0.53 1.85-2.31 1.11c-7-2.91-4.76-10.17-0.4-14.53q7.3-7.31 17.75-8.53a0.99 0.98-88.8 0 0 0.85-0.82q0.15-0.94-1.18-0.75-5.81 0.87-11.4 2.76-0.81 0.28-0.43-0.49 2.52-5.12 7.16-8.36 0.41-0.28 0.89-0.16 3.02 0.74 5.81 1.41 1.09 0.25 1.34-0.44a0.72 0.72 0 0 0-0.43-0.92q-6.18-2.32-9.58-8.07a1.1 1.1 0 0 1 0.97-1.66l10.04 0.22q0.42 0.01 0.53 0.41c3.55 12.71-2.42 28.44-6.63 40.32a0.99 0.99 0 0 0 1.52 1.12c14.36-10.64 21.85-26.75 32.46-40.58 6.4-8.36 11.93-15.34 15.85-25.36a0.49 0.49 0 0 1 0.92 0q0.16 0.4 0.05 1.13-1.24 8.36-2.57 13.47-2.06 7.91 1.69 0.65 1.63-3.15 2.84-6.59a0.68 0.68 0 0 1 1.09-0.29q12.95 11.05 14.66 27.32c0.54 5.08 0.87 9.29-0.25 13.72-3.23 12.82-24.73 23.09-36.67 21.58q-0.52-0.07-0.37-0.58c1.13-3.65 1.83-9.97-1.29-12.88a0.4 0.4 0 0 0-0.66 0.42c6.41 19.62-20.75 19.59-31.58 15.7-9.81-3.52-12.16-10.78-2.55-17.14q4.58-3.03-0.57-1.11zm48.09-25.29-0.66-1.12a0.11 0.11 0 0 0-0.15-0.04l-9.94 5.86a4.35 0.72-30.5 0 0-3.38 2.83l0.04 0.06a4.35 0.72-30.5 0 0 4.11-1.58l9.94-5.86a0.11 0.11 0 0 0 0.04-0.15zm-16.38 12.57 13.41 4.3a0.18 0.18 0 0 0 0.23-0.12l0.12-0.37a7.08 1.15 17.8 0 0-6.39-3.26l-0.27-0.08a7.08 1.15 17.8 0 0-7.09-1.07l-0.12 0.37a0.18 0.18 0 0 0 0.11 0.23z" />
            <path id="" d="m67.9 320.44q0.17 0.16 0.39 0.31 0.21 0.15 0.47 0.16c11.7 0.45 22.54-3.93 35.73-7.94q3.85-1.17 9.95-0.92c3.5 0.14 6.52 2.68 9.27 4.56a0.65 0.65 0 0 1-0.32 1.19c-11.1 0.75-23 2.06-32.1 8.46a0.35 0.35 0 0 0 0.32 0.61q21.57-8.3 44.46-5.17c9.54 1.31 15.89 4.15 22.28 10.84q1.26 1.33-0.56 1.18c-6.68-0.51-24.72 0.45-29.91 5.67q-0.57 0.57 0.2 0.33c9.52-3 31.81-7.46 38.59 0.36q3.05 3.51 0.49 6.86c-10.44 13.67-33.44 14.24-46.43 4.85a0.36 0.36 0 0 0-0.56 0.34q0.08 0.56 0.77 1.19 2.42 2.2 4.02 3.13 2.77 1.62-0.4 2.12c-30.65 4.74-45.37-9.37-66.52-29.08q-0.31-0.29-0.73-0.25-0.16 0.01-0.32 0a0.2 0.2 0 0 0-0.14 0.36q1.79 1.39 2.99 3.32 0.5 0.79-0.36 0.41c-6.69-3.04-15.88-6.69-14.27-16.05 0.68-4.02 3.72-7.14 6.67-9.72q0.29-0.26 0.51 0.05l4.46 6.17a0.52 0.52 0 0 0 0.86-0.57q-4.47-7.42-4.93-16.14c-0.22-4.11 1.52-6.37 4.48-8.84a0.8 0.79-22.6 0 1 1.3 0.53q0.9 9.44 3.32 18.57a0.99 0.98 86.4 0 1-1.08 1.23l-0.48-0.06q-0.93-0.13-0.31 0.58c5.49 6.28 13.86 3.22 20.43 0.04 13.66-6.62 33.66-20.52 48.25-6.57 3.69 3.52-0.81 8.77-3.32 11.5q-0.37 0.4-0.88 0.18l-4.29-1.88a0.41 0.41 0 0 1 0.05-0.77l2.17-0.65a0.45 0.45 0 0 0-0.07-0.87q-7.26-0.88-14.51 0.23c-10.42 1.6-20.77 7-31.64 8.61q-4.07 0.6-8.16 1.1-0.55 0.07-0.14 0.44z" />
        </g>
    </g>
</svg>