<svg version="1.1" height="152" viewBox="0 0 261 460" xmlns="http://www.w3.org/2000/svg">
    <style>
        .nain {
            --silhouette: #000;
            --peau: #f8d5be;
            --peau2: #f89290;
            --barbe: #fcfbfb;
            --yeux: #fcfbfb;
            --dorure: #e9bc2b;
        }
        #grincheux {
            --chapeau: #9f5626;
            --manteau: #d60000;
            --pantalon: #9f5626;
            --chaussures: #d59d77;
            --patch: #d59d77;
        }

        #silhouette,
        .silhouette {
            fill: var(--silhouette);
        }

        #chapeau {
            fill: var(--chapeau);
        }

        #barbe {
            fill: var(--barbe);
        }

        .peau {
            fill: var(--peau);
        }

        .oeil {
            fill: var(--yeux);
        }

        #manteau .tissu {
            fill: var(--manteau);
        }

        #manteau .patch {
            fill: var(--patch);
        }

        #pantalon {
            fill: var(--pantalon);
        }

        #chaussures {
            fill: var(--chaussures);
        }

        #nez {
            fill: var(--peau2);
        }

        .paupiere {
            fill: var(--peau2);
        }

        .dorure, .bouton, .boucle {
            fill: var(--dorure);
        }

        .main {
            fill: var(--peau);
        }
    </style>
    <g id="grincheux" class="nain">
        <path id="silhouette" class="silhouette" d="m117.62 1.627c-19.106-0.22081-38.563 6.9301-50.959 20.783-1.88 2.1067-4.6064 5.9822-8.1797 11.629-3.4733 5.4933-7.2264 10.791-11.26 15.891-4.1067 5.1867-6.8648 9.0467-8.2715 11.58-11.93 21.38-10.689 42.3-6.8594 66.43 0.71 4.45 1.7106 9.6302-0.35938 13.74-4.9 9.7-9.8013 19.18-13.361 29.49-2.67 7.75 0.38048 15.84 7.7305 19.59 1.6467 0.83999 1.7002 1.766 0.16016 2.7793-10.99 7.26-25.5 19.58-24.41 34.57 1.19 16.46 12.321 25.68 27.631 28.9a1.09 1.09 0 0 1 0.7793 1.4902c-1.0867 2.58-0.36961 4.3474 2.1504 5.3008a1.08 1.07 31 0 1 0.42969 1.7188c-8.08 9.06-13.819 18.361-13.779 30.971 0.03 10.72 9.9897 10.029 17.43 11.359a1.28 1.27 6.7 0 1 1.0488 1.3203c-0.70666 12.44 1.284 24.562 5.9707 36.369 1.53 3.84 5.0698 10.662 4.5098 14.672-0.74 5.26-0.82047 10.86 0.26953 16.1 0.69 3.35-1.4295 4.5291-2.5195 6.7891-0.89333 1.8533-1.6104 3.7762-2.1504 5.7695-0.46 1.7-0.05 4.95-1.75 6.5-0.62 0.56667-2.296 1.6644-5.0293 3.291-4.5467 2.7067-8.1567 6.3024-10.83 10.789-1.96 3.29-4.8501 4.0912-8.3301 5.2012-12.97 4.12-21.129 15.979-13.369 28.949 4.29 7.19 4.0788 12.461 13.299 15.111 6.79 1.95 15.26 0.63835 21.84-1.6816 1.6267-0.56667 3.2151-0.83526 4.7617-0.8086 6.4333 0.11334 12.85-0.10372 19.25-0.65039 5.11-0.43 9.87-1.9202 14.75-3.4102 9.32-2.84 15.399-9.0711 17.859-18.371 1.16-4.38 1.9604-6.1684 5.4004-8.5684 6.9-4.82 7.9294-12.2 5.3594-19.98-0.79333-2.4133-1.1565-4.3444-1.0898-5.791 0.14-2.93 1.6107-5.8696 1.7207-8.3496 0.23-5.45-3.1104-9.0196-6.4004-12.6a1.25 1.26 24.6 0 1-0.33008-0.90039c0.18-5.3533-0.43008-10.6-1.8301-15.74-1.17-4.31 0.32969-9.0699 1.6797-13.17a0.7 0.7 0 0 1 0.75-0.46875c0.84 0.11334 1.6404 0.37263 2.4004 0.7793 0.29333 0.16 0.60922 0.24643 0.94922 0.25977l7.3906 0.32031c0.28667 0.0133 0.50992 0.13581 0.66992 0.36914 5.18 7.42 6.2799 11.261 4.1699 20.121-0.0733 0.32-0.26365 0.53706-0.57032 0.65039l-2.5801 1.0195c-0.26667 0.1-0.48683 0.26667-0.66016 0.5-7.82 10.5 5.4103 14.08 1.0703 21.24-6.03 9.92-3.4105 20.17 7.7695 24.35 8.46 3.16 16.51 3.0296 26.75 3.3496 1.86 0.06 3.6604 0.44682 5.4004 1.1602 20.08 8.23 40.021 15.55 59.971 13.02 4.3667-0.55334 8.7155-2.3991 13.049-5.5391 2.79-2.02 5.0107-1.8994 8.2207-1.9394 7.79-0.11 25.78-6.1216 20.01-17.602-4.31-8.59-13.829-5.3488-20.709-10.719-9.28-7.25-16.081-8.9309-27.781-9.4609-0.34667-0.0133-0.65945-0.12651-0.93945-0.33984-4.4933-3.4533-9.6034-5.2095-15.33-5.2695a1.79 1.78 61.1 0 1-0.96094-0.27929c-1.9933-1.2467-3.196-2.3176-3.6094-3.2109-3.64-7.9133-9.6071-12.544-17.9-13.891a1.97 1.95 86.7 0 1-1.5703-1.4102c-1.05-3.71-3.6391-10.089-2.8691-13.799 0.9-4.35 0.52063-8.2798 3.8906-11.59 3.9-3.82 8.5368-7.4301 13.91-10.83 0.78667-0.5 1.2836-1.5535 1.4902-3.1602a1.37 1.35 35.1 0 0-0.16016-0.87109c-2.25-4.1-6.1605-8.2986-7.9805-11.059-4.8867-7.44-8.0029-15.928-9.3496-25.461a1.42 1.41 6.2 0 1 1.8984-1.5195c12.28 4.51 30.4 7.0797 42.92 1.1797a2.21 2.21 0 0 0 0.97071-3.1191l-0.7793-1.3398a0.53 0.52 71.5 0 1 0.38867-0.79102c13.68-1.59 41.071-7.8795 48.951-20.27a1.84 1.84 0 0 0-0.9707-2.7305c-6.06-2.04-12.439-3.1792-18.779-4.6992a0.82 0.82 0 0 1-0.0312-1.5898c1.08-0.3 1.9905-0.89458 2.7305-1.7812a0.9 0.88 50.1 0 0 0.0801-1.0098c-0.48667-0.83334-1.2902-1.4857-2.4102-1.959-8.84-3.75-15.269-6.2813-21.869-13.361a1.23 1.23 0 0 1 0.11914-1.7891c10.08-8.14 20.04-18.97 22.49-32.08 1.92-10.25-2.88-20.271-11.25-25.961-1.8733-1.2733-7.2365-3.6633-16.09-7.1699-7.4333-2.9333-14.877-5.8388-22.33-8.7188-2.79-1.07-4.7199-2.84-6.9199-4.75a1.47 1.47 0 0 1 0.54102-2.5215c11.5-3.46 20.11-12.9 22.01-24.93 1.98-12.56-6.1005-23.27-17.48-26.82-3.17-0.99-7.3101-0.91945-10.83-1.4395a1.36 1.36 0 0 1-0.94922-2.0703c13.753-21.86 15.575-44.75 5.4687-68.67-4.42-10.48-12.62-18.41-23.91-20.76-5.28-1.11-11.7 0.33078-16.68-1.6992-7.8438-3.2094-16.456-4.8332-25.141-4.9336z" />
        <g id="chapeau">
            <path class="tissu" d="m174.65 28.58c-12.62-13.44-29.4-6.61-43.44-1.04a1.82 1.8 38.7 0 1-0.95 0.1c-10.23-1.66-8.98 5.97-12.71 11.53q-8.9 13.26-17.99 26.39c-8.92 12.89-16.3 20.31-31.59 24.27a1.73 1.73 0 0 0-1.09 2.5q1.02 1.88 2.85 2.98a0.27 0.27 0 0 1-0.01 0.47q-8.53 4.89-13.08 13.64a1.36 1.36 0 0 0 0.75 1.91l2 0.7a0.55 0.54-63.4 0 1 0.27 0.82l-4.76 7.05q-0.3 0.46-0.61 0-3.92-5.87-1.06-12.16 2.04-4.46 8.81-17.84 0.16-0.32-0.15-0.49-0.32-0.18-0.56 0.17-2.75 4.01-9.56 16.61-4.98 9.23 1.12 16.26 0.37 0.42 0.32 0.98c-0.23 2.62-2.58 12.22 0.24 14.25q0.41 0.29 0.89 0.18l1.83-0.44a0.54 0.54 0 0 1 0.66 0.62q-1.83 10.21 4.16 18.46 0.38 0.52-0.05 0.99-7.39 8.21-10.9 18.71a1.67 1.63 81.9 0 1-0.6 0.82q-7.47 5.5-14.88 10.75-2.41 1.71-4.4 2.35a1.36 1.35 48.3 0 1-0.98-0.06q-4.54-2.08-6.92-5.99c-6.17-10.13 5.82-30.06 10.72-39.07a0.42 0.42 0 0 1 0.79 0.23l-0.91 10.57a0.42 0.42 0 0 0 0.81 0.18c3.72-9.54 1.7-20.21 0.15-31.71-1.89-13.94-3.16-30.86 0.69-44.26q4.76-16.56 16.29-31.12 1.62-2.05 1.29 0.54l-1.47 11.55q-0.05 0.41 0.35 0.52 0.14 0.03 0.28-0.09 0.11-0.1 0.15-0.29 1.79-8.14 2.64-11.11c10.39-36.26 50.73-54.5 85.81-41.84a0.38 0.38 0 0 1 0.02 0.71q-19.56 8.18-36.11 21.46-0.28 0.22 0.02 0.41 0.23 0.15 0.45 0.01c12.96-8.36 30.31-19.66 45.45-20.41 25.41-1.28 35.94 22.94 37.38 44.23q1.43 21.05-9.15 38.44-3.22 5.3-1.25-0.58 3.04-9.05 7.96-21.03 1.37-3.35 0.63-7.22c-0.54-2.84-2.73-5.59-3.33-8.17q-3.9-16.61-14.2-30.21a0.44 0.44 0 0 1 0.57-0.65l6.17 3.66q0.93 0.55 0.19-0.24z" />
        </g>
        <g id="visage">
            <path class="peau" d="m101.29 119.42q0.13 0.06 0.29 0.1 0.18 0.06 0.37 0c18.52-6.21 18.3 23.89 36.26 24.83 3.75 0.19 6.85 2.29 9.47 4.44a1.19 1.19 0 0 1-1.14 2.04c-5-1.74-14.33-6.17-18.86-3.13a2.58 2.57 49.1 0 1-3.15-0.23q-7.18-6.51-13.12-14.16-0.47-0.6-0.54 0.16-0.06 0.61-0.39 1.01-0.29 0.36-0.93 0.5-16.75 3.61-22.03 4.26c-8.34 1.02-15.26-4.88-13.73-13.44 4.21-23.55 31.68-35.94 31.51-59.04-0.02-3.21-0.55-5.01 1.23-7.74q5.16-7.89 10.92-15.33a0.65 0.65 0 0 1 0.83-0.18l0.47 0.25q0.7 0.37 0.8-0.41c1.63-11.9 5.04-17.27 17.65-10.95q0.34 0.17 0.58 0.1 0.15-0.05 0.27-0.15 0.25-0.25-0.01-0.48l-2.88-2.52a0.56 0.56 0 0 1 0.08-0.91q12-7.28 25.56-5.51c8.66 1.13 17.88 26.4 19.47 33.73a1.43 1.42-19.7 0 1-0.75 1.58l-3.35 1.68a0.32 0.32 0 0 0 0.22 0.59c7.31-1.85 8.58 4.73 6.6 9.88q-5.02 13.09-10 26.2a0.72 0.71 30.7 0 0 0.21 0.8l2.14 1.81a0.46 0.46 0 0 1-0.23 0.8q-8.35 1.08-16.73 0.67a0.98 0.97 33.4 0 1-0.38-1.85l5.38-2.61q0.46-0.22 0.69-0.67c3.37-6.45 6.53-9.65 6.37-17.55-0.09-4.65 3.41-7.82 7.21-9.85q0.71-0.38 0.75 0.43l0.15 3.34q0.04 0.77 0.44 0.12c1.12-1.81 2.23-6.17-0.38-7.35q-1.35-0.61-2.35 0.33-5.35 5.07-10.41 11.79a0.6 0.6 0 0 1-1.06-0.52l1.26-4.7a0.27 0.26-25.9 0 0-0.5-0.17c-3.46 7.85-10.76 20.34-9.8 28.69q0.06 0.46-0.24 0.83-2.6 3.18-5.7 2.54-7.01-1.46-13.66-1.83a0.97 0.97 0 0 1-0.42-1.81c7.62-4.38 10.08-12.59 13.54-20.32a0.43 0.43 0 0 1 0.73-0.09l1.99 2.55a1.56 1.56 0 0 0 2.71-0.46q1.67-4.98 1.53-10.22a0.28111 0.28111 0 0 0-0.56-0.05l-1.52 8.09q-0.36 1.9-1.84 0.41-0.49-0.49-1.05-2.24c-2.77-8.69-8.89-34.24-17.81-38.04-4.77-2.03-7.39 3.87-7.78 7.62a0.49 0.49 0 0 0 0.93 0.27c1.38-2.77 3.91-6.98 7.33-2.82q6.56 7.96 9.54 17.92a1.31 1.28 52.8 0 1-0.13 1.05q-8.48 14.08-9.95 30.5-0.09 1-0.83 0.32-4.81-4.48-9.39-8.8c-2.5-2.36-4.2-5.54-6.6-8.07q-0.37-0.39-0.86-0.41-0.45-0.01-0.19 0.35l4.07 5.78a0.48 0.48 0 0 1-0.51 0.74l-4.4-1.08q-0.46-0.11-0.35 0.36 0.03 0.13 0.1 0.24 0.07 0.1 0.21 0.15c7.43 2.59 19 9.82 19.34 18.71a1.27 1.24 64.3 0 1-0.29 0.86c-2.5 3-5.31 5.35-9.5 5.57-12.15 0.64-23.75-1.1-32.69 9.29q-0.62 0.73-0.72 1.34a0.21 0.2-18.7 0 0 0.35 0.17c10.15-10.62 22.36-9.29 35.86-8.99q0.51 0.01 0.43 0.51c-2.01 12.49 3.07 22.17 11.03 31.2a0.44 0.44 0 0 1-0.41 0.72c-6.36-1.32-9.36-4.63-13.44-10.27-6.16-8.52-11.7-18.65-23.31-13.73a0.25 0.25 0 0 0 0 0.46z" stop-color="#000000" style="-inkscape-stroke:none;font-variation-settings:normal" />
            <path class="oeil droite" d="m140.38 83.6a0.58 0.58 0 0 0-1-0.21l-3.27 3.95a0.31 0.31 0 0 1-0.54-0.22c0.43-7.16 4.53-15.6 8.39-21.63a0.58 0.58 0 0 1 0.99 0.02c2.39 4.15 4.46 9.76 2.82 14.58q-2.48 7.26-6.18 14.15a0.68 0.68 0 0 1-1.26-0.51q1.45-5.09 0.05-10.13z" />
            <path class="oeil gauche" d="m160.81 89.72-1.78 0.04q-0.72 0.01-0.46-0.65c2.13-5.36 3.85-10.6 9.83-12.69q1.15-0.4 1.17 0.82 0.1 10.4-6.96 17.85-1.57 1.66-1.43-0.62l0.26-4.09a0.62 0.62 0 0 0-0.63-0.66z" />
            <path id="nez" d="m154.67 108.09-2.73-2.87q-0.47-0.5 0.17-0.75 2.45-0.96 5 0.09 0.32 0.14 0.56-0.11l0.21-0.2a0.34 0.33-47.8 0 0-0.02-0.49l-1.38-1.16q-0.95-0.8 0.29-0.76c10.86 0.35 19.43-0.46 28.5 0.35 18.47 1.67 24.41 22.16 15.43 36.15-7.28 11.36-20.55 14.96-33.66 14.01q-18.8-1.36-30.45-14.83c-6.84-7.89-15.07-29.39 0.75-33.66 6.08-1.64 12.26 0.52 16.9 4.67a0.31 0.31 0 0 0 0.43-0.44z" />
        </g>
        <g id="barbe">
            <path d="m103.82 64.857a0.68 0.68 0 0 0-0.49805 0.23242c-9.89 11.34-18.041 23.711-34.551 25.461a0.95 0.94 66.5 0 0-0.60938 1.5586c1.7733 2.06 4.0532 2.9282 6.8398 2.6016a0.33144 0.33144 0 0 1 0.13086 0.64844c-7.3467 2.1533-12.867 6.6049-16.561 13.352a1.19 1.19 0 0 0 1.6602 1.5996l3.1797-1.8809a0.28 0.27 0.4 0 1 0.37891 0.38086c-3.85 6.14-12.719 19.76-10.119 27.24a0.86 0.87 53.4 0 0 1.5195 0.21875l3.8809-5.3887c0.44-0.60667 0.58612-0.54388 0.43945 0.18945-1.69 8.58-3.1002 18.39 3.5898 24.43a1.13 1.13 0 0 0 1.3398 0.13086c6.45-3.88 14.72-7.6015 22.24-7.2715 8.43 0.36999 11.92 8.2506 11.57 15.641-0.36667 7.8467-1.0333 17.094-2 27.74-0.05333 0.58 0.37263 1.4257 1.2793 2.5391 0.24667 0.29333 0.44008 0.26349 0.58008-0.0899 0.4-0.96666 0.95659-1.8597 1.6699-2.6797 0.39333-0.46 0.51776-0.39722 0.37109 0.18945-2.34 9.1333-2.0838 18.168 0.76953 27.102a1.54 1.22 86.3 0 0 0.86914 0.95899c0.11334 0.04 0.22341-0.0763 0.33008-0.34961 1.2133-3.0267 1.7668-6.1635 1.6602-9.4102-7e-3 -0.15333 0.0612-0.19753 0.20117-0.13086 0.08 0.04 0.15208 0.10164 0.21875 0.18164 0.0733 0.1 0.11133 0.24302 0.11133 0.42969 0.14 14.67 5.1802 31.12 15.49 42.07a0.49 0.49 0 0 0 0.84961-0.30078c0.34-3.9933-0.28443-7.8298-1.8711-11.51-0.0267-0.06-0.0391-0.11968-0.0391-0.17968 7e-3 -0.1 7e-3 -0.20698 0-0.32032-0.06-0.52666 0.0439-0.52976 0.31055-0.01 14.32 28.24 45.349 51.249 77.949 49.379 4.3533-0.24667 8.3595-0.99667 12.02-2.25a1.37 1.37 0 0 0-0.2793-2.6602l-8.3008-0.98828a0.25 0.25 0 0 1 0.01-0.49024c17.753-1.24 34.497-6.0877 50.23-14.541 2.8733-1.54 5.4567-3.4299 7.75-5.6699a0.68 0.68 0 0 0-0.01-0.97071c-0.32-0.30666-0.76651-0.52487-1.3398-0.6582-8.5867-2.06-17.176-4.1135-25.77-6.1602a1.18 1.15 45.6 0 0-0.5-0.01c-0.80667 0.16666-1.5679 0.0926-2.2812-0.22071a0.26 0.26 0 0 1 0.0801-0.5c2.83-0.33 9.1711-0.14937 11.121-1.8594 1.2867-1.1333 1.0994-1.9151-0.56055-2.3418-8.8267-2.2867-16.264-6.8433-22.311-13.67a1.04 1.04 0 0 0-1.3398-0.18945c-4.2 2.7-8.2186 5.4973-12.059 8.3906-7.03 5.29-12.241 18.899-23.631 14.189-15.39-6.35-22.48-22.859-27.27-37.449-0.10667-0.33334-0.31443-0.58024-0.6211-0.74024-2.95-1.6-5.6487-2.94-7.8887-5.5-3.46-3.9895-7.2008-11.26-12.051-12.82-2.22-0.71-11.101-0.90078-12.971-4.0508-2.47-4.15-0.48953-8.3183 2.9805-11.238 4.5-3.7733 9.7706-4.4482 15.811-2.0215 0.35334 0.14 0.55914 0.0206 0.61914-0.35937 0.33-2.05-0.65-4.1798-0.75-5.5898-0.36-4.8467 1.5063-8.4032 5.5996-10.67a0.98 0.98 0 0 0-0.32812-1.8301c-1.4133-0.22-2.7374-0.40721-3.9707-0.56054-9.08-1.11-11.86-7.0704-13.6-15.15-0.0733-0.32667-0.2307-0.59836-0.4707-0.81836-3.8667-3.54-7.414-7.3702-10.641-11.49-0.71334-0.91333-1.5591-1.6777-2.5391-2.291a1.35 1.35 0 0 0-0.9707-0.17969c-1.91 0.33-3.8504 0.15906-5.6504 0.53906-6.84 1.42-15.849 4.2016-21.889 3.4316-11.29-1.45-12.27-12.181-9.1699-21.221 3.49-10.2 11.159-18.099 17.809-26.199 7.73-9.42 11.721-15.921 12.641-27.211a0.68 0.68 0 0 0-0.69141-0.73242zm47.215 85.668c-0.235 0.02-0.47599 0.0884-0.72265 0.20508a0.58 0.58 0 0 0 0 1.0488c6.18 2.95 10.26 4.0107 12.25 11.221a1.08 1.07 0.5 0 0 0.72851 0.74023c4.6 1.3067 8.1473 3.9826 10.641 8.0293a1.62 1.58 83.8 0 0 0.80078 0.66016c6.26 2.33 7.1395 6.1395 9.5195 11.689 0.14 0.33333 0.36635 0.59149 0.67969 0.77148 1.78 1 3.6905 1.5988 5.7305 1.7988a1.13 1.14 83.9 0 0 1.1894-1.4688c-1.5867-5.0667-3.739-9.8702-6.459-14.41a0.29 0.29 0 0 1 0.43946-0.3711l3.75 3.2305a0.75 0.75 0 0 0 1.2305-0.66992c-0.94-7.2133-3.8536-13.493-8.7402-18.84a0.91 0.91 0 0 0-0.76953-0.29102c-10.133 1.1667-19.993 0.0802-29.58-3.2598-0.22333-0.0767-0.4525-0.10399-0.6875-0.084z" stop-color="#000000" style="-inkscape-stroke:none;font-variation-settings:normal" />
        </g>
        <g id="mains">
            <path class="main gauche" d="m153.5 217.26v1.22q0 0.63-0.63 0.54c-9.33-1.29-9.85-9.36-15.46-14.66-3.5-3.3-8.13-3.81-12.79-4.29-13.05-1.36-1.78-19.96 13.08-13.3 4.83 2.16-0.68 16.19 11.7 15.47q0.53-0.03 0.65 0.49c1.97 8.7 11.41 4.39 14.58-0.34q0.58-0.85 2.57-6.58 1.36-3.93 3.85-7.46a0.38 0.38 0 0 0-0.52-0.53c-6.74 4.56-3.91 14.54-12.33 18.13-4.75 2.02-6.6-1.52-6.89-5.67q-0.73-10.65-0.57-14.78c0.29-7.29 6.39-8.42 12.24-9.72a0.6 0.6 0 0 0-0.11-1.18c-7.03-0.23-14.19 4.26-13.44 12.41q0.58 6.24 0.09 12.33a1.49 1.48 3.7 0 1-1.57 1.37c-6.15-0.36-6.84-9.82-7.67-14.45-1.48-8.2-2.74-14.48 6.16-17.54 7.6-2.61 18.86-6.35 24.72 1.43q0.53 0.71 0.49 1.29-0.07 0.8-0.97 1.15a0.46 0.46 0 0 0 0.14 0.88c13.15 0.85 13.05 16.46 11.9 26.28a0.64 0.63 10.6 0 0 0.47 0.68l1.14 0.29q0.56 0.15 0.77 0.69l6.09 16.12q0.51 1.33-0.88 1.67c-3.34 0.81-10.53 3.2-13.67 2.06q-0.5-0.18-0.92 0.14c-7.85 5.99-16.05 2.34-21.78-4.3q-0.44-0.51-0.44 0.16zm-19.46-69.11c6.61 1.87 25.17 5.8 26.67 13.69a1.3 1.29 77.4 0 1-0.95 1.5l-13.21 3.42a0.94 0.98 54.3 0 1-0.76-0.11l-1.69-1.07a0.87 0.86 58.6 0 0-0.52-0.13c-7.55 0.35-15.81-4.18-16.36-12.28-0.3-4.41 2.87-6.13 6.82-5.02z" stop-color="#000000" style="-inkscape-stroke:none;font-variation-settings:normal" />
        </g>
        <g id="manteau">
            <path class="tissu" d="m86.729 150.27c-0.59836-2e-3 -1.2309 0.0337-1.8984 0.10742-19.98 2.2-30.65 15.009-34.59 33.949a0.46 0.46 0 0 1-0.91016-0.0703l-0.11914-1.8692a1.12 1.13 70.4 0 0-1.7812-0.83984c-6.7267 4.82-13.554 9.7851-20.48 14.898-4.36 3.22-3.3596 5.5-4.8496 10-1.55 4.67-0.2593 11.902 0.4707 16.762a1.28 1.24 58.2 0 1-0.20117 0.9082c-3.83 5.61-8.1999 10.691-10.67 17.131-2.71 7.05 13.781 12.739 18.361 13.529 2.25 0.39 3.7403-0.49868 5.3203-1.8887 6.4-5.64 13.436-10.351 21.109-14.131 1.2467-0.61334 3.4133-2.5928 6.5-5.9395 1.67-1.82 8.6398-5.1302 6.8398-8.1602-0.48-0.79334-1.1261-0.9662-1.9395-0.51954l-23.41 12.84c-0.34 0.18-0.42023 0.0998-0.24024-0.24024 0.28-0.52666 0.62883-0.93093 1.0488-1.2109 14.75-9.95 31.552-18.269 44.432-31.949a0.3 0.29 81.6 0 1 0.46875 0.34961l-2.1094 3.6504c-0.28 0.49333-0.14008 0.72278 0.41992 0.68945 1.0733-0.06 2.0291-0.40263 2.8691-1.0293a0.47 0.46 55 0 1 0.65039 0.11915c0.33333 0.49333 0.11008 0.93364-0.66992 1.3203-6.2 3.1067-11.909 6.9636-17.129 11.57-2.1067 1.8533-2.9245 4.2041-2.4512 7.0508 0.05333 0.34 0.24984 0.54271 0.58984 0.60938 1.14 0.21333 2.1873 0.23698 3.1406 0.0703 0.43333-0.0733 0.76667 0.0367 1 0.33008 0.25333 0.31333 0.1824 0.50984-0.21094 0.58984-4.86 0.98-9.2057 3.0222-13.039 6.1289a0.43 0.43 0 0 0 0.35938 0.75c5.73-1.2 9.6898-3 14.84 0.5 8.8267 6.0067 19.665 13.628 32.512 22.861 7.33 5.27 14.29 8.0896 23.42 8.3496a0.74 0.74 0 0 0 0.59961-1.2012l-11.861-14.799c-0.37333-0.46-0.67177-0.41776-0.89844 0.12891l-0.48047 1.1816a1.64 1.64 0 0 1-2.541 0.64844c-10.12-8.14-11.97-19.368-16.09-30.738-0.11334-0.32-0.32844-0.53396-0.64844-0.64063-6.46-2.13-5.2307-20.59-5.2207-24.76 0.01-2.49-2.1105-3.7001-2.0605-6.5801 0.12-8.1667 0.53357-16.321 1.2402-24.461 0.66562-7.6969-0.71599-15.965-9.6914-15.996zm104.25 12.217a0.76 0.76 0 0 0-0.98047 0.99024c1.26 3.15 3.3405 9.26 0.81055 12.25-0.25334 0.3-0.30992 0.63333-0.16993 1l3.1192 7.8398a0.62 0.6 75 0 0 0.64062 0.37891l10.24-1.3984a0.63 0.63 0 0 1 0.26954 1.2188l-10.93 3.3809a1.75 1.74 66.4 0 0-0.99024 2.5391c1.0467 1.8 1.6804 3.1147 1.9004 3.9414 0.81334 3.0467 0.39357 3.1959-1.2598 0.44922-1.9-3.1467-4.3516-5.7928-7.3516-7.9395a0.81 0.81 0 0 0-1.2793 0.64844c-0.01 3.81-0.5607 7.5905 1.0293 11.23 5.76 13.19 9.6007 23.081 7.9707 36.211-1.56 12.56-14.651 19.49-22.801 7.2598a0.35231 0.35231 0 0 1 0.55078-0.43945c5.59 5.81 14 7.9688 18.07-0.95117 2.8133-6.1733 3.3606-12.39 1.6406-18.65-0.33334-1.1867-1.1008-1.6301-2.3008-1.3301-5.08 1.27-10.731 1.531-15.371 3.541-6.4733 2.8-12.42 1.7702-17.84-3.0898a0.71 0.71 0 0 0-1.1484 0.32031c-0.12 0.39334-0.1045 0.83675 0.0488 1.3301 2.87 9.25 7.4212 18.749 13.951 25.979 7.69 8.52 18.6 12.921 26.66 1.791 4.14-5.7133 6.2264-11.57 6.2598-17.57 0.02-4.9533 0.41302-4.9832 1.1797-0.0898 0.3 1.9133 0.13643 4.723-0.49023 8.4297-0.24667 1.46 0.20604 1.7305 1.3594 0.81054 5.5667-4.44 10.454-8.3896 14.66-11.85 4.98-4.09 23.901-21.651 18.781-28.971-3.7933-5.42-7.8282-9.7173-12.102-12.891-0.30667-0.23334-0.44969-0.54303-0.42969-0.92969l0.65042-10.68a2.17 2.17 0 0 0-1.3906-2.1602zm-120.58 73.994c-0.63609-0.0416-1.3227 0.0652-2.1289 0.3164-14.24 4.46-26.299 11.44-35.719 23.01a1.23 1.24 23.6 0 0 0.7793 2c11.43 1.66 20.52-0.20148 30.34 7.9785 4.06 3.38 8.0538 6.9006 11.98 10.561a1.51 1.52 31 0 0 2.4688-0.61914c2.18-6.38 3.1904-13.24 5.6504-19.68 0.09333-0.23333 0.30109-0.3845 0.62109-0.45117a0.36 0.36 0 0 1 0.42969 0.42969c-1.5067 6.42-3.0365 12.824-4.5898 19.211-0.47333 1.9467-1.3241 3.173-2.5508 3.6797a1.29 1.29 0 0 1-1.1895-0.0996c-6.85-4.28-11.17-10.841-18.6-14.291-4.13-1.92-18.58-6.4102-22.33-2.7402-7.3533 7.2067-12.008 15.888-13.961 26.041-0.92 4.78-0.5396 11.519 5.1504 12.199 13.12 1.55 23.53 1.7705 34.25 10.23 9.47 7.48 21.55 18.891 34.01 28.211 4.61 3.45 12.991 5.8891 18.391 3.8691 0.31333-0.12 0.56333-0.31961 0.75-0.59961 0.84667-1.2933 1.2366-2.6267 1.1699-4-0.32-6.65-0.73054-12.49 0.43946-18.35 0.81999-4.08 1.1111-8.1901 2.3711-11.83 2.85-8.22 7.0398-15.751 10.59-23.691a0.52 0.52 0 0 0-0.33008-0.70898c-2.87-0.89-5.7109 2.2991-6.8808 4.1191-3.88 6.0333-7.7494 12.081-11.609 18.141a0.22148 0.22148 0 0 1-0.40039-0.18946c2.8267-8.32 7.2371-15.671 13.23-22.051a1.11 1.11 0 0 0-0.16016-1.6602c-2.72-1.94-2.4803-5.3098-3.3203-8.2598a1.05 1.03 3.1 0 0-0.61914-0.67969c-9.4333-3.7267-17.558-9.3398-24.371-16.84-6.61-7.27-13.11-15.641-20.76-21.801-1.1187-0.90625-2.0414-1.3857-3.1016-1.4551zm83.301 44.086c-4.45 1.09-8.4192 2.0699-8.4492 7.6699-0.07 14.38 0.39039 30.01 4.6504 43.83 1.83 5.93 7.13 16.2 14.5 8.2598 4.5533-4.9067 9.6398-9.1299 15.26-12.67a1.45 1.45 0 0 0 0.42968-2.041c-2.64-3.86-6.3104-7.3384-8.4004-10.818-4.02-6.6667-6.5169-13.914-7.4902-21.74-0.48-3.95 0.16015-7.7409-4.5898-8.9609a1.14 1.13 6.3 0 0-1.4199 1.1309l0.59961 16.73a0.3 0.31 24 0 1-0.53906 0.20898c-0.23333-0.29333-0.36086-0.62357-0.38086-0.99023-0.31-5.72-0.46891-15.32-3.3789-20.27a0.72 0.71 68 0 0-0.79101-0.33985z" />
            <path class="patch gauche" d="m227.51 177c8.78 3.09 12.87 14.58 11.84 22.81q-0.12 0.93-0.67 0.17-3.17-4.41-6.73-8.18c-1.34-1.41-3.12-1.97-4.73-2.85a2.23 2.21 25.3 0 1-1-2.77q1.69-4.2 0.71-8.66-0.17-0.78 0.58-0.52z" />
            <path class="patch droite" d="m11.17 236.35-1.43 5.67q-0.19 0.75-0.66 0.14c-6.8-8.91-7.62-20.96-0.26-29.85q5.39-6.5 11.75-11.73a0.49 0.48-12 0 1 0.78 0.5l-2.44 8.62q-0.12 0.41 0.03 0.82 1.41 3.77-0.14 7.57-0.18 0.44 0.17 0.76 1.7 1.62 2.15 3.92 0.12 0.58-0.26 1.03l-8.45 10.11q-0.9 1.08-1.24 2.44z" />
            <path class="boucle" d="m123.44 283.81c-4.12-2.34-0.67-11.61 0.73-15.26q0.2-0.51 0.73-0.39l5.12 1.16q0.73 0.17 0.47 0.87-1.37 3.67-0.92 7.61 0.05 0.49 0.45 0.78c2.4 1.77 11.92-0.6 14.88-1.36 2.89-0.74 4.59-0.07 6.7 1.69q0.42 0.34-0.09 0.53c-6.26 2.37-22.06 7.79-28.07 4.37z" />
        </g>
        <g id="pantalon">
            <path class="tissu" d="m141.94 284.73c-4.38 0.85-9.3888 0.96899-11.969 5.459-6.9267 12.06-11.018 24.741-12.271 38.041-0.11333 1.18 0.0409 2.2191 0.46094 3.1191 0.16 0.34667 0.42239 0.47109 0.78906 0.37109 6.04-1.5867 11.668-4.0805 16.881-7.4805a0.29 0.29 0 0 1 0.36914 0.43946c-3.52 3.64-7.6518 6.3632-12.398 8.1699a0.64 0.65 46.9 0 0-0.041 1.1894l6.6894 3c0.24 0.10667 0.32838 0.29078 0.26172 0.55078-0.0333 0.12-0.095 0.21263-0.18164 0.2793-0.12667 0.0867-0.30573 0.0917-0.53907 0.0117-3.12-1-6.2796-2.141-9.3496-3.291a2.22 2.23 12.7 0 0-2.9902 1.9004c-0.32667 3.9-1.1271 7.7159-2.4004 11.449a1.43 1.41 44.7 0 0 0.01 0.94141c1.7933 4.6933 4.2038 9.0453 7.2305 13.059a0.45 0.45 0 0 1-0.30078 0.72071l-1.0801 0.15039c-0.48 0.06-0.75365 0.32859-0.82032 0.80859-0.95333 6.8-0.18588 13.377 2.3008 19.73a1.18 1.21 3.2 0 0 0.55078 0.63086l10.639 5.75c0.37333 0.2 0.76015 0.22364 1.1602 0.0703 1.3733-0.52666 2.6943-1.4135 3.9609-2.6602 6.37-6.24 15.179-15.021 23.949-19.191a2.93 2.93 0 0 0 1.5898-3.3691c-1.06-4.22-2.8902-8.5793-2.4902-12.779 0.18-1.88 0.29823-3.8017 0.35156-5.7617a0.58 0.58 0 0 0-0.58008-0.58984c-15.69-0.12-17.511-26.14-17.781-38.02-0.17333-7.4133-0.53031-14.74-1.0703-21.98a0.79 0.79 0 0 0-0.92969-0.71875zm-100.87 23.789a0.9 0.9 0 0 0-1.0898 0.84961c-0.5 19.42 4.8095 35.122 12.939 52.842a0.27 0.25 60.6 0 1-0.08008 0.31836l-0.25977 0.1914c-0.34 0.25334-0.55086 0.1731-0.63086-0.24023-0.15333-0.72667-0.54635-1.2205-1.1797-1.4805-0.57333-0.24-0.85318-0.0497-0.83984 0.57031l0.33008 13.83a1.12 1.12 0 0 0 1.5293 1.0195c19.04-7.44 31.481 1.5206 42.721 16.141a0.8 0.8 0 0 0 1.4004-0.28125c2.5067-9.4 2.9202-18.892 1.2402-28.479a0.51 0.51 0 0 0-0.91016-0.2207l-2.0605 2.7305a0.28 0.28 0 0 1-0.5-0.23047l4.1895-17.391c0.17333-0.71333-0.03248-1.2967-0.61914-1.75-9.9733-7.62-19.887-15.529-29.74-23.729-9.39-7.83-15.719-12.371-26.439-14.691zm109.3 39.85a0.05 0.05 0 0 1 0.0606 0.0215l4.4199 8.0293a0.05 0.05 0 0 1-0.0195 0.0703l-0.041 0.0195a4.43 2.83 61.2 0 1-4.6094-2.5195l-0.19922-0.34961a4.43 2.83 61.2 0 1 0.34961-5.25zm-90.09 3.0156a0.57 0.57 0 0 1 0.48047 0.21484c4.05 5.33 12.03 19.42 19.99 9.9297 0.54667-0.65334 1.1742-0.79016 1.8809-0.41016 0.28667 0.15333 0.34326 0.37039 0.16992 0.65039-9.92 16.15-19.362-1.5598-23.012-9.5898a0.57 0.57 0 0 1 0.49024-0.79492z" />
        </g>
        <g id="chaussures">
            <path class="tissu" d="m74.56 419.93q-0.07-0.11-0.16-0.24-0.06-0.09-0.17-0.15-21.94-10.87-46.13-7.65a0.67 0.67 0 0 1-0.66-1.01c12.46-20.54 40.68-20.52 58.44-6.7a0.32175 0.32175 0 0 0 0.45-0.46q-0.16-0.2-0.39-0.4-17.02-14.63-39.82-9a1.01 1 85.2 0 1-1.24-1.05c1.67-22.28 27.22-20.09 39.46-9.24 3.44 3.05 7.86 7.87 11.29 12.07a0.69 0.69 0 0 0 1.2-0.26l3.6-13.62a0.59 0.59 0 0 1 0.85-0.37c6.46 3.52 3.17 14.57 0.57 19.69q-0.34 0.67 0.39 0.5 2.11-0.49 2.6 1.75c1.96 9.02 1.58 15.51-5.94 21.42a0.86 0.86 0 0 1-1.34-0.96q0.22-0.62-0.24-1.11-0.31-0.33-0.4 0.12c-2.71 13.59-6.67 22.32-20.44 26.89q-13.37 4.43-28.08 3.61a0.33 0.33 0 0 1-0.22-0.57l0.87-0.87a0.27 0.27 0 0 0-0.28-0.45c-11.78 3.99-22.88 7.61-34.19 3.1-4.72-1.88-7.14-7.13-3.1-11.25 6.23-6.34 15.34-7.15 23.71-8.43a0.25 0.25 0 0 0 0-0.5c-11.13-1.59-18.89 2.82-26.88 10a0.63 0.63 0 0 1-0.83 0.01q-3.13-2.72-4.03-7.05c-1.72-8.29 1.79-13.31 8.83-17.63 17.93-11 43.64-7.65 62.15-0.04q0.29 0.12 0.13-0.15zm46.71-28.01c-2.87-2.96-6.92-6.72-8.01-10.32-0.88-2.9-0.71-9.28 3.79-9.11a0.79 0.78 83.5 0 1 0.73 0.59l1.47 5.72q0.12 0.46-0.22 0.8l-0.43 0.43q-0.28 0.27-0.07 0.6c3.1 4.9 13.47 14.3 19.19 9.36q9.4-8.11 19.01-15.99c5.09-4.18 10.03-6.52 16.39-3.37q7.49 3.71 11.79 11.88 1 1.9-1.11 2.32-7.57 1.5-14.1 5.57a0.25 0.26 59.2 0 0-0.09 0.34q0.09 0.16 0.24 0.2 0.1 0.02 0.23-0.05c8.77-4.3 23.98-6.81 32.6-0.86a0.52 0.52 0 0 1-0.19 0.93q-6.64 1.48-12.93 4.08-0.25 0.11-0.36 0.33-0.26 0.5 0.29 0.34c11.79-3.46 35.47-5.74 44.2 5.99q0.34 0.45-0.2 0.61l-7.81 2.3a0.20304 0.20304 0 0 0 0.07 0.4c8.5-0.59 14.56-1.47 22.68 1.99 12.51 5.35 2.53 15.42-5.21 17.39q-11.02 2.81-22.35 0.92a0.31 0.31 0 0 0-0.15 0.6l5.69 1.84a0.31 0.31 0 0 1 0.07 0.56c-12.36 7.4-26.98 6.11-40.41 2.33q-21.87-6.14-43.05-14.42a0.21 0.21 0 0 0-0.28 0.26q0.05 0.13 0.09 0.25 0 0.02 0.03 0.03l2.28 1.28q0.99 0.56-0.14 0.62-13.77 0.76-24.92-3.95c-10.45-4.42-7.48-16.78-2.8-24.08q0.31-0.48 0.78-0.16l2.78 1.95a0.33 0.33 0 0 0 0.43-0.5z" />
        </g>
    </g>
</svg>