<svg version="1.1" height="152" viewBox="0 0 357 459" xmlns="http://www.w3.org/2000/svg">
    <style>
        /* COMMUN À TOUS LES NAINS */
        .nain {
            --silhouette: #000;
            --peau: #f8d5be;
            --peau2: #f89290;
            --barbe: #fcfbfb;
            --yeux: #fcfbfb;
            --dorure: #e9bc2b;
        }
        /* SPÉCIFIQUE À JOYEUX */
        #joyeux {
            --chapeau: #fd8d46;
            --manteau: #78401b;
            --pantalon: #32a0bb;
            --chaussures: #d9a27c;
            --patch: #d59b76;
            --manches: #fd8d46;
            --bouche-fond: #722222;
            --pupilles: #32a0bb;
        }

        #silhouette,
        .silhouette {
            fill: var(--silhouette);
        }

        #chapeau {
            fill: var(--chapeau);
        }

        #barbe {
            fill: var(--barbe);
        }

        .peau {
            fill: var(--peau);
        }

        .oeil {
            fill: var(--yeux);
        }

        .sourcil {
            fill: var(--barbe);
        }

        .sourcil.silhouette {
            fill: var(--silhouette);
        }
        .pupille {
            fill: var(--pupilles);
        }

        #bouche .langue {
            fill: var(--peau2);
        }

        #bouche .fond {
            fill: var(--bouche-fond);
        }

        #manteau .tissu {
            fill: var(--manteau);
        }

        #manteau .manche {
            fill: var(--manches);
        }

        #manteau .patch {
            fill: var(--patch);
        }

        #pantalon {
            fill: var(--pantalon);
        }

        #chaussures {
            fill: var(--chaussures);
        }

        #nez {
            fill: var(--peau2);
        }

        .paupiere {
            fill: var(--peau2);
        }

        .dorure, .bouton, .boucle {
            fill: var(--dorure);
        }

        .main {
            fill: var(--peau);
        }
    </style>
    <g id="joyeux" class="nain">
        <path id="silhouette" class="silhouette" d="m155.28 0.38086c-1.4658-0.094167-2.9762-0.054193-4.5312 0.11914-33.79 3.77-66.96 33.151-69.82 67.551-0.1 1.2467-0.33565 2.1335-0.70898 2.6602-4.7333 6.72-8.2601 13.992-10.58 21.818-1.14 3.83-1.3102 8.3102-1.9102 12.41-0.12667 0.88-0.57318 1.5405-1.3398 1.9805-11.26 6.47-19.021 13.64-20.271 27.33a0.97 0.99 4 0 1-1.0098 0.89062c-4.86-0.20999-10.119-0.39062-14.719 1.1094-14.01 4.59-28.59 17.11-29.59 32.99-1.23 19.64 10.189 32.37 25.959 41.99 1.0933 0.66666 1.8875 1.7388 2.3809 3.2188 0.10667 0.33333 0.02333 0.60388-0.25 0.81055-6.09 4.55-5.5099 10.711-2.1699 16.961a0.92 0.93 46.1 0 1-0.02148 0.92969c-1.6333 2.76-2.6066 4.6263-2.9199 5.5996-2.99 9.37 9.0614 17.331 16.691 18.881 5.9533 1.2133 11.733 1.0261 17.34-0.56055a0.62 0.62 0 0 1 0.58008 1.0703c-5.5067 4.7333-10.98 9.4268-16.42 14.08-4.17 3.56-5.0301 11.78-2.8301 16.5 3.49 7.47 16.449 17.46 24.299 18.85 1.04 0.18 2.201 1.6198 2.541 2.7598 6.16 20.74 17.74 35.751 30.65 52.551 1.3933 1.82 2.7453 4.0588 4.0586 6.7188 3.74 7.5467 8.6237 14.18 14.65 19.9a0.93 0.94 46.5 0 1-0.0391 1.4004c-3.93 3.31-9.3112 7.9998-4.5312 13.26a1.03 1.03 0 0 1-0.13867 1.5098c-4.24 3.27-7.0706 4.4509-12.891 6.2109-10.51 3.19-28.689 12.06-28.439 25.17 0.12 6.31 5.02 8.31 8.25 12.75 7.66 10.52 18.769 9.8495 30.619 6.7695 6.32-1.65 14.03-0.94094 20.57-0.96093 10.293-0.04 20.37-1.5257 30.23-4.459 16.25-4.83 23.92-13.2 24.58-30.24 0.06-1.48 0.69969-2.4706 0.67969-4.0606-0.04-3.2933 0.7038-6.4127 2.2305-9.3594 5.53-10.64 11.298-22.18 2.8281-33.26-0.18-0.23333-0.27263-0.50078-0.27929-0.80078-0.16-5.2667-2.7402-8.6062-7.7402-10.02a1.48 1.48 0 0 1-0.87891-0.65039c-1.17-1.83-2e-3 -3.0402 1.8984-3.4102 13.33-2.55 26.091-10.129 37.201-17.639 10.03-6.77 18.86-15.361 27.08-24.381a0.35 0.35 0 0 1 0.59961 0.18945c0.36667 3.4133 1.4562 6.6098 3.2695 9.5898 1.92 3.16 0.58071 6.4297 1.4707 9.6797 2.7933 10.227 8.817 15.134 18.07 14.721 11.62-0.52 21.37-8.6399 26.67-18.84 2.18-4.18 4.4998-10.159 8.0898-13.119 2.98-2.46 6.1202-4.2506 9.6602-7.1406 1.5067-1.2267 3.2032-2.2864 5.0898-3.1797 18.78-8.91 41.18-26.22 32.76-50.23-1.3-3.71 6.6792-7.3495 3.1992-14.77-4.85-10.37-20.598-8.0398-28.988-4.0098-1.3933 0.67334-2.8182 1.2784-4.2715 1.8184-3.38 1.26-7.1501 0.49039-10.83 1.6504a0.84 0.84 0 0 1-1.0586-1c1.9-7.5467 0.62945-14.133-3.8106-19.76-1.65-2.1-4.4799-1.939-3.6699-5.959a1.65 1.66 38 0 0-0.12109-1c-1.92-4.1867-4.9262-6.8832-9.0195-8.0898-7.33-2.15-14.639 2.9487-22.039 1.6387-7.6533-1.3533-15.084-0.35953-22.291 2.9805a0.82 0.82 0 0 1-1.1504-0.91016c0.44-2.09 1.2207-3.5502 3.2207-4.6602 15.74-8.77 29.08-26.05 23.25-45.35-3.15-10.39-14.041-18.13-24.391-20-13.427-2.4267-26.615-1.1592-39.568 3.8008-0.44 0.16667-0.74039 0.0298-0.90039-0.41016-1.7133-4.8067-4.4068-8.9815-8.0801-12.521a1.22 1.23 24.8 0 1-0.36133-1c0.24667-2.5133-0.41185-4.7222-1.9785-6.6289-0.24666-0.30666-0.27341-0.6307-0.0801-0.9707 3.12-5.42 4.7793-10.339 7.5293-17.189 11.42-28.42-6.1499-56.97-34.09-65.43-5.72-1.7267-11.407-2.1732-17.061-1.3398a0.76 0.76 0 0 1-0.78906-1.1113c4.1-7.71 24.469-24.879 12.369-33.939-3.595-2.69-7.5908-4.1765-11.988-4.459z" />

        <g id="chapeau">
            <path class="tissu" d="m126.81 61.34c9.1-9.49 14.31-15.9 27.47-18.37 21.97-4.13 45.12 11.97 51.99 32.51q4.15 12.4 0.3 25.85a0.46035 0.46035 0 0 1-0.91-0.14c0.47-13.12-0.19-25.87-9.3-36.31q-15.92-18.23-41.62-14.15-13.74 2.18-23.74 13.77-7.88 9.12-15.59 18.43-5.59 6.74-13.82 8.79c-6.16 1.54-13.72-0.68-19.49 2.09q-4.32 2.07-9.38 3.93-1.86 0.69-1.66-1.28c0.97-9.86 10.36-24.72 17.57-32.59q0.33-0.36-0.15-0.38-0.15 0-0.3 0.01-0.14 0.01-0.26 0.11-1.99 1.54-3.17 2.35-1.86 1.29-1.43-0.93c6-30.86 32.02-55.52 62.68-61.52 7.9-1.55 18.05-1.33 22.19 6.31 2.5 4.63-3.82 12.73-7.02 16.4q-5.23 6-9.33 12.85-0.74 1.25-2.85 1.12-18.11-1.13-34.33 6.82-2.6 1.28-3.69 2.45-0.94 1.03 0.31 0.41 17.03-8.39 36.11-8.31a0.45 0.45 0 0 1 0.23 0.84c-3.19 1.94-6.81 3.59-9.54 5.82q-6.74 5.5-11.65 12.82a0.24207 0.24207 0 0 0 0.38 0.3z" />
        </g>
        <g id="manteau">
            <path class="tissu" d="m68.6 251.74c13.94-12.45 23.28-26.49 20.12-46.2-0.49-3.04-1.94-6.03-3.11-8.97q-0.11-0.28 0.19-0.35 0.12-0.02 0.28 0.05 0.1 0.05 0.18 0.17c5.35 9.25 12.68 11.94 23.63 12.59 11.13 0.66 23.33 0.84 34.04-1.94 9.12-2.36 18.07-7.84 27.72-9.95 11.71-2.55 22.34-1.77 34.22 0.02q10.81 1.63 13.74 2.35c6.22 1.53 17.71 5.96 21.56 11.49a0.69 0.68-11.4 0 1-0.71 1.06c-15.01-3.12-28.49-5.75-43.97-5.24q-0.51 0.01-0.92-0.3-2.55-1.96-6.5-2.15c-6.95-0.33-35.32 0.55-39.02 7.43q-0.21 0.4-0.18 0.86l0.17 2.96q0.04 0.61-0.52 0.84-5.71 2.4-8.01 3.76c-24.07 14.32-41.47 26.16-65.04 31.61q-3.91 0.9-7.61 0.66a0.43 0.43 0 0 1-0.26-0.75z" />
            <path class="tissu" d="m218.91 224.01c-2.92-2.77-7.15-4.69-10.53-6.7a0.38 0.37 58.4 0 1 0.16-0.7c9.42-0.54 19.81-0.46 28.78 2.64a0.63 0.63 0 0 1 0.22 1.06l-5.35 4.9q-0.37 0.33 0.08 0.54 0.14 0.07 0.32 0.05 0.14-0.01 0.29-0.13c7.65-6.05 23.22-16.11 33.34-14.2a0.7 0.7 0 0 1 0.21 1.3q-18.22 10.12-28.04 28.79-3.27 6.23-6.35 12.58c-1.7 3.5-8.94 17.78-14.28 10.6-4.55-6.12-4.14-15.95-7.71-22.83-2.95-5.68-8.35-9.23-13.01-13.12q-0.47-0.39 0.11-0.59c2.79-0.98 7.93-1.72 6.91-5.9q-0.5-2.08-0.45-4.22 0.02-0.61 0.59-0.4 7.53 2.66 14.27 6.91a0.37 0.36 82.5 0 0 0.44-0.58z" />
            <path class="tissu" d="m44.8 281.77a0.24192 0.24192 0 0 0-0.15 0.46l18.85 9.4q0.63 0.31 0.48 0.99-1.04 4.74-0.36 9.6a1.56 1.55-83.6 0 1-2.09 1.67c-9.27-3.51-19.25-10.04-20.76-20.64-1.2-8.46 14.63-19.79 21.41-24.82q1.47-1.09 2.66-1.46 0.52-0.16 0.97 0.15 5.47 3.75 12.7 3.64c17.43-0.25 28.64-5.07 44.3-14.39 9.64-5.74 19.21-12.05 29.4-16.75a1.76 1.75-88.3 0 1 2.28 2.42c-5.85 10.93-15.72 18.85-24.3 27.7a0.27 0.27 0 0 0 0.11 0.45q0.14 0.04 0.27 0.08 0.14 0.05 0.24-0.04 13.43-11.41 25.4-25.77 1-1.2 2.79-1.14 7.8 0.26 15.54-2.16a0.87 0.87 0 0 1 1.12 0.94c-2.12 16.21-2.49 33.13-11.85 46.44-2.96 4.21-8.01 7.85-12.37 4-5.12-4.51-8.26-10.1-16.37-8.34-13.06 2.83-23.2 10.74-35.86 18.04-10.13 5.85-24.19 3.09-34.04-1.83-6.25-3.13-13.45-7.46-20.37-8.64z" />
            <path class="boucle" d="m159.76 228.11q2.7 0.91 5.99 0.42c12.52-1.84 24.24-4.43 36.1-5.08a0.71 0.71 0 0 1 0.36 1.35c-3.08 1.54-5.4 1.69-8.66 2q-14.34 1.39-28.32 4.94c-5.35 1.35-6.45-1.69-8.95-6.08q-3.22-5.69-5.18-11.94-0.45-1.44 0.59-2.31a0.42 0.41-31.7 0 1 0.65 0.15l6.6 15.79a1.33 1.31-1.9 0 0 0.82 0.76zm27.02-18.82q2.06 2.58 2.8 5.89a0.57142 0.57142 0 0 1-1.1 0.31q-1.72-4.97-7.24-4.06-4.95 0.81-10.39 1.05a0.59304 0.59304 0 0 1-0.12-1.18l14.97-2.43a1.15 1.13 65.9 0 1 1.08 0.42zm2.6-3.91c6.32-0.2 11.5 10.58 13.18 15.65a0.92 0.92 0 0 1-0.8 1.2c-6.26 0.47-12.12 0.9-18.6 2.21q-10.56 2.13-21 3.11a2.11 2.09 75.8 0 1-2.14-1.29l-6.49-15.5q-0.21-0.52 0.31-0.69c12.32-4.19 22.8-4.29 35.54-4.69zm2.57 11.28c-0.61-2.56-3.27-9.28-6.71-8.94q-5.47 0.55-16.45 2.62c-7.72 1.46-4.24 6.93-1.71 11.34a1.04 1.02 78.1 0 0 0.77 0.51c6.8 0.71 17.88-3.04 23.76-4.94q0.44-0.14 0.34-0.59z" />
            <path class="manche droite" d="m16.19 181.92-1.38-4.46a1.71 1.7-24.1 0 1 0.76-1.97q6.41-3.81 13.44-0.99a0.42 0.42 0 0 0 0.55-0.52q-2.47-8.04-2.98-16.43a1.31 1.31 0 0 1 1.07-1.37l3.02-0.58q0.66-0.12 0.56-0.79l-0.04-0.31q-0.04-0.32-0.37-0.25l-2.92 0.66q-0.63 0.14-0.67-0.5-0.54-7.46 6.74-8.1 0.45-0.04 0.77-0.24 0.17-0.11 0.3-0.22a0.51 0.51 0 0 0-0.39-0.91l-2.41 0.36a0.58 0.58 0 0 1-0.61-0.83c1.6-3.24 4.41-7 8.38-7.13 6.54-0.21 15.75 1.36 19.51 7.54 1.9 3.12 3.53 6.06 6.12 8.77 6.23 6.55 12.2 12.11 14.21 19.89q2.36 9.1 4.5 18.26a0.22 0.22 0 0 1-0.35 0.23l-0.45-0.33q-0.21-0.15-0.29-0.4-3.1-9.29-8.87-17.19a1.22 1.18 30.5 0 1-0.23-0.84c0.94-8.75-7.47-15.74-14.38-20.12q-0.34-0.21-0.59-0.13-0.17 0.06-0.29 0.19-0.25 0.29 0.06 0.51c4.36 3.1 15.24 12.15 11.66 18.58q-0.24 0.43 0.09 0.78c4.26 4.49 7.52 11.35 10.34 16.87 1.16 2.28 1.58 4.14 0.6 6.68-4.79 12.41-17.13 23.12-30.97 23.45-7.83 0.18-13.07-0.45-18.46-4.85a1.12 1.12 0 0 1 0.84-1.98l9.99 1.2q0.26 0.03 0.38-0.2 0.13-0.24 0.03-0.37-0.04-0.06-0.14-0.07c-15.28-2.01-30.92-12.36-37.23-27.16q-0.19-0.46 0.03-0.9 2.26-4.59 6.24-7.76a0.93 0.93 0 0 1 1.44 0.36l1.63 3.85a0.41 0.41 0 0 0 0.76-0.28zm48.58-16.18c-5.22-7.68-12.73-9.47-21.6-8.92a0.89 0.88-2.7 0 0-0.84 0.91q0.02 0.53 0.68 0.55c9.19 0.35 14.77 0.33 21.17 7.84a0.36 0.36 0 0 0 0.53 0.01q0.19-0.21 0.06-0.39z" />
            <path class="patch droite" d="m22.72 157.45 2.02-0.45a0.51 0.5 82.3 0 1 0.61 0.47q0.44 7.4 2.44 14.53a0.49 0.48-3 0 1-0.55 0.61q-6.35-1.17-12.27 1.35a0.73 0.71-33.8 0 1-0.79-0.15l-0.63-0.63q-0.8-0.8-0.8 0.33v0.47a1.52 1.47-26.7 0 1-0.32 0.92l-7.08 9.02a0.61 0.61 0 0 1-1.08-0.24c-2.59-11.07-2.19-21.76 5.66-30.83 4.95-5.71 15.47-14.7 23.48-14.77q1.85-0.02 0.49 1.24-6.89 6.38-8.59 15.6-0.1 0.55-0.63 0.77l-2.22 0.95a0.43 0.43 0 0 0 0.26 0.81z" />
            <path class="manche gauche" d="m258.28 180.27 2.12-1.81a1.16 1.15-36.3 0 1 1.73 0.26q3.04 4.86 4.55 10.44 0.14 0.5-0.06 0.98c-2.75 6.54-11.29 12.27-17.01 15.62q-0.53 0.31-0.79-0.24l-0.57-1.23q-0.6-1.29-0.86 0.11l-0.69 3.87a1.21 1.21 0 0 1-1.84 0.81c-5.78-3.71-7.99-9.49-12.35-14.69q-0.33-0.39-0.31-0.9 0.18-4.64 2.76-8.48a1.21 1.2-53.3 0 1 1.75-0.26l4.32 3.5a0.50083 0.49081-3.5 0 0 0.66-0.74l-4.44-4.24a0.96 0.94-63.6 0 1-0.28-0.86q1.19-6.61 0.52-8.41-2.62-7.03-5.44-13.85a1.54 1.53-29 0 1 0.53-1.84l6.45-4.58a0.25 0.25 0 0 0-0.22-0.44q-4.45 1.36-7.99 4.36-0.45 0.38-1.01 0.18l-2.34-0.85q-0.6-0.21-0.39-0.81l0.75-2.14a0.4 0.39-15.7 0 0-0.68-0.38l-1.21 1.5a1.06 1.05 28.9 0 1-1.15 0.33l-12.79-4.2a1.04 1.03-0.5 0 1-0.64-0.62c-1.62-4.41 7.21-5.45 9.66-6.1q15.23-4.05 30.65-0.17 1.55 0.39 2.18 1.5a0.96 0.96 0 0 1-1.11 1.39q-0.7-0.22-1.19 0.28a0.39 0.39 0 0 0 0.28 0.66q2.5-0.08 4.44 1.45 0.41 0.33 0.46 0.86l0.34 4.2a0.67 0.66 79.1 0 1-0.46 0.69l-3.82 1.2q-0.3 0.1-0.29 0.41 0 0.14 0 0.28 0 0.23 0.23 0.19l3.39-0.58a0.61 0.61 0 0 1 0.71 0.63q-0.29 5.39-2.58 10.25a0.84 0.83-57.4 0 0 0.21 0.99c2.49 2.16 5.23 3.86 5.85 7.35a0.69 0.66 59.5 0 1-0.13 0.55l-2.39 3.11a0.34 0.34 0 0 0 0.49 0.47z" />
            <path class="patch gauche" d="m263.87 170.64-1.29 3.05a0.6 0.6 0 0 1-0.98 0.18l-5.44-5.62q-0.41-0.42-0.24-0.98l2.83-9.77q0.15-0.51 0.67-0.49 0.18 0.01 0.35-0.03 0.7-0.15 0.27-0.71-2.25-2.9-1.56-6.51a1.03 1.03 0 0 0-0.29-0.94l-2.26-2.27a0.59 0.59 0 0 1 0.66-0.95c19.2 8.74 21.2 25.81 12.18 42.84a0.58 0.58 0 0 1-1.07-0.13q-1.64-6.49-5.03-12.22-0.27-0.46-0.01-0.92 1.05-1.88 1.74-3.92a0.6 0.56-42.8 0 0 0.02-0.26q-0.06-0.35-0.28-0.45a0.2 0.2 0 0 0-0.27 0.1z" />
        </g>
        <g id="barbe">
            <path d="m88.71 96.34-4.25-0.34a0.62055 0.61054-42.8 0 1 0.05-1.23c8.56-0.06 16.41 0.61 24.53-2.8a0.4 0.4 0 0 1 0.5 0.57c-4.82 7.81-16.37 9.24-23.74 13.74-12.76 7.8-20.16 26.09-10.73 39.36 7.92 11.14 18.64 14.2 31.89 13.54a0.68 0.68 0 0 1 0.69 0.49c5.77 19.38 23.37 22.82 39.82 13.95a1.96 1.96 0 0 1 0.96-0.23c17.11 0.41 46.65 6.87 58.06-9.61 1.94-2.8 2.91-6.78 4.15-10.27q0.2-0.55 0.74-0.35c7.15 2.6 15.8 4.76 20.26 11.41a0.62 0.62 0 0 1-0.85 0.86l-2.87-1.89q-0.44-0.29-0.42 0.24 0 0.14 0 0.27 0 0.12 0.09 0.2c2.75 2.56 5.81 5.03 6.69 8.76 0.54 2.29 1.3 8.37-1.3 9.81q-1.39 0.77-1.69-0.79-0.21-1.12-1.25-1.77a0.4 0.39 12.3 0 0-0.6 0.38c0.24 1.76 1 3.21 1.04 4.87 0.24 12.68-9.05 11.6-18.53 9.89-9.23-1.68-18.69-3.39-28.12-2.43q-5.69 0.58-11.25 1.4a0.25 0.25 0 0 1-0.17-0.46q6.99-4.3 14.78-6.95a0.31 0.31 0 0 0 0.17-0.45q-0.14-0.26-0.36-0.21c-6.18 1.54-10.62 3.49-17.07 6.86-20.31 10.6-45.99 20.58-67.32 6.22a0.35217 0.35217 0 0 0-0.44 0.55c2.46 2.32 5.23 4.06 8.44 5.33a0.57 0.57 0 0 1-0.24 1.1q-18.04-0.88-24.36-16.07c-3.98-9.57-3.11-20.59-9.24-30.06q-0.18-0.28-0.27 0.04l-0.27 0.96q-0.11 0.41-0.45 0.15-11.23-9.12-15.46-22.7c-1.49-4.8-0.87-10.92-1.81-16.17a0.37121 0.37121 0 0 0-0.74 0.06q-0.04 5.79-0.01 11.58c0.01 1.71 0.91 3.67 0.72 5.65q-0.06 0.61-0.57 0.28-4.14-2.66-8.92-3.89-0.51-0.13-0.5-0.66c0.5-21.9 21.11-27.26 37.14-34.31a0.39 0.39 0 0 0-0.28-0.72l-15.25 5.16a0.61 0.61 0 0 1-0.71-0.89c4.95-8.06 11.39-6.59 19.34-8.07a0.18028 0.18028 0 0 0-0.02-0.36z" />
        </g>
        <g id="pantalon">
            <path class="tissu" d="m171.46 359.47c3.94 7.95 5.79 19.87 6.1 29.12 0.47 13.82-25.71 5.08-32.43 3.19-9.45-2.66-16.52-3.55-25.54-2.8-4.44 0.37-12.05-11.86-14.14-15.57-9.11-16.17-20.82-27.7-30.26-45.84-5-9.6067-8.1367-20.267-9.41-31.98-0.09294-0.88625 0.80667-1.54 1.61-1.17 11.89 5.42 24.07 4.77 35.58-1.2 10.24-5.3 21.91-13.66 34.2-16.49 5.9-1.35 10.71 8.48 16.58 10.08 13.03 3.56 21.43-24.48 22.81-33.57 0.89-5.89 0.65-13.56 1.16-20.35 0.0395-0.54608 0.44941-0.99327 0.99-1.08 4.44-0.69 12.72-2.82 16.57-0.3 4.57 3 9.6 6.37 12.13 11.31 3.84 7.5 3.66 15.48 8.22 22.98 2.0533 3.3733 4.8433 4.5167 8.37 3.43 0.46904-0.14531 0.91836 0.27032 0.8 0.74-0.67 2.89-1.22 6.3-1.05 9.26 0.0585 0.43975 0.68876 0.45612 0.77 0.02 0.44-3.97 0.71-10.17 3.31-13.34 6.42-7.82 9.23-16.21 13.4-24.7 5.17-10.52 14.11-18.64 23.92-24.68 6.91-4.24 14.6-5.47 22.78-6.86 8.95-1.53 16.18 7.95 11.42 15.97-0.16667 0.28-0.0967 0.47333 0.21 0.58 0.36667 0.12 0.65333 0.0167 0.86-0.31 0.70667-1.1267 1.26-2.03 1.66-2.71 0.56229-0.9481 1.9152-1.0012 2.55-0.1 3.82 5.49 8.4 17.63 0.53 21.63-3.1933 1.6133-6.4 3.2133-9.62 4.8-13.9 6.83-25.73 24.05-31.93 38.52-0.54667 1.2667-1.3533 2.3733-2.42 3.32-3.3467 2.96-6.2467 6.2533-8.7 9.88-0.24958 0.37495-0.79312 0.39527-1.07 0.04-11.85-14.95-9.75-38.19-1.94-54.31 0.22667-0.46667 0.31333-0.9 0.26-1.3-0.0667-0.48-0.22333-0.51-0.47-0.09-9.28 16.06-9.87 40.72 0.92 55.98 0.47325 0.67137 0.65371 1.5051 0.5 2.31-0.94 4.95-3.03 8.85-6.53 12.84-16.11 18.35-36.92 33.52-60.47 40.71-0.93333 0.28667-2.08 0.38333-3.44 0.29-0.31657-0.0253-0.58739-0.23331-0.69-0.53-0.86-2.39-1.3-4.25-0.58-6.89 1.44-5.2 1.62-10.483 0.54-15.85-0.0388-0.21685-0.30697-0.29847-0.46-0.14l-0.23 0.23c-0.0733 0.08-0.11 0.17333-0.11 0.28 0.2 5.06 0.78 9.92-0.86 14.82-0.14735 0.45369-0.77678 0.48613-0.97 0.05-3.3333-7.5267-7.5-14.523-12.5-20.99-0.0667-0.08-0.14333-0.22-0.23-0.42-0.16-0.38667-0.44667-0.41333-0.86-0.08-0.22771 0.18033-0.26785 0.51035-0.09 0.74 5.2267 6.7267 9.5433 14.023 12.95 21.89 2.4 5.5533 2.63 11.397 0.69 17.53-0.15043 0.50098-0.87187 0.46379-0.97-0.05-0.64667-3.34-1.9033-6.4133-3.77-9.22-0.27282-0.34752-0.819-0.0282-0.65 0.38zm110.31-138.79c-0.0899-0.11197-0.25366-0.12979-0.3656-0.0398l-0.4364 0.3509c-0.11194 0.09-0.12972 0.25369-0.0397 0.3656 2.2022 2.0374 4.2809 4.2971 5.9151 7.3569 0.0899 0.11197 0.25366 0.12979 0.3656 0.0398l0.4364-0.3509c0.11194-0.09 0.12972-0.25369 0.0397-0.3656-2.3798-4.3298-4.0768-5.5183-5.9151-7.3569zm-176.51 149.63c3.37 5.62 12.85 10.09 18.79 7.82 0.33797-0.1273 0.60902-0.38751 0.75-0.72 0.81333-1.9333 0.93333-3.9267 0.36-5.98-0.14266-0.46834-0.82861-0.38858-0.86 0.1l-0.13 4.39c-0.0303 0.93936-0.74949 1.7099-1.68 1.8-7.31 0.73-11.76-3.41-16.7-7.85-0.29842-0.2509-0.72172 0.10051-0.53 0.44z" />
        </g>
        <g id="chaussures">
            <path class="tissu" d="m259.91 304.21q0.77-0.7 1.09-1.72c5.02-16.03 14.78-35.46 28.55-45.65 7.41-5.48 18.57-12.19 28.2-11.89 3.57 0.11 7.58-2.13 10.9-3.4 6.42-2.46 21.46-5.16 24.79 3.71 3.51 9.36-9.68 15.26-16.65 16.99q-0.46 0.11-0.66 0.52t0.25 0.37q6.98-0.6 13.03-4.08 0.49-0.28 0.67 0.26c4.42 13.32-1.31 24.05-10.6 33.41-14.49 14.6-30.55 19.35-50.71 20.32a0.48 0.48 0 0 0-0.45 0.56q0.06 0.37 0.44 0.4c7.71 0.48 14.48-0.76 22.01-2a0.33 0.33 0 0 1 0.3 0.55c-3.73 4.13-13.33 7.3-18.65 8.55q-0.4 0.1-0.56 0.43a0.37 0.37 0 0 0 0.41 0.53l7.78-1.75a0.48 0.48 0 0 1 0.54 0.68c-6.03 12.48-12.31 24.58-26.9 28.17-15.15 3.73-22.33-9.47-19.57-22.72q1.08-5.16 2.55-10.21 0.09-0.3-0.02-0.47-0.11-0.16-0.31-0.22a0.36 0.36 0 0 0-0.46 0.23l-3.08 9.67a0.67 0.66-51.1 0 1-1.21 0.13c-5.61-9.85 2.5-24.05 9.33-31.43a0.53 0.52 73.6 0 1 0.89 0.49l-2.32 9.31q-0.2 0.83 0.42 0.26zm67.13-42.42c0.32 4.39 0.34 10.18-1.36 13.94q-9.33 20.56-30.73 28.76-0.27 0.11-0.02 0.25 0.13 0.07 0.33 0.02c13.59-3.77 26-14.03 31.2-27.12 1.57-3.93 3.39-11.68 1.43-16.06a0.44 0.44 0 0 0-0.85 0.21z" />
            <path class="tissu" d="m118.97 451.26a0.41428 0.41428 0 0 0-0.41-0.72c-11.03 5.58-28.84 9.85-38.8-0.05q-1.01-1-2.01-3.94-0.17-0.49-0.61-0.75c-8.29-4.93-7.31-12.72-1.18-18.74 13.17-12.94 27.5-14.96 45.44-14.73q0.66 0.01 0.21-0.47-0.52-0.54-1.37-0.64-6.3-0.68-12.18-0.43a0.54 0.54 0 0 1-0.28-1.02c16.35-8.57 38.18-4.17 53.64 1.59q0.64 0.24 0.19-0.27-1.23-1.4-3.01-2.03c-12.73-4.47-27.92-7.05-41.33-4.67-3.82 0.67-7.02-1.4-6.35-5.45 1.31-7.81 13.59-8.18 19.32-7.87 7.98 0.44 17.17 3.98 25.21 5.87q8.98 2.12 18 0.35c1.96-0.39 9.46-4.26 6.48-7.42a1.47 1.45-67.5 0 1-0.4-0.98q-0.11-7.44-1.37-14.71-0.69-3.94 1-7.5a1.73 1.72 23.5 0 1 2.19-0.86c7.9 3.14 5.72 14.23 2.94 20.01q-0.21 0.44 0.25 0.6 0.15 0.05 0.28 0.1a0.32 0.31 20 0 0 0.39-0.18l3.34-8.6a0.47 0.47 0 0 1 0.85-0.04c4.5 9.1 0.52 18.46-3.9 27.23-7.97 15.77 0.42 33.73-20.01 41.29-16.62 6.16-31.21 8.04-48.71 7.16a0.34 0.34 0 0 1-0.17-0.63zm34.62-29.41 0.36-1.01a0.17 0.17 0 0 0-0.1-0.22l-0.16-0.06a23.66 0.65 19.8 0 0-22.48-7.4l-0.04 0.11a23.66 0.65 19.8 0 0 22.04 8.63l0.16 0.06a0.17 0.17 0 0 0 0.22-0.11zm-70.82 16.9c11.65-5.12 23.94-2.59 34.94 3.06q0.11 0.05 0.18-0.05 0.08-0.11 0.19-0.21 0.26-0.23-0.03-0.42c-9.94-6.3-22.27-8.85-33.47-4.29q-1.4 0.57-2.17 1.4a0.32 0.32 0 0 0 0.36 0.51z" />
        </g>
        <g id="mains">
            <path class="main gauche" d="m230.4 194.75 6.02 7.45a0.52 0.52 0 0 1-0.64 0.8l-9.69-4.78a0.52 0.52 0 0 1-0.08-0.89l3.68-2.68a0.52 0.52 0 0 1 0.71 0.1z" />
            <path class="main droite" d="m32.63 217.74c5.2 3.9 11.68 3.85 17.68 4.63a0.87 0.87 0 0 1 0.7 1.15q-2.05 5.87-2.59 12.07-0.05 0.56-0.6 0.66l-2.14 0.39q-0.55 0.1-0.88-0.36-5.9-8.24-15.55-4.71-0.5 0.18-0.81-0.26-4.39-6.43-0.63-12.99c1.1-1.93 3.07-1.89 4.82-0.58zm9.64 28.14c1.52-2.96 1.51-7.53 5.75-8.26q0.53-0.1 0.72 0.41 1.04 2.69 2.1 5.1 0.22 0.51 0.55 0.55 0.54 0.07 0.36-0.44c-1.99-5.62-3.23-18.92 4.19-21.67 13.06-4.82 21.65-9.89 27.31-23.12a0.47 0.47 0 0 1 0.86-0.03c9.36 18.84-1.76 41.02-17.81 52.4-10.86 7.69-27.89 7.96-37.43-2.08-10.21-10.74 4.23-22.95 13.47-13.03 2.15 2.3-0.06 7.21-0.56 10a0.26 0.26 0 0 0 0.49 0.17z" />
        </g>
        <g id="visage">
            <path class="peau" d="m164.47 51.533c-8.7604-0.13301-17.594 2.2377-24.861 7.1465-9.27 6.26-17.8 18.39-24.92 27.98-0.28 0.38667-1.4168 2.2231-3.4102 5.5098-6.06 9.99-17.099 9.7691-26.229 16.119-10.82 7.54-17.212 23.571-9.5117 35.441 7.08 10.9 17.481 15.46 31.201 13.68 0.3133-0.04 0.44393-0.21597 0.39063-0.5293l-0.95117-5.3106c-0.0533-0.3 0.0742-0.46047 0.38086-0.48047 0.28667-0.0133 0.45953 0.1173 0.51953 0.39063 1.37 6.08 2.7593 12.09 6.2793 16.84 9.86 13.3 24.94 8.8895 37.68 1.7695 1.16-0.65333 1.4244-0.40953 0.79102 0.73047-0.0467 0.08-0.0827 0.1633-0.10938 0.25-0.0702 0.23314 0.0881 0.4729 0.33008 0.5 14.04 1.55 34.609 4.6004 46.709-2.8496 15.35-9.45 10.84-28.05-0.99024-38.25-0.34667-0.3-0.30557-0.5314 0.12109-0.6914l1.0391-0.39844c0.66207-0.24588 0.91361-1.0515 0.50976-1.6309-1.66-2.3867-3.8956-4.0204-6.709-4.9004-0.16-0.0467-0.23747-0.15364-0.23047-0.32031 0-0.1-3e-3 -0.19883-0.01-0.29883-7e-3 -0.2067 0.0891-0.2807 0.28907-0.2207l3.7812 1.2109c0.61753 0.19042 1.282-0.0777 1.5898-0.64062 7.55-13.83 8.7194-35.37 1.9394-49.68-6.6185-13.969-21.018-21.146-35.619-21.367z" />
            <g id="bouche">
                <path class="silhouette" d="m112.11 122.45c0.115 3e-3 0.23662 0.0306 0.36328 0.084 4.7133 1.9 7.8327 4.8783 9.3594 8.9316 5.4 14.33 10.959 25.079 28.529 24.109 9.07-0.5 15.08-2.9212 22.82-7.7812 3.08-1.93 8.3609-1.6298 11.961-2.0898 0.24-0.0267 0.35938 0.0803 0.35938 0.32031v0.49024c5.1e-4 0.2483-0.19166 0.4548-0.43945 0.4707l-9.6914 0.63867c-0.18944 0.0129-0.36943 0.0802-0.51953 0.19141-4.1467 3.0867-8.6498 5.4921-13.51 7.2188-1.74 0.62-3.2102 1.4471-4.4102 2.4805-5.55 4.78-9.9402 8.821-17.16 10.791-7.82 2.14-15.52 0.76968-19.33-6.8203-6.65-13.24 10.98-29.161-8.6699-38.371-0.43333-0.20667-0.43023-0.40628 0.01-0.59961 0.10333-0.0467 0.21312-0.0678 0.32812-0.0645z" />
                <path class="langue" d="m128.21 158.46 0.43-1.44q0.35-1.21 1.55-0.82 7.35 2.43 6.56 9.77-0.25 2.27-2.71 2.24c-11.35-0.16-15.12-8.34-13.44-18.38a0.95 0.94-65.7 0 1 1.53-0.58q3.06 2.46 5.14 5.82 0.27 0.43 0.22 0.94l-0.22 2.27a0.48 0.48 0 0 0 0.94 0.18z" />
                <path class="fond" d="m127.54 153.43q-2.62-3.21-5.58-6.09-0.42-0.41-0.3-0.99l1.25-5.8q0.18-0.86 0.65-0.11c8.33 13.4 13.77 17.09 30.4 16.55a0.56 0.56 0 0 1 0.41 0.96c-3.93 3.97-10.2 9.19-15.87 9.2a0.67 0.67 0 0 1-0.67-0.71q0.65-9.81-8.81-11.93-0.74-0.17-1.48-1.08z" />
            </g>
            <path class="silhouette" d="m127.51 99.01c0.42667-0.0067 0.78674 0.13016 1.0801 0.41016 2.57 2.48 4.5009 3.7899 5.4609 7.4199 1.09 4.12 2.9095 6.5496 5.6894 9.3496 0.75449 1.0582 1.4329 1.7106 2.709 5.5508l0.88086 3.7305c0.0667 0.2667 0.23333 0.36553 0.5 0.29883 2.2-0.54 4.4503-1.3204 6.5703-1.4004 8.7667-0.32667 15.556 3.1404 20.369 10.4 0.18667 0.28 0.41808 0.3273 0.69141 0.14063 5.3867-3.7267 11.325-6.0333 17.818-6.9199 0.38055-0.0484 0.56297 0.4528 0.24023 0.66016-0.98 0.62-2.5291 0.55-3.3691 0.75-4.92 1.1667-9.4231 3.2233-13.51 6.1699-0.27999 0.2-0.4374 0.47055-0.4707 0.81055-0.61 5.46-1.11 10.209-7 12.299-9.28 3.29-23.47 1.1112-28.9-8.2188-0.7333-1.26-0.96589-3.0542-0.69922-5.3809 0.04-0.38667-0.13792-0.58938-0.53125-0.60938-3.7533-0.16-6.8429-0.56427-9.2695-1.2109-0.77333-0.20667-1.1005-0.67063-0.98047-1.3906 0.06-0.327 0.24722-0.43675 0.56055-0.33008 3.6 1.21 9.2708 2.6315 12.551 0.0215 1.96-1.56 3.639-2.771 3.709-5.541 0.16999-6.88-8.1998-16.399-12.76-19.629-3.0467-2.16-2.8924-2.4182 0.46094-0.77148 0.48 0.24 1.3668 0.94156 2.6602 2.1016 0.46627 0.42395 1.194-0.038 1.0098-0.64062-0.97333-3.18-2.8478-5.6974-5.6211-7.5508-0.49333-0.33333-0.44294-0.5062 0.15039-0.51953z" />
            <g id="yeux">
                <path class="sourcil silhouette gauche" d="m196.06 76.19c5.82 3.41 5.43 12.48 2.75 17.5a1.32 1.32 0 0 1-2.17 0.23c-1.22-1.46-2.23-3.52-3.38-4.75q-5.12-5.49-13.14-2.62a1.96 1.96 0 0 1-2.62-1.96c0.63-10.36 10.43-13.18 18.56-8.4z" />
                <path class="sourcil gauche" d="m196.24 80.83 1.88 0.52a0.52 0.52 0 0 0 0.58-0.79q-3.51-5.27-9.83-5.05c-1.89 0.07-3.45 1.18-5.75 0.98q-0.53-0.04-0.89 0.37-2.77 3.23-3.52 7.41a1 1 0 0 0 1.31 1.12c8.46-2.95 12.4 0.74 17.02 7.12a0.54 0.53 41.4 0 0 0.9-0.05q2.19-4.04 0.76-8.44a1.75 1.69-79.5 0 0-0.51-0.77l-2.23-1.89a0.31 0.31 0 0 1 0.28-0.53z" />
                <path class="silhouette gauche" d="m185.97 96.416c0.3634 0.05102 0.62841 0.5317 0.2832 0.86328l-3.2793 3.7402c-0.24241 0.26605 0.0119 0.68374 0.35938 0.58985l4.3105-1.0996c0.19333-0.0533 0.33946 6e-3 0.43946 0.17968l0.16015 0.27149c0.10667 0.17333 0.0656 0.30197-0.12109 0.38867l-4.1094 1.8613c-0.2559 0.12066-0.35743 0.43201-0.22071 0.67968 4.23 7.46 0.0403 17.679-5.1797 23.469-1.79 1.99-5.299 4.5-8.209 3.25-9.51-4.09-1.7103-19.25 2.6797-24.42 3.2-3.76 8.1898-6.6902 12.51-9.6602 0.12426-0.10008 0.25582-0.13029 0.37696-0.11328z" />
                <path class="oeil gauche" d="m179.94 103.23c10.02 1.22 1.81 25.49-7.93 26.79a0.62 0.62 0 0 1-0.38-1.15c2.89-1.62 6.73-5.63 5.93-9.32-0.91-4.2-6.4-5.11-9.01-1.93a0.48 0.48 0 0 1-0.81-0.48c1.59-3.95 7.36-14.5 12.2-13.91z" />
                <path class="pupille gauche" d="m170.32 123.96a1.66 1.66 0 0 0 2.41-0.16c2.08-2.51-0.06-4.34-2.15-5a0.93 0.92-43.1 0 1 0.06-1.78q4-0.98 5.46 1.69c2.09 3.84-2.37 8.01-5.61 9.34a1.11 1.1-40 0 1-1.01-0.08q-4.09-2.54-1.94-7.43a0.64 0.64 0 0 1 1.22 0.2q0.15 1.91 1.56 3.22z" />
                <path class="sourcil silhouette droite" d="m147.19 69.54c3.21-5.93 10.71-4.43 15.55-1.76q0.41 0.22 0.81-0.02l1.53-0.95a0.78 0.77 45.3 0 1 0.82 0.01c7.5 4.66 3.79 21.97-1.08 16.33-5.26-6.09-11.73-1.48-17.84 1.74q-0.46 0.25-0.94 0.05c-2.45-1-2.6-4.23-3.18-6.47-0.93-3.56 0.82-6.3 3.67-8.2a2.04 1.99 87.7 0 0 0.66-0.73z" />
                <path class="sourcil droite" d="m165.69 71.81q-5.63-5.8-14.13-4.68-0.94 0.13-1.23 0.7a0.46 0.46 0 0 0 0.43 0.67q0.62-0.03 1.16 0.31 0.73 0.46-0.13 0.59-6.8 0.99-8.46 7.52a0.68 0.68 0 0 0 1.24 0.53l1.53-2.43a0.33 0.34 59.6 0 1 0.62 0.16l0.04 1.03a0.97 1 65.7 0 1-0.29 0.74q-3.02 3.14-0.68 6.74 0.29 0.45 0.75 0.19c5.5-3.14 14-8.58 19.2-1.33a1.2 1.19 39.4 0 0 2.06-0.2q3.23-7.19-1.02-13.73a1.26 1.25 60.7 0 0-1.59-0.45l-0.49 0.23a0.53 0.53 0 0 0-0.19 0.8l1.75 2.34q0.03 0.04-0.01 0.08-0.09 0.09-0.18 0.19-0.19 0.2-0.38 0z" />
                <path class="silhouette droite" d="m152.2 89.25c-0.24 2.43-0.52899 4.3109-2.459 6.1309-5.7667 5.4267-8.7872 12.243-9.0605 20.449 0.58649 4.5887 1.259 4.506 2.4512 5.4199 13.03 7.97 22.12-16.25 15-25.26-0.1638-0.20458-0.1638-0.49659 0-0.70117l2.9492-3.709c0.35011-0.56962-0.39814-1.1736-0.88086-0.71094-1.3733 1.6667-3.0854 2.824-5.1387 3.4707-0.70397 0.22183-1.4305-0.27337-1.4805-1.0098l-0.2793-4.0605c7e-3 -0.36667-0.26602-0.55359-0.54101-0.55859-0.275-5e-3 -0.55355 0.1724-0.56055 0.53906z" />
                <path class="oeil droite" d="m150.39 107.21c-2.55-0.92-5.15 0.68-7.11 2.21a0.49 0.49 0 0 1-0.76-0.55c1.71-4.61 4.83-11.87 10.65-12.5 12.26-1.33 4.69 24.83-3.01 25.29a0.35 0.35 0 0 1-0.27-0.6c3.44-3.36 7.62-11.28 0.5-13.85z" />
                <path class="pupille droite" d="m143.73 120.66a6.99 5.06 121.3 0 1-0.6922-8.6015 6.99 5.06 121.3 0 1 7.955-3.3439 6.99 5.06 121.3 0 1 0.6922 8.6015 6.99 5.06 121.3 0 1-7.955 3.3439zm4.7611-9.0524a1.55 1.55 0 0 0-2.1567-0.3919l-1.0688 0.7401a1.55 1.55 0 0 0-0.3919 2.1567l1.298 1.8745a1.55 1.55 0 0 0 2.1567 0.3919l1.0688-0.7401a1.55 1.55 0 0 0 0.3919-2.1567z" />
            </g>
            <path id="nez" d="m148.71 135.63c-0.41-2.93-3.41-5.09-5.48-7.04q-0.37-0.35 0.03-0.67 2.5-2.06 5.02-2.34 13.94-1.56 21 9.32c4.51 6.96-1.89 12.9-8.51 13.72q-10.68 1.34-19.02-4.11c-5.38-3.52-7.77-11.72 0.21-14.3q0.5-0.16 0.94 0.11 3.34 2.01 4.98 5.56a0.44 0.44 0 0 0 0.83-0.25z" />
        </g>
    </g>
</svg>