<svg version="1.1" height="168" viewBox="0 0 283 506" xmlns="http://www.w3.org/2000/svg">
    <style>
        .nain {
            --silhouette: #000;
            --peau: #f8d5be;
            --peau2: #f89290;
            --barbe: #fcfbfb;
            --yeux: #fcfbfb;
            --dorure: #e9bc2b;
        }

        #prof {
            --chapeau: #a27c04;
            --manteau: #cf4e01;
            --pantalon: #c46a2e;
            --chaussures: #d8a07b;
            --patch: #d59b76;
            --manches: #fd8d46;
            --bouche-fond: #722222;
            --lunettes: #5cb3c9;
        }

        #silhouette,
        .silhouette {
            fill: var(--silhouette);
        }

        #chapeau {
            fill: var(--chapeau);
        }

        #barbe {
            fill: var(--barbe);
        }

        .peau {
            fill: var(--peau);
        }

        .oeil {
            fill: var(--yeux);
        }

        .sourcil {
            fill: var(--barbe);
        }

        .sourcil.silhouette {
            fill: var(--silhouette);
        }

        .lunettes {
            fill: var(--lunettes);
        }

        .pupille {
            fill: var(--pupilles);
        }

        #bouche .langue {
            fill: var(--peau2);
        }

        #bouche .fond {
            fill: var(--bouche-fond);
        }

        #manteau .tissu {
            fill: var(--manteau);
        }

        #manteau .manche {
            fill: var(--manches);
        }

        #manteau .patch {
            fill: var(--patch);
        }

        #pantalon {
            fill: var(--pantalon);
        }

        #chaussures {
            fill: var(--chaussures);
        }

        #nez {
            fill: var(--peau2);
        }

        .paupiere {
            fill: var(--peau2);
        }

        .dorure,
        .bouton,
        .boucle {
            fill: var(--dorure);
        }

        .main {
            fill: var(--peau);
        }
    </style>
    <g id="prof" class="nain">
        <path id="silhouette" class="silhouette" d="m139.83 1.3809c-4.3575-0.0825-8.8409 1.0198-12.631 2.8398-20.51 9.88-37.548 35.169-38.398 57.939-0.07 2.01-0.57992 2.4995-1.9199 3.7695-11.58 11.027-18.618 24.717-21.111 41.07-0.66667 4.34-0.78914 10.26-0.36914 17.76 0.02 0.35333-0.06953 0.67427-0.26953 0.96093-4.62 6.59-8.7111 11.679-10.621 19.859-0.38 1.59 0.12945 3.9494-1.3105 5.6094-4.13 4.74-8.5087 9.7705-6.8887 16.23 0.08129 0.32593 0.42246 0.51695 0.75 0.41992 0.99333-0.31333 1.7197-0.20635 2.1797 0.32032 0.38 0.42666 0.47883 1.1674 0.29883 2.2207-1.29 7.66 0.05024 12.969 0.99024 19.809 0.05333 0.34-0.04859 0.628-0.30859 0.86133-5.4 4.8933-10.37 10.192-14.91 15.898-2.75 3.46-2.8212 6.0313-7.4512 8.1113-4.52 2.0333-7.6568 5.3554-9.4102 9.9688-3.32 8.73-13.96 11.62-8.3496 23.57 0.31624 0.66931 0.30543 1.4484-0.0293 2.1113-3.58 6.9933-6.4339 14.422-8.5605 22.289-1.55 5.73-1.6392 10.611 1.8008 15.711 3.0933 4.58 7.2364 8.0893 12.43 10.529 13.08 6.16 28.72 6.8304 43.16 6.4004 0.96466-0.034 1.5532 1.0489 1 1.8398-5.4133 7.7467-9.7467 16.265-13 25.559-2.81 8.04-1.1202 13.091 0.33984 20.471 0.81 4.07-0.90977 8.7305-1.7598 12.73-1.94 9.11 9.0997 7.3295 14.43 6.4395 0.33997-0.0566 0.68543 0.0515 0.92969 0.29101 0.95333 0.92667 1.656 2.1232 2.1094 3.5898 3.07 9.89 8.1099 22.899 15.42 33.189 0.2 0.28 0.29148 0.59279 0.27148 0.93945-0.11333 3.0467-0.50016 6.0703-1.1602 9.0703-0.37333 1.6867-0.08419 5.5971 0.86914 11.73 0.05005 0.34318-0.07828 0.68688-0.33984 0.91016-6.14 5.28-10.06 10.549-9.6797 18.859 0.04122 0.88041-0.49315 1.6859-1.3203 1.9902-4.3067 1.5733-7.8303 4.1803-10.57 7.8203-0.1683 0.22738-0.41009 0.39588-0.68945 0.48047-9.97 2.93-17.749 5.1692-23.369 14.619-0.17333 0.28667-0.41404 0.50063-0.7207 0.64063-4.62 2.04-8.8702 3.1802-11.49 7.9102-5.01 9.06 7.2201 14.709 13.83 15.799 5.6067 0.92667 11.199 0.87628 16.779-0.15039 8.86-1.63 17.981 2.481 26.201 1.291 10.45-1.51 19.14-2.5897 28.51-7.9297 0.29334-0.16 0.60612-0.24333 0.93946-0.25 9.15-0.08 19.18-1.3206 26.16-7.8906 8.03-7.55-1.3708-16.42 3.9492-22.92 0.3377-0.41198 0.98697-0.34293 1.2305 0.13086l3.1406 6c0.14 0.26667 0.18224 0.54961 0.1289 0.84961-0.33333 1.9533-0.61627 3.906-0.84961 5.8594-1.89 15.54 15.731 16.51 26.051 18.32 0.74 0.13333 2.026 0.73411 3.8594 1.8008 9.1067 5.3267 19.407 8.5499 30.9 9.6699-0.2-0.14667-0.28643-0.37807-0.25977-0.6914 0.02-0.28667 0.17232-0.45024 0.45899-0.49024 2.0933-0.26667 3.2414 0.0985 3.4414 1.0918 8.07-0.68 12.63-1.1818 18.25-3.3418 5.35-2.06 11.118-0.0191 16.648-1.6191 6.92-2 12.671-2.3999 15.621-10.17 0.12-0.31333 0.12-0.62612 0-0.93946-1.84-4.87-7.4898-7.3812-12.34-8.7812-1.1-0.31-2.2108-1.199-2.8008-2.209-5.05-8.6-13.999-9.8905-21.059-14.98-4.19-3.02-8.2312-5.5303-12.951-7.5703-0.61706-0.26854-0.9865-0.90593-0.91016-1.5703 0.72-6.22-1.4025-11.053-6.3691-14.5-0.7306-0.50866-1.1164-1.3805-1-2.2598 0.39333-2.9533 0.58674-5.9122 0.58008-8.8789-0.02-4.37-1.2098-9.4503-1.3398-14.07-0.033-1.198 0.30531-2.3786 0.96875-3.3809 6.3-9.49 9.8414-17.849 14.191-30.639 0.10705-0.3119 0.34395-0.56093 0.64844-0.68164 4.1-1.66 10.94-3.7889 13.58-7.3789 9.57-13 1.2507-42.331-3.5293-56.221-0.6-1.73-0.60086-4.1998 0.36914-5.8398 4.2-7.04 6.8812-11.78 5.9512-20.49-0.11381-1.0395 0.46713-2.0308 1.4297-2.4394 0.22-0.1 0.64596-0.13294 1.2793-0.0996 0.37333 0.02 0.79 0.10024 1.25 0.24023 14.57 4.37 35.811 5.3799 44.141-9.8301 3.28-5.97 6.1899-16.45 3.6699-23.18-0.40666-1.0933-0.76055-2.2085-1.0605-3.3418-1.78-6.8-5.86-12.1-7.5-19.01-2.11-8.9-6.6594-12.548-14.109-17.068-3.92-2.37-6.5708-6.3109-10.551-8.2109-7.7533-3.7067-14.423-8.683-20.01-14.93-1.82-2.04-1.9836-4.2838-0.49023-6.7305 0.16667-0.27333 0.40737-0.3958 0.7207-0.36914 1.47 0.15 2.2697 1.3686 3.4297 1.5586 4.95 0.83 2.1296-12.958 1.0996-15.648-0.56-1.48-0.50969-2.6402-0.42969-4.1602 0.012-0.30346 0.1888-0.57613 0.46094-0.71093 1.88-0.95 1.7491-2.67 0.61914-4.25-2.8467-3.98-6.0494-7.6703-9.6094-11.07-2.41-2.31-2.8203-4.3489-3.5703-7.3789-1.42-5.73-4.2008-10.54-6.8008-15.68-1.08-2.15-0.54914-3.7504-0.11914-5.9004 1.37-6.83-0.34969-14.751-2.1797-22.041-3.0667-12.14-9.2694-21.816-18.609-29.029-4.31-3.33-6.5006-6.0902-9.3106-10.24-6.33-9.31-14.571-15.611-24.961-19.891-0.57729-0.23853-0.93316-0.82137-0.8789-1.4395 0.29-3.47 0.17031-6.7199 0.57031-10.42 0.8-7.36-0.14993-17.65-5.9199-22.77-3.29-2.92-7.5234-4.187-11.881-4.2695zm-3.4901 387.87c-1.5333-0.011-4.6 0.03-4.6 0.03-0.39333 0-0.60667 0.19667-0.64 0.59-0.47333 6.4933-1.5467 12.883-3.22 19.17-0.56 2.1067-0.69667 3.5167-0.41 4.23 4.88 12 5.06 21.74 3.73 34.64-0.0381 0.36098 0.0865 0.72018 0.34 0.98 2.34 2.4267 4.22 5.1667 5.64 8.22 0.19525 0.44092 0.84301 0.36431 0.93-0.11 0.52-2.72 1.7833-4.9967 3.79-6.83 0.66905-0.61227 1.0193-1.5009 0.95-2.41-0.98-12.22 0.58333-24.097 4.69-35.63 0.0982-0.29414 0.11207-0.60941 0.04-0.91-1.6933-6.9867-2.6833-14.063-2.97-21.23-7e-3 -0.24667-0.12333-0.41333-0.35-0.5-0.08-0.0333-0.27-0.08-0.27-0.08s-5.0995-0.14165-7.65-0.16z" fill-rule="evenodd" />

        <g id="chapeau">
            <path class="tissu" d="m194.23 87.23-3.98-13.96a0.55 0.55 0 0 1 0.84-0.61c15.02 10.42 22.47 30.53 18.26 48.23a0.64 0.64 0 0 1-1.19 0.13l-3.73-7.7a0.76 0.76 0 0 0-1.43 0.48q0.42 2.02 1.6 4.04c5.14 8.79 10.34 15.12 12.12 23.17a0.44 0.44 0 0 1-0.68 0.45l-15.96-11.17a1.34 1.32-75.7 0 1-0.57-0.97q-0.24-2.75 2.12-4.22a1.17 1.14-10 0 0 0.5-0.69q0.94-3.94-2.52-5.49a1.71 1.69 1.9 0 1-0.9-0.95q-2.84-7.46-9.39-11.97a1.11 1.1-75.6 0 1-0.47-0.8c-1.35-15.02-5.97-34.53-19.07-43.54q-20.29-13.96-45.62-7.27c-20.41 5.39-32.62 26.56-36.5 45.81q-1.44 7.13-5.84 13.03c-1.82 2.45-4.53 2.91-4.76 7.06a0.93 0.92 31.6 0 0 0.13 0.54l2.24 3.64a0.7 0.69 47.6 0 1-0.03 0.79q-7.16 9.73-18.9 17-2.6 1.61-0.09 3.77a0.52 0.51-37.9 0 1-0.11 0.85l-3.71 1.92q-0.76 0.39-0.66-0.46c1.35-11.69 12.26-20.13 16-30.75q0.15-0.45-0.08-0.86-0.08-0.13-0.2-0.19-0.37-0.17-0.59 0.16l-2.53 3.76q-0.49 0.72-0.64-0.14-0.6-3.42-0.45-6.83c0.9-19.74 8.91-34.09 22.82-47.59a1.26 1.25-22.7 0 0 0.37-0.89q0-7.96 2.15-13.99c6-16.81 13.41-29.06 27.2-39.77 10.49-8.15 33.14-14.55 34.53 6.31q0.68 10.21-0.19 20.43-0.04 0.53-0.57 0.52-6.07-0.13-12-0.15c-22.33-0.06-41.14 13.23-52.29 32.1q-2.98 5.05-3.66 9.83a0.34 0.34 0 0 0 0.64 0.21c1.15-2.2 2.31-4.9 3.26-6.54 8.89-15.3 28.45-32.69 46.62-33.4 21.02-0.84 36.69 8.07 47.64 25.74 3.38 5.45 5.64 12.52 8.06 18.9q0.45 1.19 1.85 2.27 0.55 0.43 0.36-0.24z" />
        </g>
        <g id="mains">
            <path class="main gauche" d="m172.99 258.23q-1.41 3.95-0.09 7.91 0.14 0.42-0.06 0.82l-2.78 5.61q-0.26 0.51-0.78 0.29c-8.24-3.5-10.96-13.28-5.01-20.32q3.3-3.9 6.55-7.87 0.22-0.27 0.19-0.61-0.01-0.14-0.01-0.28a0.36 0.36 0 0 0-0.61-0.27q-4.97 4.77-9.28 9.85c-2.73 3.23-1.9 7.49-2.54 11.39a1.03 1.02 80.2 0 1-0.51 0.73c-5.26 2.98-13.64 4.06-18.09-0.73-2.27-2.46-4.68-9.22 0.62-10.41q2.29-0.52 4.6-0.93c5.1-0.9 9.05-4.33 12.73-8 11.33-11.32 20.66-22.54 38.44-21.58q12.92 0.69 23.89 8.06 0.41 0.28 0.3-0.2-0.2-0.84 0.38-1.35 0.4-0.35 1.2-0.33c13.29 0.38 26.38 6.22 36.95 14.39q0.44 0.34 0.72-0.1 0.31-0.48-0.1-0.88l-5.25-5.14q-2.01-1.97 0.79-1.74 4.41 0.35 8.57 1.85a0.33 0.33 0 0 0 0.44-0.31q0-0.17 0.01-0.34a0.6 0.6 0 0 0-0.31-0.56q-5.26-2.89-11.12-2.33c-4.2 0.4-8.59-1.92-12.07-3.96a0.6 0.6 0 0 1 0.01-1.04q5.66-3.15 12.5-3.01c6.71 0.13 9.26 2.56 13.99 7.6 14.13 15.07 16.97 36.45-0.8 50.26q-2 1.56-7.8 2.04-21.93 1.8-41.4-8.7a0.72 0.72 0 0 1-0.21-1.09l2.44-2.95a0.43 0.43 0 0 0-0.56-0.63q-12.63 8.06-27.77 6.99a0.95 0.94 11.1 0 1-0.83-1.23l0.43-1.28a0.37 0.37 0 0 0-0.52-0.45l-7.53 3.84a0.44 0.44 0 0 0 0.27 0.82q2.62-0.4 2.52 2.19a0.42 0.42 0 0 0 0.8 0.21l1.29-2.64q0.21-0.44 0.67-0.31l4.08 1.14a0.83 0.83 0 0 1 0.3 1.44q-9.78 7.89-17.2-1.54c-7.02-8.93-1.14-14.22 5.03-20.49a0.46049 0.46049 0 0 0-0.61-0.69l-4.11 3.09a1.02 1.02 0 0 1-1.63-0.72l-0.51-5.43a0.32 0.32 0 0 0-0.62-0.08z" stop-color="#000000" style="-inkscape-stroke:none;font-variation-settings:normal" />
            <path class="main droite" d="m102.06 237.19c5.99 4.11 0.87 10.82-4.17 12.3q-0.54 0.16-1.05-0.1-10.44-5.43-19.93-12.39-0.42-0.31-0.27-0.81c2.02-6.53 6.44-11.35 13.64-6.71q8.94 5.75 11.78 7.71zm-22.62 30.66 1.09-4.43q0.13-0.5 0.64-0.46 12.57 1.13 16.14-10.68a1.12 1.13 89.4 0 1 0.74-0.75c8.55-2.7 12.39-11.28 3.32-16.89q-5.77-3.57-10.82-8.14a1.23 1.25 19.5 0 1-0.41-0.88q-0.36-11.15-3.89-21.6-2.54-7.52 4.79-8.9c12.42-2.34 15.2 16.99 13.06 25.15q-0.16 0.61 0.46 0.5 1.55-0.26 1.91 0.97 1.97 6.57 1.4 14.15c-0.36 4.75 2.45 8.96 5.85 11.91a0.4 0.4 0 0 0 0.59-0.54c-3.81-5.21-5.61-7.35-1.39-13.31q5.14-7.25 13.34-3.8c5.88 2.48 3.77 6.17 0.75 9.87-4.7 5.76-10.61 11.58-9.66 19.13 1.24 9.86-0.85 20.9-9.59 27.05a1.1 1.1 0 0 1-1.73-0.89c-0.07-3.9 0.51-8.87-1.01-12.5a0.54 0.54 0 0 0-1.04 0.22c0.16 5.73 0.34 11.09-2.53 16.05-5.9 10.18-15.39 14.94-27.19 15.56-7.27 0.38-14.64-1.16-21.94-1.44-18.74-0.71-36.22-1-47.54-16.72-7.31-10.14 8.41-36.85 14.75-45.44a1.92 1.93 16.5 0 1 1.41-0.77q13.01-0.79 23.91 6.2 0.64 0.41-0.12 0.47c-4.86 0.37-12.27-0.12-16.27 2.99a0.46 0.46 0 0 0 0.44 0.79c10.34-3.82 21.6-0.01 31.23 4.18q0.53 0.23 0.55 0.81l0.69 14.27a1.07 1.08 61.2 0 1-0.19 0.64q-4.06 5.93-3.36 13.13 0.04 0.48 0.5 0.33 0.42-0.14 0.67-0.54 0.18-0.27 0.2-0.76 0.2-4.3 2.06-8.6a0.62 0.63 47.1 0 1 1.16 0.04q3.28 9.27 10.94 15.47a0.38 0.38 0 0 0 0.52-0.54q-14.14-16.13-9.33-37.71c1.67-7.48 8.59-14.9 16.49-9.38q4.94 3.44 10.2 6.37c3.59 2 5.21 4.44 2.18 8-6.24 7.36-14.71 5.2-20.72-0.93a0.47 0.47 0 0 0-0.74 0.55l1.14 2.1q0.25 0.47-0.25 0.67l-1.35 0.54a0.58 0.58 0 0 0 0.25 1.12q2.87-0.15 5.44 1.12a1.03 1.04 7.8 0 1 0.57 0.76l0.91 5.46a0.4 0.4 0 0 0 0.78 0.03z" stop-color="#000000" style="-inkscape-stroke:none;font-variation-settings:normal" />
        </g>
        <g id="barbe">
            <path d="m53.1 162.19q-1.89 2.12-4.42 3.41-0.57 0.28-0.73 0.23-1.12-0.32-0.78-1.43c2.86-9.37 9.04-14.1 17.43-18.3a0.34 0.33 53.7 0 0 0.08-0.54l-0.25-0.26q-0.23-0.22-0.51-0.09-1.01 0.5-1.97 0.03a0.96 0.96 0 0 1-0.09-1.67q10.29-6.48 18.59-15.39a0.49 0.48 55.3 0 1 0.81 0.15l1.59 3.96q0.23 0.56-0.19 0.99-9.26 9.68-11.9 13.53c-4.41 6.43-4.22 16.68-0.05 23.13q4.22 6.54 12.74 7.65 12.21 1.59 24.56 1.1 1.54-0.06 3.09 0.12 0.52 0.06 0.88 0.42c7.31 7.23 14.57 15.02 25.27 15.51 10.34 0.48 16.78-4.31 24-10.98 2.85-2.63 10.44-2.98 14.19-3 8.11-0.06 20.85-1.51 27.04-6.63 7.66-6.34 6.51-18.23 2.1-26.2q-3.61-6.55-8.42-12.34a0.64 0.62-51.5 0 1-0.07-0.7l1.97-3.68q0.3-0.56 0.8-0.19l15.52 11.27q1.6 1.16-0.03 2.28-0.98 0.67-2.05 0.87-0.88 0.17-0.1 0.61c4.23 2.42 19.13 12.48 19.66 17.28a1.17 1.17 0 0 1-1.99 0.96l-4.72-4.69a0.36 0.36 0 0 0-0.54 0.46c5.13 7.1 8.1 14.34 7.94 23.18a1.09 1.09 0 0 1-2.07 0.46l-2.75-5.72a0.36 0.36 0 0 0-0.69 0.17c0.29 7.89-13.61 25.84-20.65 29.04a1.39 1.39 0 0 1-1.83-1.87q0.35-0.75 0.15-1.62-0.14-0.62-0.61-0.19c-13 11.99-32.91 18.13-50.13 19.04a0.81 0.81 0 0 1-0.54-1.45c0.98-0.76 8.43-5.34 8.46-5.44q0.14-0.53-0.38-0.37c-7.26 2.18-11.53 7.15-16.96 13.76q-0.67 0.81-2.33 1.82a1.1 1.08 41.2 0 1-1.02 0.06q-7.79-3.55-13.34-10.08a0.31064 0.31064 0 0 0-0.52 0.34l1.27 2.53a0.89 0.89 0 0 1-1.25 1.16l-8.47-4.97a0.31 0.31 0 0 0-0.44 0.39l0.62 1.4q0.24 0.54-0.34 0.49c-3.05-0.26-11.98-0.47-11.94-5.04q0.1-9.14-1.27-12.65c-2.95-7.54-9.73-14.92-17.97-10-6.89 4.11-2.1 14.31-0.1 20.27a0.89 0.89 0 0 1-1.02 1.15c-16.38-3.33-30.78-17.02-30.93-34.41q-0.01-0.48-0.49-0.49-0.44-0.01-0.47 0.47-0.36 5.6 0.95 10.5a0.7 0.7 0 0 1-1.3 0.51c-4.32-8.18-2.94-23.89-0.9-30.2q0.17-0.52-0.19-0.11z" />
        </g>
        <g id="manteau">
            <path class="tissu" d="m191.94 377.69a0.72 0.72 0 0 0-0.98-0.66c-7.94 3.13-15.83 24.15-22.29 24.24q-0.52 0-0.74-0.47-2.92-6.14-4.13-12.8c-2.37-13.08-4.47-26.21-9.23-38.69q-0.24-0.63 0.23-1.12l2.05-2.12q0.45-0.47 1.02-0.14c7.05 4.14 8.08 9.82 10.56 16.32a0.61 0.61 0 0 0 1.18-0.25q-0.6-11.77-10.35-18.03a0.57 0.56 55.1 0 1 0.18-1.03c1.99-0.43 4.04-0.93 6.14-1.06q31.35-1.88 52.42-26.27 1.39-1.62 2.25 0.34c5.48 12.59 12.69 45.01 2.99 56.04a0.93 0.83-74.8 0 1-0.4 0.26l-35.85 11.18q-1.08 0.34-0.52-0.64 1.8-3.11 4.96-4.67 0.52-0.25 0.51-0.43zm-87.76-22.87a0.58 0.58 0 0 0 1.13-0.1q1.07-8.37 8.06-12.98a2.2 2.2 0 0 1 3.03 0.62q1.66 2.47 1.95 5.37a1.42 1.43 59.6 0 1-0.25 0.95c-9.16 13.08-6.24 31.01-9.79 47.68q-0.11 0.51-0.63 0.58c-2.9 0.41-5.1-0.24-7.44-2.26q-11.56-9.95-23.58-19.33c-4.73-3.69-9.1-6.83-15.15-6.04q-6.63 0.87-11.82 0.62-2.84-0.13-2.11-2.88c1.14-4.25 3.21-10.64 1.84-14.82-4.75-14.49 3.67-30.78 11.77-42.55a0.78 0.78 0 0 1 1.31 0.03q16.34 26.72 47.78 30.24a0.53 0.53 0 0 1 0.29 0.92c-3.05 2.74-7.72 9.58-6.39 13.95zm26.44-127.46a0.62 0.62 0 0 1 0.03 1.16l-1.12 0.46a1 1 0 0 1-0.83-0.02q-9.37-4.46-17.09 2.04-0.72 0.61-0.82-0.33l-0.69-6.55q-0.08-0.76 0.68-0.72 10.19 0.64 19.84 3.96zm-95.13-2.25q-6.23-0.63-12.41 0.75-3.72 0.82-1.62-2.35c8.44-12.81 18.53-7.83 30.7-5.74a0.34 0.35 61 0 0 0.19-0.66q-8.07-3.25-16.7-4.26a0.75 0.75 0 0 1-0.59-1.05c2.91-6.48 10.93-13.63 16.43-17.96a0.75 0.76 53.7 0 1 1.08 0.16c7.96 11.13 21.3 21.37 34.58 24.08q0.56 0.11 0.61 0.67l0.56 5.42a0.77 0.76 8.5 0 1-1.06 0.78q-1.13-0.47-2.56 0.25-2.92 1.48-5.24 2.32a1.11 1.1 81.1 0 1-1.48-1.08q0.09-2.68 0.5-5.37 0.06-0.41-0.12-0.6-0.15-0.18-0.41-0.21a0.37 0.38 9.2 0 0-0.41 0.3l-1.65 7.99a0.67 0.67 0 0 1-1.12 0.35q-6.73-6.38-15.53-9.34a0.27065 0.27065 0 0 0-0.23 0.49q4.11 2.48 8.09 5.32c5.1 3.64 8.72 5.55 6.86 11.83q-0.15 0.51-0.63 0.74-8.41 4-11.27 13.32c-1.32 4.28-12.56-3.4-15.07-5.08q-12.32-8.23-27.69-7.63a0.79 0.8 19.1 0 0-0.59 0.29l-4.96 5.72q-0.36 0.41-0.86 0.6l-0.29 0.1a0.68 0.68 0 0 1-0.9-0.5c-2.57-13.09 12.92-18.28 22.87-18.85q0.42-0.03 0.72-0.33l0.27-0.27q0.18-0.17-0.07-0.2zm205.56-10.34c7.44 0.26 12.65 0.16 19.99 4.19q7.84 4.31 8.79 13.16a0.9 0.9 0 0 1-1.62 0.63c-7.39-9.95-19.19-9.11-29.49-4.14-3.66 1.77-10.42-0.4-14.42-0.83-6.9-0.74-11.03-1.37-16.31-4.21a1 1.01 26.7 0 1-0.43-1.31q2.25-4.82 6.06-8.57 0.46-0.45 0.69-0.97 0.26-0.58 0.34-0.93a1.28 1.21 73.6 0 0-2.09-1.21l-9.06 10.31q-1.87 2.12-3.15-0.4-0.75-1.47-2.07-3.24-0.46-0.62-1.09-0.46-0.54 0.13-0.23 0.6 1.14 1.7 0.75 3.82-0.1 0.57-0.68 0.62c-9.23 0.78-15.43 0.96-23 6.96q-10.42 8.26-19.62 17.87c-4.39 4.58-8.34 4.85-13.92 5.82-2.41 0.42-4.61 2.21-4.74 4.54-0.83 14.16 13.3 15.59 22.94 10.73a0.77 0.77 0 0 1 0.9 0.14q4.19 4.26 9.35 7.25 0.47 0.27 0.69 0.77c3.25 7.42 8.29 15.16 17.67 13.69 5.18-0.81 6.94-6.48 12.81-7.08q6.7-0.68 12.66-2.92a3.26 3.27 48.8 0 1 2.66 0.17c3.47 1.83 9.96 3.95 10.57 8.46q2.4 17.65-12.7 25.87c-39.49 21.5-91.8 24.42-132.71 5.04q-8.24-3.91-14.15-10.42a0.59 0.59 0 0 1 0.41-0.98c6.97-0.33 15.15-0.28 21.65-3.07 6.37-2.74 12.08-9.02 16.17-14.52a1.65 1.62 5.7 0 1 0.67-0.54c13.48-5.92 15.31-20.05 14.05-33.1q-0.16-1.69 1.49-5.21c1.78-3.79 5.5-7.19 8.24-10.47q0.34-0.41 0.73-0.05 3.9 3.65 8.64 3.42c5.39-0.25 13.9-3.07 13.95-9.52 0.02-2.49-1.85-5-3.01-7.35a0.84 0.83 50 0 1 0.07-0.87c1.85-2.62 4.03-1.78 6.58-2.07 16.42-1.86 32.21-6.3 45.56-16.4a0.65 0.65 0 0 1 0.87 0.07l1.68 1.77a0.67 0.68 56.2 0 0 0.77 0.15c7.21-3.33 13.54-11.61 18.52-17.6a0.75 0.75 0 0 1 1.09-0.06l9.45 9.13a0.41 0.41 0 0 1-0.26 0.71q-8.13 0.45-14.68 5.18a0.63 0.63 0 0 0 0.58 1.11c3.99-1.41 8.28-3.29 12.28-3.59q11.31-0.88 19.29 7.71a0.39 0.39 0 0 1-0.28 0.65q-4.33 0.07-8.88 0.39-0.87 0.06-1.28 0.45a0.41 0.41 0 0 0 0.26 0.71zm-87.552 69.695a8.85 12.77 88.9 0 0-12.938-8.6032 8.85 12.77 88.9 0 0-12.598 9.0936 8.85 12.77 88.9 0 0 12.938 8.6032 8.85 12.77 88.9 0 0 12.598-9.0936z" stop-color="#000000" style="-inkscape-stroke:none;font-variation-settings:normal" />
            <path class="bouton haut" d="m142.14 233.28a1.53 1.53 0 0 0 1.42-0.33l4.03-3.53a0.57 0.57 0 0 1 0.87 0.14l2.83 4.78a0.7 0.67-50 0 1 0.04 0.59c-3.17 8.05-12.22 8.69-19.39 5.54a1.6 1.59-65.9 0 1-0.81-2.13q1.13-2.47 0.44-5.42c-0.43-1.87-0.43-3.39 1.74-3.66q0.45-0.06 0.82 0.2 3.67 2.65 8.01 3.82z" />
            <ellipse class="bouton bas" transform="rotate(-2.8 5894.4 -2739.3)" rx="11.22" ry="7.33" />
            <path class="boucle" d="m126.58 340.05q9.86 4.44 20.44 1.47c2.83-0.8 3.07-5.42 3.71-7.9q0.16-0.62 0.79-0.62h3.26q0.6 0 0.56 0.6c-0.34 4.94 1.67 10.85-4.34 12.9q-14.18 4.86-28.31-0.96c-5.22-2.15-3.95-8.45-4.18-13.04q-0.03-0.5 0.47-0.47l4.73 0.3a0.61 0.61 0 0 1 0.57 0.65q-0.21 3.42 1.49 6.35a1.78 1.77 86.6 0 0 0.81 0.72z" />
        </g>
        <g id="pantalon">
            <path class="tissu" d="m120.39 384.04 8.04 3.88q0.39 0.19 0.37 0.63c-0.47 7.6-2.54 14.88-4.27 22.23q-0.11 0.49 0.04 0.96c5.02 15.14 5.12 30.71 1.71 46.01a1.32 1.32 0 0 1-2.16 0.71q-11.22-9.97-21.41-20.68c-5.28-5.56-12.78-8.38-20.55-6.72a1.25 1.24-8.9 0 1-1.5-1.09q-0.86-8.23-0.03-16.47a0.63 0.62 21.5 0 1 1-0.43l1.11 0.85q0.15 0.11 0.26-0.03 0.13-0.15 0.24-0.25 0.05-0.05 0.01-0.11c-3.75-6.13-7.9-12.27-10.65-18.69q-4.74-11.04-8.12-22.57a0.56 0.55-22.9 0 1 0.27-0.65q0.31-0.17 0.68-0.02c5.58 2.33 9.73 4.96 14.64 9.2 4.64 4.02 29.29 28.28 30.97 13.89 1.79-15.23 1.67-32.9 9.03-45.73a1.25 1.25 0 0 1 1.44-0.58q13.83 4.14 28.07 1.37a3.07 3.06-17.5 0 1 3.38 1.76c1.86 4.15 3.04 8.23 3.91 13.14q2.91 16.3 6.12 30.1 1.1 4.75 4.54 8.52a0.93 0.91 62.3 0 0 0.87 0.28c8.64-1.81 10.22-13.55 17.98-16.86q10.19-4.35 20.97-6.42a0.79 0.78 84.4 0 1 0.94 0.78c0 9.28-9.07 23.43-14.15 32.58q-0.25 0.44-0.13 0.94c0.6 2.68 1.43 5.14 1.55 7.8q0.33 7.22 0.15 14.67-0.02 1.05-1.05 0.8c-15.67-3.86-32.93 12.54-42.89 22.43q-1.17 1.17-2.36 1.69-0.58 0.25-0.8-0.35c-4.69-13.1-3.54-27.76-1.07-41.86 0.63-3.61 2.97-6.02 1.98-10.27q-2.33-9.94-1.97-20.2 0.01-0.36 0.36-0.48l4.9-1.66a0.43 0.43 0 0 0-0.12-0.84c-10.88-0.5-20.95 0.89-31.95-3.09a0.45039 0.45039 0 0 0-0.35 0.83zm-25.45 36.52q6.69 4.32 14.6-0.02 0.7-0.38 0.84-0.88a0.37 0.37 0 0 0-0.51-0.43q-5.81 2.69-11.27 1.25c-4.29-1.13-6.63-4.28-4.14-8.61q0.1-0.18-0.05-0.33l-0.24-0.25a0.37 0.37 0 0 0-0.55 0.04q-4.15 5.71 1.32 9.23zm70.39 1.18c0.11 3.11 2.67 6.48 6.16 5.69q7.15-1.62 11.73-8.23a0.3 0.29-4.6 0 0-0.45-0.38c-4.49 4.25-12.13 11.77-16.93 2.79a0.27 0.27 0 0 0-0.51 0.13z" />
        </g>
        <g id="visage">
            <path class="peau" d="m169.72 175.97a0.61 0.61 0 0 0-0.93-0.76c-12.98 10.66-23.84 24.02-42.49 14.01-5.75-3.09-11.48-10.06-18.49-15.02a0.3 0.3 0 0 0-0.41 0.43l1.51 1.98a0.32 0.32 0 0 1-0.25 0.51q-10.78 0.04-21.36-1.17c-8.97-1.03-15.97-4.81-17.32-14.12-1.76-12.14 6.36-19.2 13.82-27.24q0.3-0.32 0.61 0 11.62 12.2 27 4.36a0.45 0.45 0 0 1 0.65 0.38l0.25 6.01a1.02 1.01 72.9 0 1-0.46 0.89c-5.36 3.47-14.3 7.96-20.52 13.53a0.3 0.29-43 0 0-0.02 0.43l0.24 0.23q0.07 0.07 0.14 0.01c6.26-5.02 13.77-8.57 20.79-12.58q0.49-0.29 0.84 0.17c11.68 15.56 39.07 13.78 51.17-0.06q0.32-0.37 0.73-0.1c8.44 5.52 18.85 8.98 25.36 16.57a0.45 0.45 0 0 0 0.72-0.52c-4.19-6.98-15.31-11.59-22.28-15.46q-4.85-2.69-1.5-7.55 0.26-0.38 0.64-0.12c9.23 6.12 18.59 3.64 26.33-3.2q0.36-0.32 0.66 0.06c6.98 9.05 15.63 22.17 7.4 32.7-6.71 8.58-25.66 8.8-35.41 8.92a0.56 0.56 0 0 1-0.22-1.07q2.1-0.88 2.8-2.22zm6.14-19.46c-20.35 12.53-54.91 13.67-73.21-0.8a0.56 0.55-45.4 0 0-0.7 0.01q-0.64 0.53-0.02 1.1c3.94 3.7 11.13 6.16 14.45 10.65 3.27 4.44 6.95 10.06 10.74 13.26 14.48 12.29 26.75-4.06 36.21-13.69 3.47-3.52 7.21-5.67 11.34-8.1q1.33-0.79 1.68-2.06 0.23-0.81-0.49-0.37zm-13.52-96.85c16.32 7.77 23.04 27.75 24.35 44.36q0.04 0.57-0.52 0.5c-2.82-0.33-5.58-0.9-8.24-0.65-13.13 1.21-18.56 10.16-19.31 22.33a0.81 0.81 0 0 1-1.25 0.62l-4.52-2.96a1.05 1.06 36.1 0 1-0.24-1.55q11.11-13.67 7.44-31.09-0.52-2.46-3.08-4.2c-5.41-3.66-9.44 5.66-10.49 9.27q-3.08 10.63-1.03 21.72 0.09 0.53-0.44 0.51l-10.04-0.34q-0.63-0.02-0.53-0.64c1.08-7.1 0.95-30.97-9.68-32.03a1.33 1.29 29.3 0 0-0.9 0.24q-4.33 3.06-4.87 8.43-1.54 15.32 7.62 27.3 0.32 0.43-0.08 0.78l-5.09 4.43a0.5 0.5 0 0 1-0.82-0.43q1.34-11.51-6.34-18.89c-7.18-6.89-14.93-6.58-23.81-3.57a0.66 0.66 0 0 1-0.86-0.75q3.46-19.02 14.79-33.68c13.37-17.33 39.66-18.42 57.94-9.71zm-38.61 2.53c-2.91-0.95-5.98 2.22-7.46 4.33q-0.16 0.23 0 0.51 0.31 0.53 0.72 0.08 2.76-3.04 6.71-4.03 1.56-0.39 0.03-0.89zm40.24 3.6q-3.04-3.86-7.97-3.56a0.47 0.47 0 0 0-0.09 0.92q4.03 1.05 7.54 3.22 1.89 1.16 0.52-0.58zm1.98 11.44c-1.73-9.06-9.15-16.03-16.48-5.32a0.8 0.8 0 0 0 1.23 1.01c1.19-1.21 2.77-2.97 4.47-3.42 4.8-1.28 8.11 4.34 9.55 8.09a0.64 0.65 28.9 0 0 1.23-0.36zm-38.34-8.73c-6.04-3.95-11.24 5.42-12.18 10.06a0.53 0.52 63.3 0 0 0.99 0.33c2.61-5.62 7.94-12.32 13.83-4.97a0.82 0.82 0 0 0 1.39-0.83c-0.92-2.16-2.07-3.31-4.03-4.59z" stop-color="#000000" style="-inkscape-stroke:none;font-variation-settings:normal" />
            <path class="oeil gauche" d="m149.06 109.73-1.59 0.95q-1.5 0.88-1.45-0.86c0.21-6.93 1.61-16.41 7.44-21.11a2.06 2.06 0 0 1 2.5-0.05q2.02 1.47 2.48 4.15c1.41 8.25 0.32 21.35-6.46 27.35q-0.35 0.3-0.21-0.14c0.94-2.99 1.84-8.47-1.75-10.31q-0.49-0.26-0.96 0.02z" />
            <path class="lunettes gauche" d="m178.78 105.78c9.42-0.39 16.44 6.71 18.78 15.2 3.95 14.31-15.86 26.73-27.84 18.96-3.31-2.14-8.82-10.72-9.15-14.75-0.84-10.6 7.75-18.97 18.21-19.41zm-3.951 15.612a0.4 2.44 47.5 0 0-2.0692 1.3535 0.4 2.44 47.5 0 0-1.5288 1.9433 0.4 2.44 47.5 0 0 2.0692-1.3535 0.4 2.44 47.5 0 0 1.5288-1.9433zm6.6888 0.432a0.51 6.19 51.7 0 0-5.1739 3.4362 0.51 6.19 51.7 0 0-4.5417 4.2366 0.51 6.19 51.7 0 0 5.1739-3.4362 0.51 6.19 51.7 0 0 4.5417-4.2366z" />
            <path class="oeil droite" d="m129.59 108.79c-3.95 2.06-2.31 8.46-0.42 11.14a0.7 0.69-84.9 0 1-1.06 0.89c-6.06-6.2-11.68-26.74-3.89-32.78q0.38-0.29 0.84-0.17c6.38 1.65 8.6 15.26 8.7 20.64a0.87 0.87 0 0 1-1.49 0.62q-0.72-0.76-1.86-0.6-0.43 0.05-0.82 0.26z" />
            <path class="lunettes droite" d="m117.31 114.5a18.06 18.45 66.1 0 1-9.5511 23.986 18.06 18.45 66.1 0 1-24.185-9.0365 18.06 18.45 66.1 0 1 9.5511-23.986 18.06 18.45 66.1 0 1 24.185 9.0365zm-16.634 4.6722a0.26 0.26 0 0 0-0.3607-0.0714l-5.7171 3.8273a0.26 0.26 0 0 0-0.0714 0.3607l0.3004 0.4488a0.26 0.26 0 0 0 0.3607 0.0714l5.7171-3.8273a0.26 0.26 0 0 0 0.0714-0.3607zm6.782 0.1182a0.65 8.26 51.3 0 0-6.8528 4.6572 0.65 8.26 51.3 0 0-6.04 5.6718 0.65 8.26 51.3 0 0 6.8528-4.6572 0.65 8.26 51.3 0 0 6.04-5.6718z" />
            <path id="nez" d="m121.51 129.7c8.59-11.8 24.11-13.44 33.54-1.63a1.17 1.16 70.2 0 0 0.9 0.43h2.06q0.49 0 0.85 0.33c3.32 3.02 7.67 9.02 6.04 13.78-5.62 16.48-34.46 18.07-46.24 8.62-6.87-5.5-5.75-15.05-0.21-21.08q0.57-0.62 1.16-0.64 0.54-0.02 1.02 0.33 0.51 0.36 0.88-0.14z" />
            <g id="bouche">
                <path class="fond" d="m119.01 166.69c7.5 0.3 15.46 2.39 22.77 1.37q8.43-1.19 16.73-1.78a0.95 0.95 0 0 1 0.91 1.39c-1.9 3.65-4.18 4.15-8.45 4.25q-4.51 0.1-8.59 2.16-0.43 0.22-0.83-0.04-8.56-5.59-17.36 0a0.72 0.71 55.4 0 1-0.96-0.18l-4.63-6.41a0.48 0.48 0 0 1 0.41-0.76z" />
                <path class="langue" d="m139.03 176.16a0.67 0.67 0 0 0 0.89 0.98q5.75-4.05 12.84-3.93a0.81 0.8 21.9 0 1 0.58 1.35c-8.73 9.33-18.84 13.02-28.37 1.66a1.17 1.17 0 0 1 0.41-1.81q6.89-3.19 13.87-0.55a1 1 0 0 1 0.4 1.58z" />
            </g>
        </g>
        <g id="chaussures">
            <path class="tissu gauche" d="m148.14 473.01c-5.77-5.62-11.73-11.34-5.72-19.56a0.8 0.8 0 0 1 1.38 0.18l3.53 8.8a1.72 1.72 0 0 0 2.68 0.7c12.43-10.08 32.62-30.84 47.19-21.79q6.76 4.2 5.4 12.16a1.67 1.65 4.5 0 1-1.63 1.38c-10.86 0.04-20.3 0.91-29.7 6.34q-0.48 0.28-0.5 0.73-0.03 0.49 0.41 0.28c15.37-7.19 30.92-8.14 45.74 1.43q2.79 1.8-0.53 1.75c-8.29-0.12-20.14 1.08-27.34 6.67a0.35246 0.35246 0 0 0 0.37 0.6c13-6.28 31.08-7.81 43.82 0.58q3.02 1.99 4.38 5.1a0.93 0.93 0 0 1-0.68 1.29l-6.46 1.21q-0.27 0.06-0.25 0.34 0.02 0.16 0.02 0.3 0 0.32 0.31 0.3c5.71-0.39 17.84 0.64 21.5 5.83q0.26 0.38 0.21 0.84c-1.57 13.8-31.68 9.87-40.34 7.68q-0.51-0.13-0.43 0.39 0.08 0.5 0.8 0.73 3.01 0.94 5.4 1.93a0.92 0.92 0 0 1-0.18 1.76c-19.8 3.76-35.42-0.71-52.18-10.55q-0.43-0.25-0.92-0.2c-10.87 1.23-26.84-4.84-21.27-19.05q0.18-0.45 0.6-0.19l4.03 2.51a0.3 0.3 0 0 0 0.36-0.47z" />
            <path class="tissu droite" d="m129.14 472.8 2.5-2.94a0.44 0.44 0 0 1 0.74 0.12c5.55 13.18-6.68 19.39-17.25 20.44-1.92 0.19-3.13 0.9-4.98-0.45a0.89 0.87 49.7 0 0-0.9-0.08q-22.6 11.37-47.87 8.47a0.67 0.67 0 0 1-0.33-1.2l2-1.53a0.36 0.36 0 0 0-0.34-0.62q-15.76 5.85-32.16 1.86c-6.72-1.63-14.08-8.06-5.58-13.95q8.29-5.73 18.78-4.66 1.41 0.15 2.47-0.1a0.49 0.48 42.7 0 0-0.04-0.95l-10.61-1.64a0.3 0.3 0 0 1-0.2-0.48c9.41-12.51 29.86-12.97 43.58-8.3a0.35 0.35 0 0 0 0.45-0.41q-0.11-0.46-0.46-0.62-9.47-4.13-18.76-4.11-2.4 0-0.57-1.55c10.15-8.58 25.13-8.2 36.57-3.02q0.76 0.34 0.25-0.32c-4.11-5.43-19.03-5.73-25.4-4.98q-0.47 0.05-0.48-0.42c-0.46-15.41 15.9-25.28 28.07-14.19q10.37 9.45 20.66 19.06 2.71 2.54 8.54 5 0.44 0.18 0.42-0.29-0.18-4.58 1.63-8.8 0.23-0.53 0.71-0.21c7.95 5.25 1.47 14.81-2 20.47a0.35 0.34-9.2 0 0 0.56 0.4z" />
        </g>
    </g>
</svg>