<svg version="1.1" height="136" viewBox="0 0 334 409" xmlns="http://www.w3.org/2000/svg">
    <style>
        .nain {
            --silhouette: #000;
            --peau: #f8d5be;
            --peau2: #f89290;
            --barbe: #fcfbfb;
            --yeux: #fcfbfb;
            --dorure: #e9bc2b;
        }

        #simplet {
            --chapeau: #c57bd4;
            --manteau: #02cc01;
            --pantalon: #72acb9;
            --chaussures: #d8a17c;
            --patch: #d8a17c;
            --bouche-fond: #722222;
            --pupilles: #72acb9;
        }

        #silhouette,
        .silhouette {
            fill: var(--silhouette);
        }

        #chapeau {
            fill: var(--chapeau);
        }

        #barbe {
            fill: var(--barbe);
        }

        .peau {
            fill: var(--peau);
        }

        .oeil {
            fill: var(--yeux);
        }

        .sourcil {
            fill: var(--barbe);
        }

        .sourcil.silhouette {
            fill: var(--silhouette);
        }

        .lunettes {
            fill: var(--lunettes);
        }

        .pupille {
            fill: var(--pupilles);
        }

        #bouche .langue {
            fill: var(--peau2);
        }

        #bouche .fond {
            fill: var(--bouche-fond);
        }

        #manteau .tissu {
            fill: var(--manteau);
        }

        #manteau .manche {
            fill: var(--manches);
        }

        #manteau .patch {
            fill: var(--patch);
        }

        #pantalon {
            fill: var(--pantalon);
        }

        #chaussures {
            fill: var(--chaussures);
        }

        #nez {
            fill: var(--peau2);
        }

        .paupiere {
            fill: var(--peau2);
        }

        .dorure, .bouton, .boucle {
            fill: var(--dorure);
        }

        .main {
            fill: var(--peau);
        }
    </style>
    <g id="simplet" class="nain">
        <path id="silhouette" class="silhouette" d="m178.52 1.2891c-8.8862-0.28875-17.796 2.4158-25.936 8.5508-11.98 9.03-20.141 22.02-21.311 37.01-0.24 3.05-0.86922 5.8403-0.69922 8.8203 0.19334 3.44 0.36 6.7939 0.5 10.061a0.76 0.76 0 0 1-1.1894 0.66016c-13.44-9.32-28.691 0.29033-29.561 15.57-0.81 14.21 11.3 27.419 22.41 34.879 0.32 0.21334 0.37349 0.48079 0.16015 0.80078-5.03 7.64 0.37947 13.27 8.1895 14.1a1.61 1.63 69.6 0 1 0.89062 0.40039c6.17 5.63 11.18 9.839 18.6 13.709a0.5 0.5 0 0 1-0.2207 0.95117c-6.89 0.15-20.099-1.5503-23.969-8.3203-2.7333-4.7933-6.1942-9.0011-10.381-12.621-0.24-0.20667-0.51984-0.31985-0.83984-0.33985-1.3133-0.09333-2.1137-0.69216-2.4004-1.7988-1.62-6.2333-4.2599-11.424-7.9199-15.57-1.8-2.0467-3.2465-5.1804-4.3398-9.4004-0.98-3.78-3.3998-8.4106-7.2598-13.891a1 1 0 0 1-0.12109-0.89844c2.44-7.05 1.0313-12.831-0.88867-20.021-0.72-2.69-0.66953-4.6293 1.2305-6.5293a1.49 1.41 17.8 0 1 0.85937-0.41016c6.2-0.73 11.489-6.0602 9.2988-12.49-1.21-3.55-3.3187-6.97-7.3887-7.75-11.83-2.29-19.001 6.2305-22.191 16.23a1.57 1.57 0 0 1-2.4199 0.79883c-7.0067-5.0133-13.87-10.452-20.59-16.318-6.65-5.8-25.419-15.941-33.299-7.6113-7.77 8.23-1.4697 14.041 6.0703 18.051 4.3 2.2867 8.6694 4.6262 13.109 7.0195 1.8133 0.98666 1.7238 1.751-0.26953 2.291-0.55333 0.14667-1.4216 0.14357-2.6016-0.009765-10.59-1.43-29.92 6.2595-32.77 17.52-1.93 7.61 6.3099 10.99 12.42 9.9102 5.5733-0.99333 11.043-1.874 16.41-2.6406a0.66 0.66 0 0 1 0.4707 1.1992c-5.46 3.87-22.539 14.09-20.859 21.82 0.93 4.25 3.5991 6.2801 8.0391 6.8301 9.4 1.19 18.69-3.5194 24.93-10.609a0.66 0.65 35.4 0 1 0.82031-0.13085c2.92 1.7333 6.027 2.9977 9.3203 3.791 2.49 0.59 3.9894 2.4196 3.8594 4.8496-1.11 20.79-2.0091 39.989 4.3809 58.949 3.19 9.46 13.449 26.981 26.209 20.271a0.56 0.56 0 0 1 0.78125 0.2793c2.74 6.81 6.1698 13.53 13.01 16.83a0.97 0.97 0 0 1 0.38867 1.4004c-1.6933 2.5733-3.3034 5.2071-4.8301 7.9004-2.11 3.73-6.0484 6.1084-8.3984 9.3984-4.14 5.77-8.5412 14.411-4.2012 21.361 0.53 0.86 0.69969 2.3088 0.42969 3.0488-1.2867 3.5867-2.0018 6.7739-2.1484 9.5606-1.22 23.56 2.5695 45.51 9.6895 67.66a0.77 0.77 0 0 1-0.73047 1.0098c-9.15 0.07-13.42-0.84968-17.91 8.0703-0.15333 0.31334-0.40643 0.44706-0.75976 0.40039-5.85-0.71999-14.979-3.0308-14.959 6.6192a1.38 1.4 81.3 0 1-1 1.3398c-1.66 0.5-3.1018 0.53039-4.5918 1.6504-2.1267 1.5867-3.9693 2.42-5.5293 2.5-10.78 0.58-18.58 2.7693-25.08 11.529a1.47 1.44 9.4 0 1-0.76953 0.54101c-5.35 1.6-11.911 2.8298-14.961 8.2598-4.55 8.11 6.5403 14.92 13.32 16.43 5.87 1.3 12.021 0.50047 17.941 1.2305 5.47 0.67 9.6985 3.3503 14.479 4.5703 15.833 4.0667 31.69 4.2395 47.57 0.51953 6.2-1.46 12.221-4.5693 18.201-7.2793 2.67-1.21 6.8894-0.10101 9.9394-0.54101 9.98-1.44 18.826-5.2857 26.539-11.539a1.62 1.61 48.6 0 1 2.1797 0.13868c8.17 8.54 17.991 17.621 30.291 19.291 1.93 0.26 4.0502-0.58039 6.1602-0.65039a0.85 0.85 0 0 1 0.75977 0.41016c9.36 15.86 28.25 13.7 44.83 16.34 10.393 1.6467 20.634 0.64666 30.721-3 4.28-1.54 9.4396-5.6898 8.0996-10.26-0.51-1.73-0.96-2.4303 0.25-4.0703 7.8-10.49-3.7298-19.36-12.09-23.4-0.29999-0.14-0.5376-0.352-0.71093-0.63867-7.61-12.47-12.99-14.931-27.91-14.361-0.28667 0.01333-0.53976-0.0793-0.75976-0.2793-13.36-12.04-23.096-26.531-29.209-43.471a0.58 0.57 71.8 0 1 0.36914-0.75c1.8333-0.56 3.6903-1.0394 5.5703-1.4394 25.62-5.44 20.079-38.739 17.369-56.699-0.81-5.36-2.6395-9.4405-0.68946-14.98 4.22-12 5.5925-24.387 4.1191-37.16-0.25333-2.24-1.8161-5.954-4.6894-11.141a0.97 0.96 39.3 0 1-0.08008-0.75l1.8106-5.7402a1.39 1.39 0 0 1 1.5293-0.96876c16.47 2.44 26.94-26.07 27.83-37.9 0.33334-4.44 1.1841-8.2373 2.5508-11.391 0.14-0.31333 0.38071-0.4893 0.72071-0.5293 23.3-2.72 45.62-22.331 38.52-47.631a0.57 0.57 0 0 1 0.60937-0.71875c20.84 2.37 38.85-14.55 28.15-35.58-11.95-23.49-38.71-28.541-62.77-25.811-9.99 1.14-18.181 4.7201-26.961 10.08-0.29334 0.18-0.59373 0.1893-0.90039 0.029297-4.37-2.23-10.289-4.1701-13.939-7.3301-4.18-3.62-7.7291-6.5499-13.869-7.1699-3.46-0.34-4.5802-1.5502-7.2402-3.4902-8.045-5.84-16.909-9.1214-25.795-9.4102z" />
        <g id="chapeau">
            <path class="tissu" d="m236.02 163c5.31-3.21 9.77-14.44 11.69-20.58q0.14-0.43 0.51-0.68l8.48-5.78a0.51 0.51 0 0 1 0.79 0.51c-2.13 13.06-6.27 24.89-15.6 34.57-2.64 2.74-7.1 5.36-11.01 3.83a1.16 1.14-87.2 0 1-0.7-0.79q-1.62-6.22-5.59-11.27a2.81 2.81 0 0 1-0.3-3.01l4.41-8.7a0.69 0.63 87.7 0 1 0.23-0.27q6-3.75 11.47-8.19 1.22-0.99 2.75-1.17a1.85 1.85 0 0 1 1.94 2.49q-3.5 9.2-10.08 16.42a0.57 0.57 0 0 1-0.95-0.18l-0.62-1.65a0.47 0.46 39.6 0 0-0.89 0.08q-0.55 3.33 2.6 4.46 0.45 0.16 0.87-0.09zm-13.02-126.51q-4.44-10.16-11.62-18.62a0.46 0.46 0 0 1 0.41-0.75c10.51 1.5 16.62 13.03 22.83 22.42a0.54 0.54 0 0 0 0.63 0.21q0.12-0.04 0.23-0.08a0.13 0.14 68.7 0 0 0.09-0.18l-4.66-10.68a0.54 0.54 0 0 1 0.59-0.75q0.92 0.17 1.95 0.74 18 10.04 27.31 28.46a0.26 0.25 37.4 0 0 0.48-0.06q0.08-0.39-0.02-0.71-4.59-14.3-17.18-24.05-1.62-1.26 0.05-2.44c22.22-15.74 80.28-12.11 85.96 22.96 2.58 15.93-12.64 25.4-27.36 23.92-3.97-0.4-7.27-3.23-10.68-5.22-5.99-3.49-14.66-2.42-21.64-0.19q-0.65 0.2-0.81-0.45l-1.67-6.61a0.57 0.57 0 0 0-1.12 0.12c-0.09 3.34 1.14 7.24-2.45 9.47q-8.05 5.03-14.66 11.73a0.86 0.86 0 0 1-1.36-0.17l-7.5-12.83a0.41149 0.41149 0 0 0-0.73 0.38l6.94 15.07q0.24 0.53-0.05 1.03l-3.23 5.45q-0.29 0.49-0.75 0.14c-6.59-5.05-10.65-12-13.65-19.12q-5.36-12.67-10.6-25.39c-11.08-26.88-40.57-50.15-66.66-22.46q-4.45 4.72-5.51 11a0.62 0.62 0 0 0 1.19 0.32c6.5-17.62 27.88-27.17 44.36-16.03q0.55 0.37-0.11 0.41-12.35 0.68-23.39 7.6c-18.22 11.42-26.73 29.38-28.35 50.48a0.52 0.52 0 0 1-0.99 0.2c-8.25-16.33-6.91-43.39 4.32-58.79 5.92-8.12 14.99-15.64 25.14-17.56 25.38-4.79 41.38 10.89 53.29 30.76q0.24 0.39 0.72 0.56 0.45 0.15 0.26-0.29z" />
        </g>
        <g id="mains">
            <path class="main droite" d="m43.17 58.85c-2.34-3.14-4.41-5.94-7.84-8.06-5.21-3.22-18.71-8.15-17.77-15.14 0.88-6.56 8.2-7.07 13.68-5.53q9.13 2.59 16.53 8.63 11.69 9.57 23.7 18.75c1.06 0.81 1.45 1.97 1.27 3.21a0.48023 0.48023 0 0 0 0.93 0.24c2.6-6.85 5.41-16.33 12.18-20.21 4.51-2.58 13.14-3.11 15.11 3.34 2.18 7.17-4.68 10.9-10.81 10.63q-0.87-0.04-0.34 0.65l0.85 1.11a0.72 0.7-52.5 0 1 0.08 0.7c-1.01 2.3-1.8 4.16-1.07 6.77 2.67 9.6 3.23 23.96-9.81 26.03a0.51 0.51 0 0 0-0.05 0.99q3.34 0.86 6.49-0.6a0.52 0.51-16.2 0 1 0.73 0.4c2.89 21.44 2.96 44.88-0.8 66.15q-0.11 0.64-0.5 0.12-17.61-22.97-26.82-50.5a0.96 0.95 75.2 0 1 0.72-1.24q4.98-1.03 10.06-3.05 0.77-0.3 0.72-0.93-0.03-0.45-0.47-0.35-4.38 1.05-11.92 0.94-8.3-0.11-13.76-4.19-0.35-0.26-0.66 0.05-8.32 8.22-19.55 10.85c-5.56 1.3-10.97 0.55-11.69-6.05a1.7 1.68 56.4 0 1 0.19-0.96c4.57-8.38 15.71-11.72 21.5-19.48q0.32-0.43 0.12-0.91c-0.9-2.15-2.53-2.6-4.81-2.28q-12.35 1.74-18.59 2.26c-3.83 0.33-6.86-1.82-6.48-5.93 1.22-13.5 27.92-15.83 38.61-15.86q0.68 0 0.27-0.55zm32.9 28.14c-0.91-6.25-5.66-11.97-12.49-11.41a0.47 0.47 0 0 0-0.02 0.93c7.59 0.86 8.39 5.32 12.07 10.66q0.59 0.84 0.44-0.18z" />
        </g>
        <g id="visage">
            <path class="peau" d="m182.34 160.62a0.74 0.73 63.5 0 1-0.41 1.23l-13.89 2.36q-0.99 0.17-0.56-0.74l4.55-9.83a0.84 0.84 0 0 1 1.19-0.37q5.08 3.05 9.12 7.35zm-71.9-76.52c1.93-1.56 2.48-3.98 5.81-3.62 6.31 0.67 14.55 12.86 17.56 17.95a0.63 0.62 55.2 0 1-0.14 0.81c-2.49 2.03-4.86 4.07-4.11 7.61a0.64 0.64 0 0 0 1.27-0.08q0.31-3.58 3.38-5.4a0.72 0.72 0 0 1 0.87 0.11q2.68 2.69 2.43 6.5a0.8 0.82 79.7 0 1-0.49 0.69q-8.18 3.59-8.58 12.09c-0.12 2.32 0.91 4.82 1.55 7.2q0.15 0.54-0.41 0.47c-6.27-0.8-6.73-5.57-4.63-10.41q0.85-1.99-0.96-3.16c-12.82-8.27-29.98-31.85-14.94-45.79q8.72-8.07 19.46 0.17c5.07 3.89 6.33 10.58 9.26 15.98 2.68 4.95 3.24 10.5 4.3 15.89q0.09 0.45-0.26 0.75l-2.97 2.56a0.47 0.47 0 0 1-0.75-0.21c-2.98-9.15-9.3-19.5-17.63-24.01-4.81-2.61-8.57-2.46-10.78 3.35a0.48 0.49 81 0 0 0.76 0.55zm132.54 17.4c4.71-16.92 32.65-37.51 49.96-26.2 11.62 7.59 6.99 24.79-0.58 34.06q-11.96 14.63-30.5 16.48a2.24 2.24 0 0 0-1.76 1.19c-2.79 5.37-8.55 11.88-15.24 11.41q-0.7-0.05-0.34-0.65 3.94-6.74 4.01-14.56a0.38 0.38 0 0 0-0.75-0.1c-3.83 15.03-14.15 24.7-29.23 28.3a0.28 0.28 0 0 1-0.31-0.42l6.95-11.57a0.53 0.53 0 0 0-0.82-0.65c-7.49 7.28-11.45 19.94-20.66 24.66-11.25 5.76-25.68-9.91-33.29-16.94a0.41 0.41 0 0 0-0.68 0.37q0.29 1.61 1.61 2.54a0.51 0.51 0 0 1-0.43 0.91c-10.88-2.95-47.71-17.68-38.43-35.18q2.24-4.22 7.38-5.59 0.62-0.16 0.35-0.75l-0.46-1.02q-0.21-0.45 0.05-0.88 1.59-2.56 4.35-3.59 0.61-0.22 0.43-0.85c-8.42-29.82 7.94-69.92 41.2-76.05 5.28-0.97 11.38-0.97 15.25 2.8 4.23 4.13 8.11 8.01 11.41 12.92a0.28 0.28 0 0 1-0.42 0.36c-3.71-3.33-8.46-7.14-12.07-0.55a0.54 0.54 0 0 0 0.86 0.63c6.47-6.67 12.51 4.38 13.7 9.41q0.07 0.32 0.28 0.43 0.39 0.22 0.34-0.23l-0.4-3.4a0.61 0.6 31.9 0 1 1.17-0.27c5.79 16.09 11.01 35.51 23.26 47.54q1.33 1.32 3.39 5.48 0.26 0.52 0.42-0.04zm-69.53-57.59c-0.17-3.45-4.17-3.86-6.58-2.25q-5.36 3.59-7.79 10.27a0.34 0.34 0 0 0 0.61 0.28c2.05-3.53 8.3-13.68 13.16-8.06a0.34 0.34 0 0 0 0.6-0.24zm32.57 1.39a1.93 1.92 48.3 0 0-2.34-0.14q-4.57 3.08-6.21 8.31-0.3 0.99 0.42 0.26c2.87-2.89 6.92-8.08 10.4-1.98q2.21 3.87 2.86 5.72a0.29 0.29 0 0 0 0.55-0.05c0.69-4-2.56-9.45-5.68-12.12zm-36.96 4.43a2.22 2.22 0 0 0-3.29-0.17q-5.1 5.06-7.7 11.81a0.26 0.26 0 0 0 0.45 0.25c1.51-2.02 5.1-7.59 7.2-8.61 2.93-1.41 3.88 2.05 4.83 3.93a0.48 0.48 0 0 0 0.91-0.2q0.1-3.95-2.4-7.01zm31.46 19.33q-0.22-3.66 0.73-7.21 0.05-0.18-0.08-0.3l-0.24-0.25a0.18 0.18 0 0 0-0.29 0.06l-3 7.63a1.1 1.06 89 0 1-0.54 0.58c-6.64 3.25-9.4 12.01-9.43 18.94-0.03 8.32-0.62 15.87 5.63 22.39a0.95 0.94 34 0 1 0.2 1c-0.72 1.85-2.58 6.54-5.49 4.61q-6.65-4.41-14.5-5.17a0.25 0.25 0 0 1-0.05-0.48c4.22-1.43 3.16-4.42 2.7-7.91-0.99-7.46-3.05-14.31-5.31-21.44q-1.43-4.53-2.81-5.79-4.56-4.21-6.56-10.86a0.48052 0.48052 0 0 0-0.94 0.2l0.9 7.05a0.63 0.62 20.8 0 1-1.09 0.49l-4.48-5.13q-0.2-0.23-0.34 0.04-0.2 0.35 0 0.7 1.85 3.33 3.53 6.77 0.22 0.45 0.12 0.94-3.18 15.69 4.8 29.34 0.32 0.54-0.3 0.49c-6.71-0.58-14.97-0.56-20.32 4.14a0.28 0.28 0 0 0 0.29 0.47c7.6-3.17 20.37-5.42 26.87 1.34q0.32 0.33-0.11 0.5-7.74 2.95-4.86 10.95a1.45 1.45 0 0 1-1.29 1.94c-5.58 0.28-14.44 0.51-17.12 6.21a0.34 0.34 0 0 0 0.55 0.38c4.53-4.7 13.42-4.44 19.6-4.96a1.2 1.16 62.5 0 1 0.87 0.29c7.88 7.07 20.95 9.13 27.35-1.06q0.28-0.43 0.76-0.25c10.11 3.87 29.75-8.84 37.3-2.13a0.47056 0.47056 0 0 0 0.69-0.64q-3.25-4.17-8.76-3.12c-8.93 1.71-19.47 5.02-28.53 3.37a0.92 0.9 83.7 0 1-0.67-0.55c-0.77-1.94-2.32-4.43-2.02-6.42 0.57-3.74 5.42-6.75 8.82-8.11q10.94-4.37 22.6-2.34 2.17 0.38 0.33-0.84c-4.75-3.14-17.81-0.97-23 0.72q-0.59 0.19-0.42-0.41 3.16-11.27 3.57-22.94c0.19-5.44 0.09-6.82-2.85-10.79a0.8 0.79 44.7 0 1-0.01-0.94q3.47-4.79 4.83-9.76 0.1-0.36-0.31-0.47-0.35-0.09-0.51 0.23-2.41 4.86-6.2 8.73-0.56 0.58-0.61-0.23zm56.6 33.79q9.16-11.69 23.48-15.34a0.14 0.14 0 0 0-0.03-0.27c-13.11-0.1-28.3 12.56-30.92 25.38a0.35 0.35 0 0 0 0.61 0.3c2.07-2.43 2.83-4.9 5.36-7.1a1.55 1.55 0 0 1 2.49 0.67c1.53 4.47-3.16 14.64-5.62 18.25a0.33034 0.33034 0 0 0 0.51 0.42q6.43-6.12 7.56-14.42c0.34-2.49-0.27-6.93-3.3-7.51q-0.38-0.08-0.14-0.38zm-48.5-4.38 0.34 1.11a0.17 0.17 0 0 0 0.22 0.11l6.98-2.15a0.67 5.38 72.9 0 0 4.95-2.22l-0.05-0.16a0.67 5.38 72.9 0 0-5.34 0.94l-6.98 2.15a0.17 0.17 0 0 0-0.12 0.22zm-50.09 3.87 0.16-1.31a0.16 0.16 0 0 0-0.14-0.18l-0.16-0.02a10.02 0.5 6.9 0 0-10-0.71l-0.08 0.64a10.02 0.5 6.9 0 0 9.89 1.7l0.16 0.02a0.16 0.16 0 0 0 0.17-0.14zm32.3 38.73c-10.09 0.82-20.83-4.77-28.64-10.78q-0.57-0.44-0.61 0.29-0.02 0.38 0.37 0.72 11.43 10.19 22.32 20.92 3.88 3.82 9.88 5.36c13.43 3.43 16.01-14.26 21.13-22.06 3.15-4.81 6.39-6.72 10.26-9.92a0.34 0.34 0 0 0-0.27-0.6c-3.47 0.57-8.5 5.16-13.45 8.55q-9.66 6.6-20.99 7.52z" />
            <path class="oeil gauche" d="m201.06 72.94c5.55 3.21 3.17 16.91 2.22 22.05a0.45 0.45 0 0 1-0.88 0.05c-0.92-3.21-4.13-4.9-7.03-2.73-3.09 2.31-3.94 7.65-4.12 11.18a0.33 0.33 0 0 1-0.64 0.1c-1.87-5.37-0.87-9.69-1.13-15.08-0.23-4.67 4.37-19.75 11.58-15.57z" />
            <path class="pupille gauche" d="m196.18 101.51q-1.87 3.23-0.13 6.74 0.22 0.46-0.29 0.47-0.44 0-0.64-0.38c-2.39-4.47-2.81-12.83 2.49-15.68a1 1 0 0 1 0.94 0c2.67 1.42 3.09 5.61 2.28 8.1a0.49 0.49 0 0 1-0.79 0.22c-1.49-1.32-2.82-1.26-3.86 0.53z" />
            <path class="oeil droite" d="m164.98 75.7c4.05 3.15 6.79 13 7.88 18.07a0.66 0.65 6.1 0 1-0.91 0.73c-6.24-2.81-5.42 8.37-4.38 11.21a0.34 0.34 0 0 1-0.51 0.39c-6.31-4.39-9.12-23.76-4.82-29.98a1.91 1.91 0 0 1 2.74-0.42z" />
            <path class="pupille droite" d="m171.55 102.73-0.07 2.92q-0.01 0.63 0.24 1.21l0.57 1.32a0.38 0.37 10.8 0 1-0.61 0.41q-4.93-4.8-2.92-11.57a1.23 1.22 87.5 0 1 0.72-0.79c3.42-1.33 4.04 1.98 4.61 4.33q0.12 0.51-0.36 0.7l-1.61 0.65q-0.55 0.22-0.57 0.82z" />
            <path id="nez" d="m189.15 119.96 0.17-0.85a0.62 0.62 0 0 1 0.86-0.44c3.63 1.61 4.26 4.47 1.8 7.58-5.3 6.68-15.98 4.63-21.54 0.05-3.32-2.75-5.71-9.87 0.14-11.98 6.54-2.37 13.1 1.77 17.71 5.93q0.68 0.61 0.86-0.29z" />
            <g id="bouche">
                <path class="fond" d="m196.53 147.55c-4.09-0.53-7.12 0.55-9.15 4.17q-0.34 0.61-0.83 0.1l-9.03-9.33a0.46 0.45 77.1 0 1 0.47-0.75c10.88 3.68 21.72 1.08 31.74-3.81a0.57 0.57 0 0 1 0.82 0.53q-0.09 4.69-4.23 4.87c-3.69 0.16-6.14 1.76-8.87 3.96a1.26 1.22 28.3 0 1-0.92 0.26z" />
                <path class="langue" d="m196.06 151.43 0.24 0.25q0.22 0.22 0.42-0.03c2.43-3.13 6.91-7.25 10.99-6.29q0.55 0.13 0.35 0.66c-3.09 7.99-9.3 12.82-17.92 8.28q-1.83-0.97-0.31-3.03 1.75-2.36 5.7-1.41 0.03 0.01 0.63 0.72 0.21 0.24-0.08 0.47a0.25 0.25 0 0 0-0.02 0.38z" />
            </g>
        </g>
        <g id="manteau">
            <path class="tissu" d="m144.08 284.05c-6.16-11.78-12.16-24.91-15.96-38.52a1.19 1.19 0 0 1 1.14-1.51c4.71 0 11.62 0.87 13.44-4.99a1.55 1.55 0 0 1 1.69-1.08c6.9 0.97 17.6 2.81 22.94 7.5 6.34 5.57 11.17 11.91 19.49 15.45 2.85 1.21 5.88 0.87 8.93 0.83q0.49-0.01 0.75 0.4c8.62 13.22 5.67 27.66-0.02 41.26q-0.16 0.37 0.21 0.54 0.68 0.3 1.04-0.46 1-2.08 2.13-3.23 0.53-0.54 0.75 0.19 8.99 30.45 31.84 52.35 0.8 0.75-0.2 1.2-5.16 2.32-9.31 6.14a0.24005 0.24005 0 0 0 0.28 0.39c12.07-6.73 28.52-10.26 36.89 4.08a0.33 0.33 0 0 1-0.37 0.48q-16.79-4.75-31.69 2.3c-6.08 2.89-11.44 8.26-17.75 11.56-7.36 3.85-18.74 8.89-26.96 7.53-10.21-1.69-20-11.42-26.9-18.55-24.42-25.27-39.65-65.66-40.2-100.63-0.11-7.11-0.38-14.79 1.86-21.63q0.16-0.5 0.68-0.59l5.77-0.98q0.74-0.13 0.9 0.6 5.1 22.66 17.5 40.06 5.6 7.85 1.13-0.69zm6.97 54.41c9.94 15.28 23.7 27.77 41.72 32.35 3.09 0.79 5.3 0.65 7.98-0.76a0.76 0.76 0 0 0-0.45-1.42c-18.53 2.46-37.63-17.49-48.88-30.33q-0.11-0.13-0.26-0.05-0.18 0.09-0.11 0.21zm-46.97-46.98q2.45 6.37 1.14-0.33c-2.61-13.44 0.25-29.09 5.37-42.07q1.01-2.57 3.01-4.28a0.86 0.86 0 0 1 1.41 0.79c-5.09 33.44 3.33 66.02 18.9 96.25q0.24 0.46 0.2 0.98c-0.49 7.2-0.59 14.82-4.66 21.16-7.01 10.89-27.27 1.95-35.28-2.89-10.51-6.36-20.69-15.19-33.18-17.03a0.59 0.59 0 0 1-0.51-0.57c-0.28-15.73 36.1 6.8 40.39 9.81a0.54 0.54 0 0 0 0.85-0.48q-0.03-0.51-0.73-1.08-10.91-9.05-23.9-13.93-0.88-0.33-0.55-1.21 2.56-6.89 9.7-6.26 11.28 1 21.85 5.06 0.6 0.23 0.85-0.24a0.4 0.41 28.2 0 0-0.16-0.54q-6.21-3.59-13.13-5.49-0.48-0.13-0.63-0.61-7.64-24.21-9.45-49.44c-0.62-8.72 0.16-37.18 10.4-41.14q1.93-0.74 6.92-1.63 0.57-0.1 0.78 0.44c0.86 2.22 0.28 5.56 2.29 7.3q0.34 0.29 0.79 0.35l2.28 0.31q0.65 0.08 0.38 0.68c-5.5 12.15-10.29 33.17-5.33 46.09zm111.51-131.56c1.62 1.02 3.67 1.59 5.01 2.75q8.78 7.62 5.21 19.49a0.59 0.58 28 0 1-0.93 0.28c-7.2-5.81-15.42-3.32-23.15-0.32-9.94 3.87-23.48 9.4-35.38 11.1-10.95 1.57-21.12-5.45-18.66-17.44q0.2-0.96 1.18-0.9l28.14 1.88a0.46 0.45 57.2 0 0 0.19-0.88q-5.91-2.2-12.44-2.57c-6.84-0.39-21.41 0.33-22.59-8.65-0.93-7.06 5.54-13.94 11.53-17.13q0.43-0.23 0.89-0.07l13.73 4.86q0.57 0.2 0.44 0.78-1.21 5.68-4.36 10.52a0.96 0.96 0 0 1-0.9 0.43q-2.99-0.34-3.61-3.28a1.47 1.52 52.2 0 1 0.14-1l1.45-2.81a0.39 0.39 0 0 0-0.59-0.49q-2.92 2.22-3.41 5.88a1.18 1.15 29.2 0 0 0.27 0.91c7.36 8.47 19.1 0.56 28.09-0.02a1.53 1.54 58.3 0 1 0.91 0.21c11.82 6.91 19.61 4.91 27.44-5.81 2.62-3.58 5.34-4.55 9.55-4.21q0.78 0.06 0.45 0.77l-2.35 5.19q-0.3 0.65-1.01 0.56l-5.01-0.66a0.34 0.34 0 0 0-0.23 0.63zm-8.44 122.76 0.89 0.66q0.39 0.29 0.28 0.78l-1.7 7.59a1.15 1.15 0 0 0 0.54 1.25l5.57 3.26a0.64 0.66 22.9 0 1 0.29 0.74l-0.54 1.79a0.4 0.4 0 0 0 0.66 0.4l1.92-1.8a1.15 1.11 25.4 0 1 0.89-0.3l3.28 0.28q1.93 0.18 0.35 1.29-6.46 4.58-14.39 5.18-0.57 0.04-0.77-0.49-0.95-2.54-1.5-5.14c-0.78-3.7 0.75-7.63 1.55-11.34q3.27-15.02-5.94-26.85-0.32-0.42-0.09-0.89c4.71-9.81 0.53-19.96-4.63-28.91-4.79-8.32 8.55-29.11 14.17-35.76a0.86 0.87 55.9 0 1 1.48 0.28l1.4 4.21a0.52 0.52 0 0 0 1-0.25l-0.89-5.3a1.71 1.72 69 0 1 0.77-1.72l3.08-2a1.47 1.47 0 0 1 2.19 0.77l1.31 3.96a0.51 0.51 0 0 0 0.99-0.2l-0.31-4.5a0.63 0.63 0 0 1 0.63-0.67q3.73 0.02 6.21 2.69 0.32 0.35 0.73 0.11 0.32-0.19 0.11-0.5c-2.5-3.71-8.24-2.94-8.98-6.34a0.47 0.47 0 0 0-0.93 0.04c-0.34 2.92-4.98 4.9-7.43 5.86q-0.4 0.16-0.71-0.14l-1.35-1.3q-0.44-0.42-0.73 0.12-0.33 0.64 0.11 1.05 1.73 1.56 0.25 3.07-12.54 12.81-16.26 30.16a0.63 0.62 25.7 0 1-1.01 0.35q-2.93-2.42-5.9-4.98-0.29-0.24-0.53-0.23-0.17 0.01-0.3 0.09-0.31 0.19-0.08 0.47c6.55 8.08 13.62 18.48 14.92 29.72 0.35 2.96-0.47 7.59-3.51 9.1-11.28 5.58-30.47-25.15-38.32-31.23q-0.56-0.43-1.17-0.4-0.5 0.01-0.17 0.39l4.47 5.07a0.37 0.37 0 0 1-0.42 0.58q-9.46-4.1-19.63-6.5c-13.67-3.23-35.96-2.36-46.24 9.08q-3.12 3.48-5.47 7.59a0.86 0.86 0 0 1-1.55-0.14c-1.49-4.12 0.92-10.35 3.19-13.8q9.17-13.95 25.86-17.52a0.34 0.34 0 0 0-0.07-0.67q-5.94 0.02-11.46 1.96a0.55 0.55 0 0 1-0.65-0.8c7.09-11.75 21.32-18.7 34.58-19.95a0.37 0.37 0 0 0-0.01-0.73l-5.84-0.34a0.44 0.44 0 0 1-0.27-0.77l8.52-7.72a1.02 1.03 57.1 0 0 0.25-1.15l-0.41-0.94a0.52 0.52 0 0 0-0.82-0.19l-3.61 3.14q-0.4 0.35-0.92 0.3l-5.22-0.44q-0.62-0.06-0.3-0.59l4.15-6.89a0.62 0.61 78 0 0-1.03-0.67l-4.74 6.84a0.62 0.62 0 0 1-0.82 0.18l-4.75-2.84a0.62 0.62 0 0 1-0.27-0.72l1.62-5.1q0.07-0.21-0.08-0.36l-0.2-0.19q-0.33-0.33-0.56 0.07l-2.57 4.36q-0.34 0.58-0.87 0.15l-11.44-9.23q-0.39-0.31-0.44 0.18c-0.29 2.81-0.67 15.67-4.52 16.78q-1.57 0.45-2.85-1.52a0.39 0.4 51.7 0 0-0.61-0.07l-0.28 0.29q-0.07 0.07-0.01 0.15l2.38 3.09q0.36 0.47-0.1 0.84c-2.74 2.2-10.83 6.65-10.51-1.25a1.56 1.48 67 0 1 0.34-0.91q4.42-5.41 4.33-12.51a0.46 0.46 0 0 0-0.9-0.13c-2.41 7.21-7.76 17.62-17.29 12.63-17.19-9-18.85-52.04-17.42-68.2a0.37 0.37 0 0 1 0.71-0.12c7.03 15.69 13.78 29.75 25.32 44.19a1 1.01 36.2 0 1 0.15 0.99l-3.06 7.66q-0.2 0.51-0.76 0.56-4.25 0.34-6.18-2.89-5.24-8.78-8.86-18.64a0.34 0.34 0 0 0-0.66 0.16c1.15 7.71 5.51 20.72 13.35 24.31 8.14 3.72 11.08-23.81 11.41-28.4q1.72-23.11-0.2-46.21c-0.25-2.94-1.38-6.9-1.34-10.59a1.27 1.26 17.3 0 1 1.97-1.03c7.95 5.39 11.7 32.32 12.47 40.42q0.89 9.51 1.22-0.04 0.22-6.47-1.2-15.72a0.66 0.66 0 0 1 1.23-0.43c5.96 10.27 6.76 20.54 8.97 31.8q0.16 0.78 0.48 0.06c0.99-2.16 0.06-11.45 0.16-14.38a0.52 0.52 0 0 1 0.84-0.38c6.05 4.75 10.69 13.83 14.06 20.48q2.01 3.95 1.04-0.38-0.13-0.6-1.19-3.27a0.53 0.53 0 0 1 0.69-0.69q8.24 3.35 16.98 4.98a0.33 0.33 0 0 1 0.14 0.59c-6.59 4.94-11.52 17.19-2.48 22.48a0.95 0.95 0 0 1 0.47 0.9q-0.56 6.26 0.74 12.39 0.13 0.61-0.45 0.84c-1.5 0.6-2.83 0.67-3.93 1.91-4.19 4.71-0.72 9.62 4.51 11.74q11.02 4.47 18.44-4.26 0.33-0.39 0.84-0.34c3.26 0.34 9.74-2.03 13.09-2.96 11-3.06 22.16-9.02 31.91-11.26 12.52-2.89 19.73 5.75 20.53 17.64q1.05 15.67-3.62 30.75-0.16 0.5-0.66 0.64-1.85 0.54-1.53 3.21 1.76 14.83 2.58 20.11 0.08 0.56-0.4 0.25l-4.75-3.09q-0.57-0.37-0.78-1.03l-2.25-7.09a0.40262 0.40262 0 0 0-0.78 0.2l1.04 5.75a0.97 0.98 84.8 0 1-0.96 1.15h-4.75a1.91 1.91 0 0 0-1.9 1.75l-1.33 15.98a0.87 0.88 16.7 0 1-1.29 0.7q-0.94-0.51-1.99-0.68-1.18-0.2-0.26 0.57 1.33 1.12 2.89 1.87 0.59 0.28 0.48 0.92l-1.51 9.03q-0.1 0.62-0.66 0.91l-0.9 0.49q-0.53 0.28-0.05 0.64zm-58-70.251a14.16 9.09 0.2 0 0-14.128-9.1393 14.16 9.09 0.2 0 0-14.192 9.0405 14.16 9.09 0.2 0 0 14.128 9.1393 14.16 9.09 0.2 0 0 14.192-9.0405z" />
            <path class="patch gauche" d="m215.76 272.04a0.52118 0.52118 0 0 0 0.16-1.03l-3.36-0.64a0.43 0.42 7 0 1-0.35-0.44l0.73-16.91a1.17 1.17 0 0 1 1.45-1.09l4.7 1.18a1.04 1.03-2 0 1 0.72 0.66q0.65 1.87 0.94 3.72 0.09 0.59 0.5 0.83 0.5 0.29 0.5-0.29v-3.51q0-0.56 0.53-0.37c5.97 2.15 6.15 6.45 6.73 12.65 0.87 9.23 0.18 20.44-5.84 28.02a0.98 0.96-69.3 0 1-0.8 0.37l-3.96-0.16q-0.62-0.02-0.91-0.57l-0.4-0.75q-0.25-0.45-0.75-0.33-4.14 1.05-7.52-1.6-0.43-0.33-0.29-0.85l1.81-7.11q0.16-0.62 0.79-0.66l5.34-0.34a0.64 0.63-1.5 0 0 0.6-0.62q0.02-0.68-0.8-0.55-2.57 0.41-5.12 0-0.57-0.1-0.47-0.66l1.43-8.6a0.83 0.83 0 0 1 0.92-0.69z" />
            <path class="patch droite" d="m123.86 187.16 2.58-2.08a0.71 0.7 31.3 0 1 0.59-0.14l4.54 0.97q1.27 0.27 0.26 1.09-4.48 3.67-9.15 5.81c-6.61 3.05-12.09 6.05-17.82 10.63a0.87 0.87 0 0 1-0.92 0.1q-6.52-3.14-10.4-9.22a0.57 0.56-20.9 0 1 0.39-0.86q4.77-0.78 8.39-3.98 0.42-0.38 0.95-0.19l2.78 0.95a0.53 0.53 0 0 0 0.47-0.93l-2.72-1.88q-0.49-0.34-0.08-0.76c2.97-3.08 3.96-9.2 4.23-13.27a0.7 0.69-69.2 0 1 1.12-0.51l8.65 6.72q0.48 0.37 0.25 0.94l-1.47 3.73a0.47 0.47 0 0 0 0.83 0.42l1.8-2.91q0.47-0.74 1.25-0.35l3.49 1.75a1.19 1.18 30.1 0 1 0.46 1.72l-1.11 1.66a0.44 0.44 0 0 0 0.64 0.59z" />
            <path class="bouton haut" d="m149 191.03c2.6 1.99 8.07 5.48 11.39 5.75a0.47 0.46-56.2 0 1 0.17 0.88c-5.67 2.92-15.29 3.19-19.03-3.11a2.5 2.48 43 0 1-0.09-2.36c1.74-3.54 4.6-3.43 7.56-1.16zm7.26 5.18c-4.24 1-9.24-1.06-12.67-3.42q-0.36-0.25-0.68 0.06-0.72 0.7 0.12 1.43 5.14 4.46 12.79 3.35 0.74-0.11 1.03-0.66a0.53 0.53 0 0 0-0.59-0.76z" />
            <path class="bouton bas" d="m147.01 211.92a11.76 6.66-0.7 0 1-11.678 6.8032 11.76 6.66-0.7 0 1-11.84-6.5158 11.76 6.66-0.7 0 1 11.678-6.8032 11.76 6.66-0.7 0 1 11.84 6.5158zm-2.0291-0.2163c-7.05 2-12.2 1.74-19.12 0.52a0.69 0.69 0 0 0-0.7 1.05c0.18 0.28 0.58 0.63 0.94 0.75 4.36 1.31 15.99 2.32 19.41-1.48a0.52 0.52 0 0 0-0.53-0.84z" />
            <path class="boucle" d="m113.2 235.94q8.23 0.32 16.54-0.47c5.04-0.48 5.33-2.35 6.17-6.76a0.68 0.67 8.8 0 1 0.74-0.54l3.28 0.35a0.75 0.75 0 0 1 0.67 0.76c-0.03 2.06 0.66 12.12-3.91 12.39q-14.21 0.83-28.4 1.05a1.59 1.59 0 0 1-1.58-1.25c-0.72-3.32-1.23-13.1 3.71-12.76q0.59 0.04 0.62 0.63l0.29 4.78a1.95 1.94-0.6 0 0 1.87 1.82z" />
        </g>
        <g id="pantalon">
            <path class="tissu" d="m136 346.7q0.07-1.34 0.99-0.36 2.35 2.51 4.72 5.68c2.99 3.99-1.74 7.51-5.32 8.13a0.94 0.94 0 0 1-1.1-0.98z" />
        </g>
        <g id="chaussures">
            <path class="gauche tissu" d="m223.3 397.97q1.34 2.06 3.21 3.6a0.62 0.62 0 0 1-0.4 1.1c-9.17-0.05-24.97-3.27-29.46-12.67a1.2 1.2 0 0 1 0.53-1.59q13.73-7.16 26.8-15.67c14.5-9.44 31.73-8.65 45.97 0.54 4.81 3.1 9.87 10.3 3.68 15.12q-0.4 0.32-0.81 0.02c-9.24-6.74-22.8-6.97-31.54 1.18a0.35 0.35 0 0 0 0.41 0.56c8.77-4.82 17.91-6.56 26.9-0.96 6.89 4.29 4.4 9.58-2.27 12.11q-22.45 8.54-42.63-3.74-1.08-0.66-0.39 0.4z" />
            <path class="droite tissu" d="m91.32 372.42q-0.14-0.26-0.31-0.7-0.14-0.36-0.4-0.62-15.68-16.35-37.31-22.39a0.53 0.52 46.3 0 1 0.02-1.02q9.37-2.15 17.59 2.49 12.05 6.82 23.87 14.06c10.66 6.54 31.66 13.71 38.66-1.23a0.82 0.82 0 0 1 0.77-0.47q5.79 0.29 9.44-4.2a0.55 0.55 0 0 1 0.86 0.01l6.7 8.58q0.98 1.26-0.29 2.22-12.91 9.73-29.06 11.56a0.37 0.37 0 0 1-0.31-0.63l0.91-0.91a0.36 0.36 0 0 0-0.42-0.57c-22.98 11.8-51.79 16.22-75.96 6.07a0.37 0.36-45.2 0 1 0-0.67l8.7-3.83a0.51 0.51 0 0 0-0.3-0.97c-9.91 1.78-19.65 4.9-30.2 2.58-4.7-1.03-16.92-4.18-17.01-10.14-0.05-3.39 4.09-6.04 6.99-6.86 8.78-2.49 19.25-2.37 27.01 3.03q0.79 0.55 0.44-0.34c-1.81-4.67-10.73-6.88-15.14-7.52q-0.64-0.09-0.27-0.62c3.2-4.51 10.16-7.21 15.25-8.12 16.35-2.92 37.74 10.8 49.26 21.59a0.32 0.32 0 0 0 0.51-0.38z" />
        </g>
    </g>
</svg>