<svg version="1.1" height="153" viewBox="0 0 249 461" xmlns="http://www.w3.org/2000/svg">
    <style>
        .nain {
            --silhouette: #000;
            --peau: #f8d5be;
            --peau2: #f89290;
            --barbe: #fcfbfb;
            --yeux: #fcfbfb;
            --dorure: #e9bc2b;
        }

        #timide {
            opacity: 1;
            --chapeau: #58afc7;
            --manteau: #f6b802;
            --pantalon: #cf4e01;
            --chaussures: #d69d78;
            --patch: #d69d78;
            --manches: #fd8d46;
            --bouche-fond: #722222;
            --pupilles: #78340e;
            --lunettes: #5cb3c9;
            --peau2: #d69d78;
        }

        #silhouette,
        .silhouette {
            fill: var(--silhouette);
        }

        #chapeau {
            fill: var(--chapeau);
        }

        #barbe {
            fill: var(--barbe);
        }

        .peau {
            fill: var(--peau);
        }

        .oeil {
            fill: var(--yeux);
        }

        .sourcil {
            fill: var(--barbe);
        }

        .sourcil.silhouette {
            fill: var(--silhouette);
        }

        .lunettes {
            fill: var(--lunettes);
        }

        .pupille {
            fill: var(--pupilles);
        }

        #bouche .langue {
            fill: var(--peau2);
        }

        #bouche .fond {
            fill: var(--bouche-fond);
        }

        #manteau .tissu {
            fill: var(--manteau);
        }

        #manteau .manche {
            fill: var(--manches);
        }

        #manteau .patch {
            fill: var(--patch);
        }

        #pantalon {
            fill: var(--pantalon);
        }

        #chaussures {
            fill: var(--chaussures);
        }

        #nez {
            fill: var(--peau2);
        }

        .paupiere {
            fill: var(--peau2);
        }

        .dorure {
            fill: var(--dorure);
        }

        .main {
            fill: var(--peau);
        }
    </style>
    <g id="timide" class="nain">
        <path id="silhouette" class="silhouette" d="m148.19 459.08q-8.54-2.11-16.61 0.06-3.6-0.09-6.09-0.9-4.26-1.38-7.88-0.67c-8.66 1.71-21.6 1.38-29.38-3.8-4.69-3.12-5.73-8.03-1.77-12.35a0.6 0.59 25.8 0 0-0.35-0.99c-11.46-1.83-19.9-3.44-30.05-10.25-9.08-6.09-10.45-15.67-9.28-25.93 0.72-6.28 1.49-12.42 3.44-18.42q7.58-23.41 22.11-43.09a1.13 1.13 0 0 0-0.78-1.79c-7.62-0.84-16.7-6.5-14.52-15.29 1.03-4.17 5.61-9.96 8.37-14.2q3.14-4.83 5.28-10.67a1.46 1.46 0 0 0-1.36-1.96c-3.69-0.03-4.05-2.79-6.25-4.78q-0.35-0.31-0.82-0.31c-7.44-0.04-12 0.91-18.59-3.35q-0.41-0.27-0.88-0.12c-12.81 4.1-27.46 2.41-36.25-8.12-12.56-15.05-3.81-36.11 7.01-48.89 6.48-7.65 13.97-15.25 19.45-23.64a2.77 2.77 0 0 0 0.05-2.93q-6.27-10.43-8.69-22.96c-0.19-1.01-2.5-3.14-3.08-4.56-4.93-12.06-0.81-21 0.19-32.98 0.72-8.52 3.42-14.85 8.58-21.32a1.31 1.3 61.4 0 0 0.27-0.93c-0.27-2.89-1.07-5.64-1.07-8.39 0-5.38-0.83-11.03-0.75-16.08q0.45-26.61-1.13-50.53c-0.99-15.06-19.14-41.4 7.89-46.91 12.29-2.5 26.37 4.22 35.7 11.76 12.17 9.85 22.85 22.28 34.04 33.96 1.91 2 6.88 4.98 10.45 5.16 8.86 0.46 15.62 1.17 23.28 4.89q1.9 0.92 3.88 0.88c7.04-0.15 15.35-0.67 21.88 2.71 20.4 10.56 26.13 30.71 19.39 51.9-2.1 6.62-2.98 11.85-4.34 18.01-2.46 11.13-8.49 21.71-15.85 30.26a0.97 0.97 0 0 0 0.21 1.45c6.08 3.98 14.03 11.42 7.15 19.06q-1.33 1.48 0.57 2.07 16.45 5.06 33.9 7.81c17.47 2.76 32.53 9.48 32.11 29.8q-0.38 18-10.82 32.47-0.3 0.41-0.32 0.91-0.38 6.45-0.68 12.89-0.12 2.53 0.82 4.77c4.23 10.04 9.7 16.43 17.91 26.43q2.43 2.96 3.43 8.02c2.14 10.84-11.82 17.62-20.11 19.2a0.99 0.98-89.5 0 0-0.79 0.78q-3.13 15.47-10.12 29.87-0.96 1.96-0.92 4.12c0.1 7.18-1.15 13.86-1.73 21.04q-0.05 0.52 0.43 0.72 13.67 5.76 6.91 20.26-1.02 2.18-2.21 4.28a0.79 0.79 0 0 0 0.07 0.89c7.2 9.01 15.97 20.27-1.9 25.13q-5.88 1.6-11.61 3.68-4.5 1.63-9.31 4.72c-9.68 6.2-18.76 12.45-30.4 14.86q-10.28 2.12-18.08 2.29zm-3.16-79.2q-4.2 7.01-12.47 9.49-4.21-0.3-7.12 1.8l-5.8 4.22q-0.48 0.35-0.24 0.9 1.04 2.35 3.92 3.23l12.48 7.23q2.47 2.41 3.05 2.01 5.88-0.96 10.53-3.71 2.29-6.75 9.36-9.47 2.21-0.11 4.32-1.32 0.45-0.26 0.97-0.26h0.71a0.51 0.52 0 0 0 0.51-0.52q0-3.45-2.46-6.4l-0.67-1.59q0.17 0.02 0.29 0.01 0.14 0 0.12-0.14l-2.41-14.59a0.78 0.78 0 0 0-0.86-0.64l-10.77 1.39q-0.44 0.05-0.59 0.47z" />
        <g id="chapeau">
            <path class="" d="m93.03 88.29q4.64-1.58 6.45-3.04c16.75-13.56 37.28-30.51 60.81-22.83 13.42 4.38 23.71 16.45 24.08 31.03 0.09 3.43 0.36 13.19-1.99 16.36q-0.54 0.74-0.81-0.14-4.52-14.87-14.39-26.87a0.55 0.55 0 0 1 0.77-0.78q3.15 2.54 5.48 5.78 1.69 2.35 0.65-0.44-0.74-1.96-3.29-4.4c-12.91-12.34-33.05-10.17-46.94-1.1-8.07 5.26-14.33 11.73-21.48 18.03-12.95 11.41-25.48 13.46-41.94 16.01-10 1.54-25.68 7.32-29.14 18.1-1.5 4.66-4.21 7.98-7.01 11.84a0.65 0.65 0 0 1-1.15-0.54c3.71-14.76 10.87-25.2 23.82-33.46a0.18 0.18 0 0 0-0.16-0.32c-5.05 1.89-9.78 6.52-13.44 10.25a0.56 0.56 0 0 1-0.96-0.32q-0.71-5.18-0.79-9.7-0.38-20.63-0.92-41.25-0.39-14.87-1.72-24.76c-1.14-8.53-6.18-16.93-6.47-25.23-0.26-7.48 3.48-14.46 11.44-15.93 18.75-3.46 33.61 7.24 45.93 19.81q11.26 11.49 22.43 23.23 1.12 1.18-0.5 1.14c-7.57-0.21-16.78 0.75-23.83 3.45q-0.41 0.15-0.13 0.48 0.17 0.19 0.44 0.12c9.13-2.38 21.68-4.47 30.56-0.21a0.49 0.49 0 0 1-0.17 0.93q-10.82 0.92-21.34 4.56-0.5 0.18-0.61 0.73-0.1 0.46 0.35 0.32 19.39-6.11 39.54-2.93 5.56 0.87 10.07 3.74a0.37 0.36-36.5 0 1-0.1 0.66c-17.52 4.71-29.06 17.71-43.64 27.48q-0.7 0.47 0.1 0.2z" />
        </g>
        <g id="mains">
            <path class="main droite" d="m79.26 213.87c5.08-6.04 17.53-5.94 16.08 4.02a0.98 0.97 19.6 0 1-1.47 0.69q-6.47-3.91-14.09-3.65a0.65 0.65 0 0 1-0.52-1.06zm-19.28 61.43q0.05 0.65 0.86 0.86 2.86 0.76 5.62 0.26a0.55 0.55 0 0 1 0.4 1c-6.92 4.65-14.27 3.75-18.02-3.77-6.41-12.88-1.91-31.28 3.21-44.8 1.7-4.51 0.19-13.57 0.3-18.7 0.16-7.63 7.47-14.48 13.84-17.7 5.75-2.91 18.36-4.65 17.42 5.28-0.77 8.13-6.84 10.36-13.52 12.69a0.43 0.43 0 0 0 0.14 0.83h1.65a0.53 0.53 0 0 1 0.52 0.62l-0.86 4.76a0.69 0.67 78.6 0 1-0.29 0.45q-1.84 1.31-3.67 2.49-0.38 0.24-0.28 0.65a0.42 0.42 0 0 0 0.6 0.27c6.71-3.57 12.5-5.11 19.83-2.86 8.24 2.54 9.16 10.87 3.78 16.88q-0.35 0.38-0.84 0.22c-7.29-2.37-13.82 1.04-20.76 2.22q-0.57 0.1-0.27 0.59l0.44 0.74q0.25 0.43-0.02 0.85l-2.49 3.78a0.26 0.26 0 0 0 0.03 0.32l0.2 0.2q0.11 0.11 0.21-0.01 6.02-7.47 15.78-8.12c11.78-0.78 19.26 13.77 9.56 21.49-3.82 3.04-9.45 3.58-14.35 3.48a0.51 0.51 0 0 0-0.32 0.92c0.73 0.57 0.97 1.17 0.6 2.09-2.91 7.29-10.37 14.02-18.79 11.61q-0.55-0.16-0.51 0.41zm24.76-20.9 1.59-2.14a0.33 0.33 0 0 0-0.52-0.4q-3.57 4.52-8.95 6.49-0.22 0.08-0.14 0.31 0.04 0.12 0.08 0.26a0.37 0.38 73.1 0 0 0.49 0.26l8.67-3.13q0.38-0.13 0.02-0.31l-1.04-0.51a0.56 0.55 31.7 0 1-0.2-0.83z" />
        </g>
        <g id="visage">
            <path class="peau" d="m82.79 148.95 0.2 0.78q0.17 0.68-0.5 0.9l-1.52 0.5a0.44 0.44 0 0 0 0.14 0.86q3.66 0 6.12 2.53c5.05 5.18 9.77 7.01 17.02 8.42a0.46 0.45 24 0 1 0.28 0.72q-4.69 6.31-4.57 14.04c0.03 2.43 0.99 5.37 1.04 8.06a1.01 1.01 0 0 1-1.72 0.73q-11.27-11.36-11.43-26.24-0.01-0.3-0.04-0.48a0.51 0.5-49.4 0 0-1 0.08q-0.45 15.42 10.42 26.2 2.04 2.02 4.42 2.65a0.67 0.64 78.9 0 1 0.37 0.26l6.51 9.17q0.34 0.48-0.14 0.83c-6.44 4.82-16.7 2.79-22.17-1.87a1.45 1.43 15.2 0 1-0.5-0.86c-0.91-4.8-2.99-5.02-6.22-8.06a1.9 1.87-76.4 0 1-0.52-0.87q-2.01-7.57-2-15.39 0.01-2.97-0.68-0.08-0.87 3.64-0.37 9.27a0.59 0.59 0 0 1-0.66 0.64c-16.94-2.25-33.09-18.95-33.1-35.98 0-12.03 8.69-18.67 19.91-20.7 10.84-1.95 24.63-2.05 30.83-13.92q1.02-1.96 2.46-3.09c18.31-14.28 29.91-32.26 56.12-31.53 15.14 0.42 26.85 23.16 28 36.59 1.42 16.51-6.02 34.14-16.24 46.62-1.99 2.42-7.94 1.69-11.16 2.9q-0.47 0.17-0.53 0.52a0.44 0.43-4.9 0 0 0.58 0.48c6.54-2.26 11.78 0.01 16.17 4.78 4.36 4.74 5.03 9.59-0.24 13.94q-1.9 1.56-3.97 1.42-0.54-0.03-0.75-0.54c-3.61-8.58-11.57-12.74-18.74-17.77a0.68 0.67 53.3 0 1 0.17-1.19c10.56-3.56 16.84-11.9 20.24-22.77q0.14-0.44 0.59-0.43l4.22 0.12a0.69 0.69 0 0 0 0.11-1.37l-3.28-0.44a0.46 0.46 0 0 1-0.11-0.88l3.65-1.53a0.75 0.52-53.9 0 0 0.03-1.28l-2.92 0.82a0.89 0.89 0 0 1-1.11-0.7l-1.22-7.04q-0.33-1.86-2.21-1.63c-12.88 1.64-22.38 14.11-25.24 26.37-1.53 6.53 3.06 10.6 7.83 13.89 4.96 3.42 11.18 7.02 14.15 11.87 6.84 11.18-3.42 22.86-14.13 26.3-24.96 8.02-57.65-17.38-38.02-43.7 7.29-9.77 15.05 1.19 15.79 8.42q0.03 0.26 0.14 0.4 0.1 0.11 0.21 0.18 0.19 0.1 0.18-0.11c-0.36-6.59-3.76-14.3-11.46-14q-0.57 0.02-0.67-0.53l-0.9-4.97a0.45 0.45 0 0 1 0.71-0.45c12.94 9.4 24.78-13.15 27.54-22.02a1.94 1.94 0 0 1 1.46-1.32l5.5-1.11a0.43186 0.43186 0 0 0-0.08-0.86l-5.21-0.01a0.53 0.53 0 0 1-0.16-1.03q4.06-1.24 7.3-3.96a0.44 0.43-75.4 0 0-0.43-0.74l-6.33 2.44q-1.28 0.49-1.43-0.87-0.38-3.46-2.22-6.46-0.27-0.45-0.13-0.95l0.46-1.63q0.19-0.69-0.52-0.65c-15.45 0.84-26.62 15.05-29.23 29.5q-0.18 0.98-1.01 0.45c-2.4-1.49-1.21-4.26-1.72-6.15q-1.33-4.96-5.92-7.59-0.39-0.23-0.51 0.21-0.03 0.13 0.01 0.27t0.19 0.25q4.62 3.29 5.84 9.16a0.38 0.38 0 0 1-0.63 0.36q-6.77-6.15-15.65-8.55-2.34-0.63-0.16 0.42c4.52 2.16 9.95 4.39 13.31 7.93 3.68 3.88 12.25 18.06 5.74 22.62-8.23 5.77-20.13-8.24-24.22-11.79a0.22 0.22 0 0 0-0.36 0.22zm50.42-59.98q4.78-3.83 10.73-5.29a0.3 0.29-33.3 0 0 0.11-0.52q-0.37-0.28-1.05-0.15c-4.27 0.85-6.42 2.42-9.74 4.7q-0.64 0.44-0.61 1.01 0.03 0.68 0.56 0.25zm14.3 10.14c2.33-10.38-10.08-7.18-14.33-3.87q-6.14 4.78-11.68 10.26-0.87 0.86 0.58 0.96a0.6 0.57 28 0 0 0.36-0.1c5.25-3.53 17.38-14.52 23.2-6.84a1.06 1.05-57.3 0 0 1.87-0.41zm23.3-1.17q-0.55-0.34-0.98-0.13a0.37 0.36 45.2 0 0 0 0.65c2.8 1.45 3.66 4.03 4.42 6.44a0.32 0.32 0 0 0 0.62-0.11q-0.23-4.49-4.06-6.85zm0.34 8.74c-2.34-1.82-6.34-1.19-5.85 2.48q0.06 0.44 0.5 0.38l2.45-0.34a1.09 1.07-24.3 0 1 0.96 0.35c2.72 3.04 1.79 10.63 1.82 14.43a0.46 0.46 0 0 0 0.91 0.09c1.1-4.88 3.58-13.98-0.79-17.39z" />
            <path class="paupiere gauche" d="m163.58 134.91a0.45 0.45 0 0 0-0.47-0.72q-6.71 1.72-13.68 1.54-0.76-0.02-0.27-0.61 5.26-6.27 13.52-6.68a1.37 1.36 86 0 1 1.42 1.24l0.52 5.94a0.87 0.87 0 0 1-0.56 0.88l-0.66 0.24a0.54 0.54 0 0 1-0.61-0.84z" />
            <path class="oeil gauche" d="m162.85 139.85a1.55 1.54 19.5 0 1 0.91 1.9c-3.22 10.12-9.81 18.97-20.56 21.87a0.77 0.77 0 0 1-0.54-1.43q1.09-0.55 2.66-0.55 0.44 0 0.83-0.22c5.55-3.14 11.62-12.97 5.6-18.11-2.71-2.31-6.22-1.44-8.68 0.71a0.29 0.29 0 0 1-0.46-0.34c3.79-8.66 13.34-6.52 20.24-3.83z" />
            <path class="pupille gauche" d="m142.97 155.23c4.17 0.17 5.25-3.13 5.01-6.63a1.03 1.03 0 0 0-0.6-0.85l-3.95-1.74q-0.44-0.2-0.09-0.52c10.39-9.34 14.64 12.91-1.62 15.69a1.44 1.43 63 0 1-1.28-0.42q-3.47-3.65-1.18-8.49a0.52 0.52 0 0 1 0.88-0.1l2.07 2.67a1.02 1.02 0 0 0 0.76 0.39z" />
            <path class="paupiere droite" d="m136.08 119.62q-8.9 3.14-18.36 4.03a0.27 0.27 0 0 1-0.24-0.44q6.84-8.81 17.96-10.3 0.45-0.06 0.66 0.35 2.02 4.03 2.12 8.44 0.01 0.57-0.55 0.66l-2.88 0.48a0.5 0.5 0 0 1-0.37-0.91l1.87-1.3a0.5 0.5 0 0 0 0.19-0.56l-0.09-0.3q-0.08-0.23-0.31-0.15z" />
            <path class="oeil droite" d="m117.97 125.35c5.76-1.38 13.64-1.23 19.23 1.14a1.34 1.33 20.5 0 1 0.75 1.63q-3.33 10.29-10.01 17.96c-2.97 3.41-9.29 7.53-13.95 5.46a0.77 0.77 0 0 1 0.05-1.43q10.17-3.64 12.46-13.85c1.23-5.5-2.64-9.75-8.28-8.34-1.98 0.49-3.53 2.31-5.17 3.61a0.49 0.49 0 0 1-0.78-0.52c0.85-2.95 2.55-4.9 5.7-5.66z" />
            <path class="pupille droite" d="m115.07 141.33q5.34 0.08 6.11-5.1a1.27 1.24 31.9 0 0-0.22-0.9q-1.87-2.64-5.2-2.58a0.69 0.69 0 0 1-0.58-1.08c3.7-5.36 11.95-2.21 10.36 4.37-1.33 5.5-7.91 14.39-14.77 13.01a1.03 1.03 0 0 1-0.74-0.61q-2.56-6.24 0.77-12a0.61 0.61 0 0 1 1.06 0.01l2.45 4.42a0.9 0.89 75.9 0 0 0.76 0.46z" />
        </g>
        <g id="barbe">
            <path d="m127.55 265.39q-13.84-7.86-0.62 1.01c8.05 5.4 17.69 12.22 25.29 19.95a0.26 0.26 0 0 1-0.33 0.39c-17.51-11.46-38.57-15.37-56.56-26.41q-1.15-0.7-0.51-1.89c0.52-0.99 1.62-1.9 2.16-2.91q6.22-11.68-3.66-20.3-0.42-0.37-0.05-0.79 5.27-5.92 2.23-13.6-0.22-0.56 0.11-1.07 1.77-2.73 0.89-4.75c-4.55-10.39-13.47-7.1-19.48-0.25q-1.23 1.39-3.35 0.8-0.47-0.13-0.39-0.6l0.57-3.5a1.15 1.14-10.3 0 1 0.56-0.8c4.91-2.76 9.04-5.03 10.55-10.9a0.85 0.84 24.4 0 1 1.29-0.48q11.61 7.91 23.58 0.3 0.44-0.27 0.84 0.05c9.86 7.9 23.06 11.35 35.25 7.74 10-2.95 17.62-10.84 17.69-21.58a0.53 0.52-78.1 0 1 0.73-0.48c20.53 8.74 37.99 16.35 52.54 33.56 6.93 8.19 9.61 15.94 9.58 26.37a0.57072 0.43055-53.4 0 1-0.97 0.29q0-0.21-0.12-0.31-0.1-0.08-0.14-0.2l-2.71-8.7a0.39 0.38-60.8 0 0-0.74 0.21c7.2 28.78-1.23 50.7-18.13 73.5a0.82 0.82 0 0 1-1.46-0.65l0.72-3.49q0.03-0.17-0.14-0.16-0.14 0.01-0.28 0.01t-0.19 0.13c-6.07 17.16-22.78 40.86-42.81 42.37a0.72 0.72 0 0 1-0.37-1.37q7.14-3.38 11.15-10.21a0.3 0.3 0 0 0-0.46-0.37q-5.99 5.67-13.56 1.7a0.7 0.7 0 0 1 0.08-1.27c13.67-5.09 14.64-23.7 9.16-35.01-6.12-12.65-15.14-19.98-26.48-28.49q-7.24-5.43-11.46-7.84zm-89.09-135.16q-1.4 0.67-3.91 2.71a0.79 0.79 0 0 1-1.2-0.99c4.54-8.34 17.36-13.24 26.16-14.46 13.68-1.91 21.7-3.56 30.66-7.18q1.07-0.43 1.03 0.73-0.04 1.02-1 2.16c-9.45 11.34-24.15 7.31-36.62 12.69-10.19 4.4-14.1 13.87-12.32 24.94 2.78 17.21 18.17 29.28 34.69 32.66q0.54 0.11 0.7 0.64l0.91 3.09q0.21 0.72-0.54 0.8-17.56 1.81-25.26 16.86c-2.03 3.96-1.24 10.2-1.29 14.58q-0.01 0.65-0.54 0.28c-18.74-12.67-27.38-32.88-22.26-55.09q0.15-0.68-0.31-0.16c-2.24 2.54-2.74 11.69-2.87 14.89a0.66 0.67 37.6 0 1-1.3 0.17c-5.74-18.77 0.45-37.35 15.86-48.55q4.11-2.98-0.59-0.77z" />
        </g>
        <g id="manteau">
            <path class="tissu" d="m153.77 336.14-0.03 1.79a0.42 0.41 19.3 0 1-0.67 0.32l-4.34-3.38q-0.37-0.28-0.43-0.74c-1.17-9.1-13.46-6.59-19.64-5.16q-14.91 3.47-30.2 2.67c-10.23-0.54-23.34-6.45-32.61-0.69a0.51 0.51 0 0 0 0.41 0.92q6.12-1.75 12.42-1.2 0.47 0.04 0.46 0.52c-0.08 3.99-0.26 8.04-5.62 7.81-8.07-0.34-18.22-6.14-12.82-15.56 4.32-7.52 9.53-13.99 12.17-22.22a0.88 0.88 0 0 1 1.34-0.46c6.14 4.21 11.13 1.87 17.12-1.17 13.72-6.94 27.02-14.25 41.61-19.19q1.12-0.38 2.23 0.04c14.02 5.26 27.47 15.4 29.77 31.23 1.33 9.13-0.24 20.58-10.6 23.72a0.8 0.79 82.6 0 0-0.57 0.75zm84.35-24.93q5.21 0.53 0.16-0.88c-12.52-3.5-27.68 8.24-40.78 12.52a0.57 0.57 0 0 1-0.59-0.93c12.02-12.72 23.73-28.82 27.65-45.98q0.15-0.63 0.49-0.09c2.58 3.98 4.83 8.29 7.66 11.9 5.21 6.64 14.51 16.05 12.83 23.61-1.61 7.23-10.88 11.68-17.67 12.89a0.38 0.38 0 0 1-0.45-0.42l1.28-11.71a0.49 0.5 86.5 0 1 0.38-0.42q4.49-0.95 9.04-0.49zm-119.92-36.58c-5.07 3.34-49.74 32.94-52.51 18.22q-0.15-0.8 0.55-1.22 11.83-7.18 14.02-20.52c0.36-2.16 0.01-5.61 1.19-8.53a0.9 0.92 6.3 0 1 0.67-0.55l9-1.79q0.43-0.08 0.8 0.15 12.36 7.72 26.09 12.63 1.7 0.61 0.19 1.61zm-98.25-2.55-0.26-0.26a0.13 0.12 69.2 0 0-0.1-0.05q-1.81-0.05-3.42-0.81a0.97 0.95 9.6 0 1-0.55-0.76q-0.87-7.39 1.83-14.25a1.43 1.44 36.4 0 0-0.21-1.43l-3.63-4.61q-0.4-0.51 0.01-1.02l2.04-2.49a0.42 0.42 0 0 0-0.62-0.56l-1.39 1.39a0.8 0.79 55.1 0 1-1.28-0.23c-1.44-3.14-2.44-5.17-0.11-8.24 7.24-9.58 15.13-17.89 22.21-27.42q0.47-0.64 1.06-0.1 6.07 5.57 12.98 10.62c2.87 2.1 4.45 5.43-0.18 6.92-5.04 1.64-8.46-0.75-13.19 3.07a0.53 0.52 60.2 0 0-0.16 0.61q0.05 0.13 0.09 0.28a0.21 0.21 0 0 0 0.34 0.1q3.11-2.86 7.33-2.31 0.76 0.1 0.28 0.71c-3.66 4.58-6.46 7.22-8.5 13.8q-0.14 0.45 0.34 0.42 0.27-0.02 0.37-0.25c2.45-5.75 6.5-12.41 12.81-14.23a0.72 0.72 0 0 1 0.88 0.92c-4.52 13.52-9.15 32.86-0.14 45.28 4.37 6.02 11.57 6.4 17.49 2.66 3.86-2.44 7.11-6.85 11.63-9.5q1.13-0.65 0.87 0.62c-2.48 12.28-12.02 22.33-25.05 20.83-9.91-1.15-16.29-8.33-20.43-17.17q-0.09-0.19-0.3-0.12-0.11 0.04-0.23 0.08-0.21 0.07-0.14 0.28 2.51 7.44 8.15 12.85 0.63 0.6-0.19 0.89-5.51 1.96-11.37 1.92-0.53 0-0.94-0.34-5.64-4.66-9.7-10.72a0.46 0.46 0 0 1 0.61-0.66q0.87 0.49 1.83 0.57a0.41 0.41 0 0 0 0.13-0.8q-4.39-1.15-5.08-5.68a0.56 0.56 0 0 1 0.61-0.64l3.05 0.32a0.29 0.29 0 0 0 0.23-0.49zm151.6-85.94c14.54 4.66 29.16 6.65 43.89 10.35a0.65 0.66 40.8 0 1 0.09 1.24l-1.92 0.8a1.06 1.06 0 0 0-0.32 1.75q4.03 3.86 6.84 8.71a0.56 0.56 0 0 1-0.3 0.81l-2.15 0.74a0.37 0.38 57.6 0 0-0.14 0.62l0.22 0.22a0.24 0.24 0 0 0 0.2 0.08l2.64-0.26a0.71 0.72 76.3 0 1 0.73 0.44l1.6 4.07a0.47 0.47 0 0 1-0.23 0.59l-2.37 1.21a0.47 0.47 0 0 0 0.31 0.88l2.09-0.42a0.54 0.54 0 0 1 0.63 0.44l0.98 6.05a0.48 0.47 22 0 1-0.85 0.36q-4.5-5.97-9.46-11.86c-11.04-13.1-27.63-19.56-42.91-26.31q0.16-0.36 0.43-0.51z" />
            <path class="patch gauche" d="m223.31 210.49c-0.83-0.27-1.43-0.56-1.85-1.38q-2.13-4.15-6.22-9.08a0.28 0.28 0 0 1 0.12-0.45c3.86-1.52 7.27-0.73 10.67 1.76 14.76 10.82 9.86 31.12 3.42 45.18a0.59 0.59 0 0 1-1.13-0.24q-0.04-5.92-1.36-11.88c-1.22-5.51-1.32-10.57-2.18-15.95q-0.07-0.44 0.16-0.83l0.23-0.39q0.2-0.33-0.01-0.66l-2-3.11q-0.31-0.47-0.05-0.97l0.57-1.09a0.65 0.64 23 0 0-0.37-0.91z" />
            <path class="patch droite" d="m10.85 253.56q0.91-0.94 1.18-2.24a0.56 0.56 0 0 1 0.97-0.25l3.17 3.65a0.95 0.94 35.4 0 1 0.17 0.98q-2.41 5.96-1.85 12.39a1.69 1.04-58.3 0 1 0 0.25q-0.19 1.8-1.52 1.66a0.33 0.33 0 0 0-0.18 0.62l1.38 0.67a0.44 0.39 1.8 0 1 0.18 0.17q0.94 1.75 0.47 3.9-0.21 0.97 0.72 1.36a1.57 1.54-2.7 0 1 0.76 0.68q3.76 6.78 9.42 12.11a0.41 0.41 0 0 1-0.36 0.71c-14.76-2.86-24.47-13.55-22.78-29.09 0.65-5.94 3.18-12.05 6.19-17.37a0.6 0.6 0 0 1 1.08 0.08l1.97 5.12q0.21 0.52-0.02 1.04l-1.41 3.25q-0.61 1.41 0.46 0.31z" />
        </g>
        <g id="pantalon">
            <path class="tissu" d="m209.66 334.2c-4.96 5.06-10.27 10.84-15.11 14.82q-18.08 14.84-41.72 20.07-2.33 0.52-4.18 0.41-0.54-0.03-0.57-0.57c-0.58-9.79-4.57-14.11-10.59-20.96-2.31-2.62-3.07-6.44-4.79-9.73a0.38 0.38 0 0 0-0.7 0.26l0.88 3.72a0.58 0.58 0 0 1-0.92 0.6l-4.16-3.16a0.47 0.47 0 0 0-0.7 0.61c2.79 4.89 8.56 7.87 12.06 12.29 6.53 8.25 9.21 22.21 1.05 30-10.4 9.92-29.49 5.35-41.35 1.32-3.42-1.17-6.59-1.53-10.02-1.9-4.18-0.44-5.93-1.74-6.85-5.74-0.81-3.57-1.74-13.03 1.54-15.61a1.81 1.8 55.6 0 1 2.66 0.5q3.14 5.28 7.92 9.21a0.19092 0.19092 0 0 0 0.27-0.27q-12.91-16.44-13.2-37.57a0.78 0.78 0 0 1 0.44-0.72q1.98-0.97 4.15-0.33c17.05 5.06 33.68 2.33 51.98-1.43q3.68-0.75 6.39 1.71c2.7 2.45 2.6 6.8 7.41 7.91q3.91 0.9 7.85 2.61a0.99 0.98-46.3 0 1 0.04 1.79l-3.56 1.72a1.87 1.87 0 0 0-0.48 3.03c2.54 2.42 6.34 2.07 9.72 0.92 11-3.75 18.17-10.2 26.24-18.69q2.39-2.52 4.86-3.92 12.77-7.22 27.49-12.95 1.55-0.6 1.97 1.01c0.13 0.51 0.35 2.16 0.28 2.82-1.62 16.29-8.45 31.74-14.87 46.62a0.7 0.67-46.2 0 0 0 0.55q0.2 0.45 0.71 0.34 0.93-0.21 0.94 0.75c0.12 10.49-1.34 20.82-2.41 31.3-1.98 19.25-24.18 2.82-31.49-1.15q-5.74-3.11-10.68-2.73-0.49 0.04-0.71-0.41-5.15-10.89-5.01-22.99 0-0.5 0.46-0.72 4.33-2.1 8.77-3.96 21.53-9.07 36.62-27.53 1.4-1.72 1.96-3.5a0.35 0.35 0 0 0-0.59-0.35zm-39.15 39.83c-0.07 4.61 3.01 11.5 8.6 11.14q0.97-0.06 0.08-0.45l-2.38-1.04a1.11 1.06-9.4 0 1-0.38-0.26q-4.04-4.09-4.65-9.93a0.5 0.49-18.1 0 0-0.74-0.37q-0.53 0.31-0.53 0.91z" />
        </g>
        <g id="chaussures">
            <path class="gauche tissu" d="m129.43 453.16q0.08-0.14 0.11-0.27 0.09-0.33-0.23-0.22-16.03 5.37-32.59 2.34c-18.39-3.37-10.4-14.9 2.05-17.18q6.05-1.11 12.22-1.13 0.69 0 0.27-0.55-0.25-0.32-0.76-0.35-7.83-0.46-15.3 1.31a0.4 0.4 0 0 1-0.47-0.52c1.64-4.64 4.25-7.17 8.3-10.59q15.29-12.9 35.18-13.03c10.18-0.06 19.68 3.68 28.6 8.55q0.19 0.1 0.35-0.05l0.29-0.29a0.1 0.09 39.6 0 0-0.02-0.15q-12.3-8.08-26.92-9.78a0.43 0.43 0 0 1-0.16-0.8q1.34-0.74 2.99-1.24 19.12-5.8 36.68 3.22 0.31 0.16 0.55-0.09 0.11-0.12 0.16-0.24 0.07-0.22-0.12-0.35c-8.59-5.79-17.77-6.99-27.31-6.44a1.29 1.29 0 0 1-1.08-2.1c7.49-9.3 18.69-10.29 28.64-3.83 8.87 5.76 24.99 15.88 31.71 0.43q0.52-1.2-0.53-1.86a0.83 0.82-71.5 0 1-0.39-0.8l1.21-10.81q0.13-1.15 1.25-0.89c11.46 2.73 7.9 15 3.34 21.63-1.41 2.06-3.72 4-5.6 5.95q-0.8 0.82 0.23 0.32 2.71-1.31 4.74-3.55a0.58 0.58 0 0 1 0.87 0.01q5.09 5.75 8.36 12.64a2.44 2.35 36.5 0 1 0.22 1.31q-0.34 2.94-2.34 5.02a1.52 1.52 0 0 1-0.59 0.38q-7.75 2.73-15.64 4.95c-7.86 2.21-14.17 7.18-22.51 12.32-15.95 9.85-35.45 10.92-54.69 10.15q-3.02-0.11-4.56-0.42a0.41 0.41 0 0 1-0.11-0.77l2.84-1.48q0.49-0.26 0.76-0.75z" />
            <path class="droite tissu" d="m73.15 364q1.13-10.04 6.2-18.76a0.56 0.56 0 0 1 1.02 0.13l2.73 9.86a1.33 1.3 52.2 0 1-0.11 0.95q-6.45 11.9-1.65 24.53 0.27 0.72-0.49 0.75l-2.15 0.11a0.61 0.61 0 0 0-0.03 1.21c7.25 0.79 14.84 1.17 21.76 3.67 6.61 2.38 12.98 4.71 20.07 5.12a0.41 0.4 28.5 0 1 0.22 0.73l-3.23 2.35a1.15 1.12 36 0 1-1.03 0.15q-10.92-3.89-19.22-4.22c-8.42-0.34-18.49-1.33-26.57 1.08a0.32 0.32 0 0 0 0.12 0.62q16.63-1.71 32.95 0.78c1.41 0.21 11.28 1.72 13.8 4.33q0.62 0.64-0.25 0.49c-15.36-2.66-34.74 0.41-48.83 6.66q-0.62 0.27-0.05 0.63 0.35 0.23 0.8 0.05c17.3-6.61 53.14-12.94 67.01 5.51q0.32 0.43-0.21 0.48c-6.58 0.63-13.5 2.67-19.99 2.36q-6.53-0.31-12.77 1.77-0.32 0.11-0.48 0.41l-0.23 0.43q-0.23 0.43 0.25 0.29 5.28-1.55 10.73-1.49a0.62 0.62 0 0 1 0.28 1.18c-8.27 4.2-18.23 11.74-20.94 21.14q-0.24 0.82-1.09 0.85c-13.4 0.53-41.51-5.84-42.73-23.16-1.61-23.04 8-45.56 20.69-65q3.72-5.69 8.8-10.67a0.47 0.47 0 0 1 0.78 0.2c0.3 0.98 0.14 2.28-0.37 3.27-3.6 6.94-6.75 13.08-6.31 21.19a0.26019 0.26019 0 0 0 0.52 0.02z" />
        </g>
    </g>
</svg>